<?xml version="1.0" encoding="UTF-8" standalone="no"?>
<svg
   xmlns:dc="http://purl.org/dc/elements/1.1/"
   xmlns:cc="http://creativecommons.org/ns#"
   xmlns:rdf="http://www.w3.org/1999/02/22-rdf-syntax-ns#"
   xmlns:svg="http://www.w3.org/2000/svg"
   xmlns="http://www.w3.org/2000/svg"
   id="svg4390"
   version="1.1"
   viewBox="0 0 52.038471 21.096836"
   height="21.096836mm"
   width="52.038471mm">
  <defs
     id="defs4384">
    <clipPath
       clipPathUnits="userSpaceOnUse"
       id="clipPath1732">
      <path
         d="m 2132.46,1400.12 c -40.18,-21.41 -75.95,-52.35 -111.16,-80.14 -28.44,-22.44 -57.29,-44.71 -89.26,-61.74 -72.51,-38.61 -157.74,-47.21 -239.65,-41.13 -71.58,5.33 -144.85,8.38 -200.8,60.09 -24.67,22.79 -45.78,55.69 -61.04,85.62 -11.3,22.17 -71.2,156.82 37.08,280.97 46.6,53.42 112.43,86.82 180.02,108.19 44.83,14.17 111.81,32.99 189.8,28.76 118.59,-6.45 227.31,-75.57 329.02,-136.88 36.3,-21.87 68.52,-54.06 101.97,-80.1 77.92,-60.64 106.46,-100.06 248.02,-141.61 -12.37,-39.63 -16.65,-81.8 -22.18,-122.96 -1.55,-11.44 45.97,-23.2 36.6,-31.31 -11.19,-9.69 -85.55,-7.76 -160.22,26.27 -52.68,24.02 -88.59,58.69 -136.98,90.46 -22.78,14.95 -45.58,29.94 -67,46.78 -23.88,18.79 -45.92,39.83 -69.92,58.47 -99.47,77.22 -232.6,109.39 -356.36,86.1 -17.82,-3.36 -35.5,-7.82 -52.22,-14.79 -17.97,-7.5 -38.2,-17.96 -48.16,-34.69 -34.84,-58.55 15.88,-100.41 30.43,-105.17 30.31,-9.91 69.98,-5.37 81.39,-1.7 76.29,24.58 119.86,48.1 177.16,94.1 64.99,52.16 140.03,47.51 223.11,41.01 6.18,-0.49 12.62,-1.12 17.84,-4.46 7.97,-5.12 11.05,-15.21 12.46,-24.59 7.15,-47.54 -7.53,-102.94 -49.95,-125.55 z"
         id="path1730" />
    </clipPath>
    <clipPath
       clipPathUnits="userSpaceOnUse"
       id="clipPath1782">
      <path
         d="m 2473.23,1265.33 c 76.48,-16.78 171.19,-16.37 246.53,4.96 16.09,4.56 33.13,8.2 46.74,17.92 124.65,89.02 114.49,194.98 110.37,248.88 -4.9,63.96 -47.15,123.87 -95.07,166.51 -47.92,42.63 -95.43,69.79 -155.13,93.24 -94.94,37.3 -228.88,8.48 -357.73,-56.79 -12.96,-6.57 -38.45,-25.11 -50.02,-33.91 -15.26,7.63 -35.71,18.67 -55.39,21.45 -38.25,5.41 -78.66,-7.18 -107.06,-33.36 -12.43,-11.45 -21.75,-26.41 -24.39,-43.1 -6.44,-40.78 5.84,-50.57 8.82,-64.51 -48.13,-12.79 -90.27,-37 -134.32,-60.23 -3.58,-1.88 -7.33,-3.98 -9.3,-7.51 -5.83,-10.44 7.61,-21.09 19.03,-24.64 38.86,-12.06 81.07,-10.11 120.54,-0.25 39.47,9.85 76.62,27.29 112.73,46.05 -16.57,-60.6 -34.08,-108.56 -66.29,-171.29 29.22,17.3 66.33,35.19 89,60.46 43.22,48.18 96.87,86.94 156.19,112.84 68.85,30.06 142.2,59.76 217.33,58.64 22.59,-0.33 45.48,-2.45 66.61,-10.41 21.13,-7.96 40.54,-22.33 50.9,-42.39 7.08,-13.7 9.66,-29.39 9.3,-44.8 -0.34,-15.12 -3.54,-30.41 -11.15,-43.47 -14.67,-25.15 -44.06,-39.12 -73.05,-41.8 -29.97,-2.79 -88.39,9.61 -86.52,9.21 -4.96,-34.41 -11.83,-41.67 -16.8,-76.08 -3.01,-20.85 -13.43,-85.27 -11.87,-85.62 z"
         id="path1780" />
    </clipPath>
  </defs>
  <metadata
     id="metadata4387">
    <rdf:RDF>
      <cc:Work
         rdf:about="">
        <dc:format>image/svg+xml</dc:format>
        <dc:type
           rdf:resource="http://purl.org/dc/dcmitype/StillImage" />
        <dc:title></dc:title>
      </cc:Work>
    </rdf:RDF>
  </metadata>
  <g
     id="layer1">
    <g
       transform="matrix(0.35277777,0,0,-0.35277777,-49.525066,63.971305)"
       id="g4196">
      <path
         d="m 213.246,140.012 c -4.018,-2.141 -7.595,-5.235 -11.116,-8.014 -2.844,-2.244 -5.729,-4.471 -8.926,-6.174 -7.251,-3.861 -15.774,-4.721 -23.965,-4.113 -7.158,0.533 -14.485,0.838 -20.08,6.009 -2.467,2.279 -4.578,5.569 -6.104,8.562 -1.13,2.217 -7.12,15.682 3.708,28.097 4.66,5.342 11.243,8.682 18.002,10.819 4.483,1.417 11.181,3.299 18.98,2.876 11.859,-0.645 22.731,-7.557 32.902,-13.688 3.63,-2.187 6.852,-5.406 10.197,-8.01 7.792,-6.064 10.646,-10.006 24.802,-14.161 -1.237,-3.963 -1.665,-8.18 -2.218,-12.296 -0.155,-1.144 4.597,-2.32 3.66,-3.131 -1.119,-0.969 -8.555,-0.776 -16.022,2.627 -5.268,2.402 -8.859,5.869 -13.698,9.046 -2.278,1.495 -4.558,2.994 -6.7,4.678 -2.388,1.879 -4.592,3.983 -6.992,5.847 -9.947,7.722 -23.26,10.939 -35.636,8.61 -1.782,-0.336 -3.55,-0.782 -5.222,-1.479 -1.797,-0.75 -3.82,-1.796 -4.816,-3.469 -3.484,-5.855 1.588,-10.041 3.043,-10.517 3.031,-0.991 6.998,-0.537 8.139,-0.17 7.629,2.458 11.986,4.81 17.716,9.41 6.499,5.216 14.003,4.751 22.311,4.101 0.618,-0.049 1.262,-0.112 1.784,-0.446 0.797,-0.512 1.105,-1.521 1.246,-2.459 0.715,-4.754 -0.753,-10.294 -4.995,-12.555"
         style="fill:#63705f;fill-opacity:1;fill-rule:nonzero;stroke:none;stroke-width:0.1"
         id="path1724" />
      <g
         transform="scale(0.1)"
         id="g1726">
        <g
           id="g1728"
           clip-path="url(#clipPath1732)">
          <path
             d="m 2471.88,1492 c -33.5,-19.96 -42,-77.75 -53.42,-111.2 -8.31,-24.35 -18.92,-48.58 -29.32,-72.14 -7.44,-16.88 -26.37,-34.14 -25.19,-52.93 0.25,-3.99 2.69,-8.41 7,-9.2 35.35,-6.48 48.71,51.54 57.11,76.41 8.33,24.71 15.98,49.14 22.15,74.51 5.22,21.53 9.24,68.81 28.33,83.15 6.62,4.97 0.84,15.87 -6.66,11.4 v 0"
             style="fill:#475b40;fill-opacity:1;fill-rule:nonzero;stroke:none"
             id="path1734" />
          <path
             d="m 2457.57,1536.47 c -0.59,0.5 -1.18,0.99 -1.77,1.49 -1.3,1.12 -3.29,2.06 -5.05,1.34 -11.64,-4.82 -17.47,-16.27 -23.87,-26.66 -16.99,-27.57 -36.21,-54.05 -54.1,-81.07 -18.87,-28.53 -38.58,-56.55 -58.55,-84.31 -16.39,-22.79 -42.73,-46 -49.13,-73.88 -1.06,-4.58 3.29,-10.63 8.5,-8.5 18.84,7.72 28.59,22.36 40.83,38.29 20.55,26.74 39.65,54.68 58.09,82.9 19.15,29.31 37.11,59.33 54.62,89.65 4.14,7.17 20.15,51.48 28.74,54.37 2.51,0.85 4.01,4.4 1.69,6.38 v 0"
             style="fill:#475b40;fill-opacity:1;fill-rule:nonzero;stroke:none"
             id="path1736" />
          <path
             d="m 2389.28,1540.58 c -46.72,-39 -79.39,-89.48 -120.79,-133.4 -21.22,-22.5 -78.17,-67.05 -64.12,-103.47 1.67,-4.33 7.39,-6.91 11.02,-2.91 12.86,14.12 20.16,33.07 32.3,48.21 13.29,16.57 28.82,31.32 42.93,47.19 38.33,43.16 68.01,93.14 107.77,135.28 5.78,6.13 -2.81,14.35 -9.11,9.1 v 0"
             style="fill:#475b40;fill-opacity:1;fill-rule:nonzero;stroke:none"
             id="path1738" />
          <path
             d="m 1915.87,1539.27 c 35.24,32.64 69.18,65.05 100.65,101.4 25.86,29.85 62.63,53.47 73.4,93.32 0.93,3.45 -3.57,6.3 -6.11,3.55 -58.53,-63.39 -114.33,-129.83 -175.02,-191.19 -4.56,-4.61 2.36,-11.45 7.08,-7.08 v 0"
             style="fill:#475b40;fill-opacity:1;fill-rule:nonzero;stroke:none"
             id="path1740" />
          <path
             d="m 1855.92,1540.45 c 30.48,38.89 50.61,82.17 67.76,128.23 19.05,51.16 41.78,102.07 58.69,153.83 0.7,2.12 -2.36,4.03 -3.85,2.24 -28.31,-33.99 -41.64,-80.42 -56.08,-121.53 -19.31,-54.98 -39.11,-110.03 -71.76,-158.72 -2.1,-3.13 2.89,-7.04 5.24,-4.05 v 0"
             style="fill:#475b40;fill-opacity:1;fill-rule:nonzero;stroke:none"
             id="path1742" />
          <path
             d="m 1803.83,1539.23 c 19.67,42.78 23.46,88.88 26.92,135.26 2.2,29.57 4.19,59.1 8.71,88.43 4.1,26.6 16.64,51.67 18.39,78.29 0.25,3.77 -4.84,5.63 -7.32,3.03 -28.65,-29.91 -30.21,-84.78 -33.91,-124.11 -5.63,-59.99 -6.44,-119.4 -17.58,-178.88 -0.51,-2.73 3.47,-4.89 4.79,-2.02 v 0"
             style="fill:#475b40;fill-opacity:1;fill-rule:nonzero;stroke:none"
             id="path1744" />
          <path
             d="m 1775.13,1535.21 c -21.36,60.67 -39.64,131.08 -37.74,195.76 0.81,27.74 16.77,92.93 -20.08,104.91 -4.74,1.55 -8.56,-3.25 -7.62,-7.62 4.85,-22.47 10.09,-41.19 9.29,-64.85 -0.76,-22.66 -1.85,-43.78 0.74,-66.41 6.54,-57.3 21.32,-113.65 45.53,-165.95 2.58,-5.57 11.9,-1.59 9.88,4.16 v 0"
             style="fill:#475b40;fill-opacity:1;fill-rule:nonzero;stroke:none"
             id="path1746" />
          <path
             d="m 1711.14,1521.46 c -8.11,56.12 -42.87,106.18 -65.86,157.09 -19,42.05 -35.16,85.49 -69.02,118.19 -9.88,9.54 -24.92,-5.47 -15.06,-15.06 32.14,-31.27 47.71,-73.82 65.26,-114.14 21.65,-49.72 45.52,-104.99 76.11,-149.69 3.15,-4.6 9.32,-1.59 8.57,3.61 v 0"
             style="fill:#475b40;fill-opacity:1;fill-rule:nonzero;stroke:none"
             id="path1748" />
          <path
             d="m 1677.54,1499.73 c -55.48,40.84 -101.17,99.29 -146.08,151.33 -17.26,20.02 -59.03,80.76 -91.45,72.99 -3.8,-0.92 -6.83,-4.86 -6.68,-8.77 0.39,-10 15.57,-11.83 22.3,-16.2 23.93,-15.54 43.69,-40.23 62.65,-61.2 47.89,-53.01 95.88,-105.13 154.13,-146.93 5.36,-3.85 10.34,4.95 5.13,8.78 v 0"
             style="fill:#475b40;fill-opacity:1;fill-rule:nonzero;stroke:none"
             id="path1750" />
          <path
             d="m 1644.42,1483.5 c -48.66,11.64 -90.36,42.17 -136.25,61.24 -24.32,10.11 -48.82,18.88 -72.59,30.41 -18.81,9.13 -35.43,22.27 -56.74,21.69 -2.99,-0.09 -5.69,-3.68 -3.7,-6.46 22.45,-31.29 82.1,-46.85 117.77,-58.8 50.91,-17.06 96.21,-45.1 149.32,-56.05 5.18,-1.06 7.41,6.73 2.19,7.97 v 0"
             style="fill:#475b40;fill-opacity:1;fill-rule:nonzero;stroke:none"
             id="path1752" />
          <path
             d="m 1644.53,1447.18 c -46.71,-12.9 -95.66,-15.61 -143.5,-22.45 -45.67,-6.52 -101.31,-10.87 -143.99,-28.09 -5.8,-2.34 -4.87,-10.12 1.46,-10.77 44.58,-4.53 91.79,11.76 135.17,20.4 51.68,10.29 102.87,16 152.98,33.25 4.79,1.65 2.87,9.04 -2.12,7.66 v 0"
             style="fill:#475b40;fill-opacity:1;fill-rule:nonzero;stroke:none"
             id="path1754" />
          <path
             d="m 1694.64,1441.28 c -19.61,-2.89 -33.63,-22.17 -47.52,-34.99 -29.06,-26.77 -55.75,-56.26 -83.96,-83.93 -48.77,-47.84 -99.29,-96.32 -152.25,-139.4 -5.03,-4.08 0.61,-10.5 5.64,-9.68 25.68,4.11 43.23,25.78 61.78,42.35 27.59,24.64 55.2,49.13 81.8,74.85 47.59,46.02 97,94.51 137.38,147.06 1.56,2.02 -1,4.02 -2.87,3.74 v 0"
             style="fill:#475b40;fill-opacity:1;fill-rule:nonzero;stroke:none"
             id="path1756" />
          <path
             d="m 1718.98,1434.31 c -0.27,-56.99 -14.88,-113.72 -26.26,-169.31 -8.29,-40.51 -27.18,-100.58 -10.01,-140.21 1.21,-2.78 5.88,-2.63 7.14,0 7.93,16.54 8.11,33.11 10.08,51.4 3.43,32.04 9.81,63.77 15.55,95.46 9.87,54.44 16.1,107.23 14.95,162.66 -0.15,7.36 -11.41,7.38 -11.45,0 v 0"
             style="fill:#475b40;fill-opacity:1;fill-rule:nonzero;stroke:none"
             id="path1758" />
          <path
             d="m 1752.07,1450.13 c -5.13,-61.94 21.77,-119.33 38.8,-177.52 9.4,-32.12 11.95,-66.46 14.6,-99.7 1.32,-16.48 3.36,-30.51 18.8,-38.44 2.67,-1.37 6.72,0.26 6.45,3.71 -3.53,46.84 -6.89,94.57 -19.36,140.09 -16.03,58.55 -47.61,109.81 -50.71,171.86 -0.28,5.58 -8.13,5.48 -8.58,0 v 0"
             style="fill:#475b40;fill-opacity:1;fill-rule:nonzero;stroke:none"
             id="path1760" />
          <path
             d="m 1804.38,1477.26 c 0.31,-24.99 13.77,-45.58 24.42,-67.49 16.5,-33.93 36.25,-66.1 53.58,-99.57 17.77,-34.31 22.08,-107.47 62.83,-123.79 2.92,-1.16 5.41,2.19 4.79,4.8 -4.59,19.18 -17.63,37.07 -24.77,55.66 -8.2,21.36 -15.27,43.08 -24.34,64.1 -10.76,24.97 -27.12,48.21 -40.88,71.61 -15.51,26.37 -45.43,63.31 -47.69,94.68 -0.36,5.05 -8.01,5.18 -7.94,0 v 0"
             style="fill:#475b40;fill-opacity:1;fill-rule:nonzero;stroke:none"
             id="path1762" />
          <path
             d="m 1839.08,1482.54 c 9.56,-48.07 33.22,-88.49 60.57,-128.57 31.39,-45.99 59.4,-103.78 100.24,-141.8 2.89,-2.69 7.95,-0.09 6.78,3.94 -13.73,47.15 -49.85,90.32 -78.13,129.73 -31.42,43.79 -64.06,86.93 -78.58,139.7 -1.95,7.08 -12.29,4.07 -10.88,-3 v 0"
             style="fill:#475b40;fill-opacity:1;fill-rule:nonzero;stroke:none"
             id="path1764" />
          <path
             d="m 1867.2,1509.95 c 6.96,-47.04 36.67,-87.28 67,-122.33 30.16,-34.85 70.6,-78.94 113.26,-98.2 4.57,-2.06 10.82,2.46 7.5,7.5 -23.01,34.98 -63.54,60.13 -93.26,89.4 -37.7,37.15 -65.5,77.22 -85.61,126.08 -2.27,5.5 -9.77,3.45 -8.89,-2.45 v 0"
             style="fill:#475b40;fill-opacity:1;fill-rule:nonzero;stroke:none"
             id="path1766" />
          <path
             d="m 1922.47,1554.37 c 11.58,-20.31 15.76,-41.83 29.05,-61.81 12.15,-18.27 28.15,-34.34 43.43,-49.93 40.13,-40.96 80.94,-82.51 122.32,-122.13 2.86,-2.73 8.87,-0.04 7.17,4.18 -17.81,44.17 -56.54,75.26 -90.8,106.7 -19.17,17.6 -37.85,35.82 -55.75,54.71 -20.82,21.97 -31.76,48 -48.56,72.29 -2.88,4.16 -9.44,0.5 -6.86,-4.01 v 0"
             style="fill:#475b40;fill-opacity:1;fill-rule:nonzero;stroke:none"
             id="path1768" />
          <path
             d="m 1938.06,1560.63 c 37.93,-29.85 79.47,-54.67 116.35,-85.92 41.04,-34.75 72.74,-78.01 110.78,-115.32 2.64,-2.59 7.02,0.01 6.11,3.55 -12.56,49.3 -62.55,86.55 -97.83,119.96 -36.87,34.91 -85.08,64.81 -131.93,83.71 -3.25,1.31 -6.24,-3.8 -3.48,-5.98 v 0"
             style="fill:#475b40;fill-opacity:1;fill-rule:nonzero;stroke:none"
             id="path1770" />
        </g>
      </g>
      <path
         d="m 247.323,126.533 c 7.648,-1.678 17.119,-1.637 24.653,0.496 1.609,0.456 3.313,0.82 4.674,1.792 12.465,8.902 11.449,19.498 11.037,24.888 -0.49,6.396 -4.715,12.387 -9.507,16.651 -4.792,4.263 -9.543,6.979 -15.513,9.324 -9.494,3.73 -22.888,0.848 -35.773,-5.679 -1.296,-0.657 -3.845,-2.511 -5.002,-3.391 -1.526,0.763 -3.571,1.867 -5.539,2.145 -3.825,0.541 -7.866,-0.718 -10.706,-3.336 -1.243,-1.145 -2.175,-2.641 -2.439,-4.31 -0.644,-4.078 0.584,-5.057 0.882,-6.451 -4.813,-1.279 -9.027,-3.7 -13.432,-6.023 -0.358,-0.188 -0.733,-0.398 -0.93,-0.751 -0.583,-1.044 0.761,-2.109 1.903,-2.464 3.886,-1.206 8.107,-1.011 12.054,-0.025 3.947,0.985 7.662,2.729 11.273,4.605 -1.657,-6.06 -3.408,-10.856 -6.629,-17.129 2.922,1.73 6.633,3.519 8.9,6.046 4.322,4.818 9.687,8.694 15.619,11.284 6.885,3.006 14.22,5.976 21.733,5.864 2.259,-0.033 4.548,-0.245 6.661,-1.041 2.113,-0.796 4.054,-2.233 5.09,-4.239 0.708,-1.37 0.966,-2.939 0.93,-4.48 -0.034,-1.512 -0.354,-3.041 -1.115,-4.347 -1.467,-2.515 -4.406,-3.912 -7.305,-4.18 -2.997,-0.279 -8.839,0.961 -8.652,0.921 -0.496,-3.441 -1.183,-4.167 -1.68,-7.608 -0.301,-2.085 -1.343,-8.527 -1.187,-8.562"
         style="fill:#5c7f5e;fill-opacity:1;fill-rule:nonzero;stroke:none;stroke-width:0.1"
         id="path1772" />
      <path
         d="m 222.175,164.829 c -1.172,0.264 -2.388,0.234 -3.588,0.181 -1.239,-0.054 -2.495,-0.134 -3.672,-0.528 -2.208,-0.739 -3.535,-1.752 -4.611,-4.876 -0.149,-0.433 -0.367,-1.828 -0.025,-2.132 -0.063,-0.092 4.84,0.481 6.951,1.441 2.11,0.961 4.304,3.685 4.945,5.914"
         style="fill:#ffffff;fill-opacity:1;fill-rule:nonzero;stroke:none;stroke-width:0.1"
         id="path1774" />
      <g
         transform="scale(0.1)"
         id="g1776">
        <g
           id="g1778"
           clip-path="url(#clipPath1782)">
          <path
             d="m 2573.67,1484.04 c -1.25,-28.43 -6.96,-56.26 -6.97,-84.77 0,-26.33 5.77,-53.19 11.13,-78.82 6.36,-30.41 14.34,-60.27 18.24,-91.15 4.01,-31.59 -2.44,-62.09 -1.23,-93.39 0.37,-9.51 12,-12.12 17.18,-4.65 28.27,40.7 14.85,103.5 3.97,148.22 -7.94,32.62 -18.36,64.35 -24.78,97.39 -6.91,35.61 -1.91,71.29 -1.96,107.17 -0.01,10.09 -15.14,9.99 -15.58,0 v 0"
             style="fill:#475b40;fill-opacity:1;fill-rule:nonzero;stroke:none"
             id="path1784" />
          <path
             d="m 2593.22,1478.4 c 16.8,-43.69 34.35,-88.24 55.28,-130.15 11.61,-23.27 25.96,-45.32 38.84,-67.88 14.75,-25.86 25.27,-54.09 40.98,-79.32 2.74,-4.42 9.97,-2.75 9.92,2.68 -0.51,49.69 -35.29,95.82 -60.26,136.51 -27.86,45.44 -41.61,102.47 -77.72,142.25 -2.73,3.02 -8.57,-0.11 -7.04,-4.09 v 0"
             style="fill:#475b40;fill-opacity:1;fill-rule:nonzero;stroke:none"
             id="path1786" />
          <path
             d="m 2633.24,1504.17 c 34.91,-44.64 76.74,-81.94 120.39,-117.84 23.33,-19.17 46.64,-38.34 69.58,-57.98 20.4,-17.46 38.52,-38.36 62.83,-50.37 5.33,-2.63 10.03,2.55 7.73,7.72 -19.69,44.05 -72.26,74.72 -109.57,103.15 -50.21,38.25 -101.22,75.6 -146.02,120.27 -3.28,3.28 -7.64,-1.5 -4.94,-4.95 v 0"
             style="fill:#475b40;fill-opacity:1;fill-rule:nonzero;stroke:none"
             id="path1788" />
          <path
             d="m 2641.07,1530.9 c 55.02,-15.05 104.53,-49.45 158.02,-69.79 32.22,-12.25 64.94,-24.15 96.66,-37.61 18.57,-7.88 35.4,-14.03 55.58,-10.08 5.22,1.03 4.79,8.83 0,10.12 -23.06,6.19 -43.56,18.6 -65.58,27.53 -26.66,10.8 -54.16,20.06 -81.14,30.04 -53.29,19.71 -105.22,47.01 -160.7,60.06 -6.67,1.57 -9.47,-8.46 -2.84,-10.27 v 0"
             style="fill:#475b40;fill-opacity:1;fill-rule:nonzero;stroke:none"
             id="path1790" />
          <path
             d="m 2635.71,1553.51 c 66.19,7.85 132.18,15.96 197.93,26.97 55.58,9.31 123.3,7.29 170.41,42.34 3.75,2.79 1.63,8.79 -3.25,7.7 -120.31,-26.72 -242.85,-45.97 -365.09,-62.23 -9.25,-1.24 -9.51,-15.91 0,-14.78 v 0"
             style="fill:#475b40;fill-opacity:1;fill-rule:nonzero;stroke:none"
             id="path1792" />
          <path
             d="m 2580.83,1551.99 c 53.06,35.1 99.23,78.46 147.16,120.05 41.84,36.3 119.07,56.37 144.13,108.31 1.42,2.93 -0.95,7.46 -4.67,6.07 -23.04,-8.58 -43.1,-24.75 -64.15,-37.32 -27.69,-16.57 -55.57,-32.43 -81.25,-52.05 -53.14,-40.6 -97.77,-91.7 -150.57,-132.96 -6.92,-5.41 2.11,-16.9 9.35,-12.1 v 0"
             style="fill:#475b40;fill-opacity:1;fill-rule:nonzero;stroke:none"
             id="path1794" />
          <path
             d="m 2524.58,1540.91 c 37.8,46.15 58.74,104.74 81.66,159.29 27.38,65.18 42.8,127.69 51.05,197.52 0.41,3.38 -5.17,4.91 -6.51,1.77 -9.79,-22.99 -14.88,-47.18 -20.74,-71.41 -8.1,-33.46 -22.21,-65.71 -34.66,-97.71 -23.68,-60.87 -48.03,-125.37 -80.04,-182.33 -3.16,-5.64 4.88,-12.44 9.24,-7.13 v 0"
             style="fill:#475b40;fill-opacity:1;fill-rule:nonzero;stroke:none"
             id="path1796" />
          <path
             d="m 2484.86,1545.92 c 11.34,59.23 15.02,115.85 17.27,176.02 1.19,32.05 3.97,64.11 9.53,95.71 5.07,28.89 18.59,55.08 20.47,84.59 0.3,4.74 -7.16,6.96 -9.18,2.49 -23.08,-51.2 -35.94,-102.15 -40.37,-157.98 -2.63,-33.15 -0.9,-66.48 -2.09,-99.68 -1.19,-33.29 -5.1,-66.4 -6.09,-99.73 -0.16,-5.94 9.33,-7.38 10.46,-1.42 v 0"
             style="fill:#475b40;fill-opacity:1;fill-rule:nonzero;stroke:none"
             id="path1798" />
          <path
             d="m 2453.13,1583.5 c 0.73,46.9 -0.95,93.84 -7.48,140.35 -6.37,45.54 -16.11,89.14 -15.96,135.44 0.02,5.08 -6.58,5.31 -8.27,1.12 -14.26,-35.41 -4.65,-74.61 1.65,-110.9 9.53,-54.84 13.95,-110.4 15.45,-166.01 0.25,-9.41 14.47,-9.43 14.61,0 v 0"
             style="fill:#475b40;fill-opacity:1;fill-rule:nonzero;stroke:none"
             id="path1800" />
          <path
             d="m 2419.12,1569.66 c -14.96,50.22 -26.06,101.48 -38.56,152.34 -11.74,47.74 -26.52,92.1 -27.65,141.81 -0.09,4.01 -6.07,6.21 -8,2.17 -17.76,-37.37 -1.93,-80.44 9.2,-117.63 18.16,-60.59 30.52,-122.57 50.61,-182.65 3.02,-9.07 17.17,-5.33 14.4,3.96 v 0"
             style="fill:#475b40;fill-opacity:1;fill-rule:nonzero;stroke:none"
             id="path1802" />
          <path
             d="m 2384.68,1558.22 c -10,44.47 -26.05,87.28 -40.03,130.6 -13.88,42.96 -18.88,92.24 -38.56,132.67 -2.04,4.2 -9.77,3.52 -10.46,-1.37 -5.85,-41.57 12.1,-85.95 24.58,-125.05 15.14,-47.4 31.99,-94.61 51.13,-140.53 3.35,-8.03 15.35,-5.26 13.34,3.68 v 0"
             style="fill:#475b40;fill-opacity:1;fill-rule:nonzero;stroke:none"
             id="path1804" />
        </g>
      </g>
      <path
         d="m 216.552,163.07 c -0.114,-0.009 -0.226,-0.017 -0.34,-0.026 -0.953,-0.069 -1.755,-0.745 -1.755,-1.755 0,-1.009 0.802,-1.685 1.755,-1.755 0.114,-0.008 0.226,-0.017 0.34,-0.025 0.969,-0.071 1.78,0.863 1.78,1.78 0,0.916 -0.811,1.851 -1.78,1.781 v 0"
         style="fill:#30284f;fill-opacity:1;fill-rule:nonzero;stroke:none;stroke-width:0.1"
         id="path1806" />
      <path
         d="m 226.456,170.468 c 0.502,0.227 0.965,0.52 1.437,0.8 0.295,0.176 1.045,0.553 0.774,1.017 -0.255,0.433 -0.847,0.078 -1.129,-0.114 -0.499,-0.337 -0.934,-0.755 -1.45,-1.072 -0.41,-0.252 -0.054,-0.822 0.368,-0.631 v 0"
         style="fill:#699355;fill-opacity:1;fill-rule:nonzero;stroke:none;stroke-width:0.1"
         id="path1808" />
      <path
         d="m 227.063,167.875 c 0.915,0.12 1.886,0.388 2.612,0.98 0.165,0.135 0.178,0.365 0.146,0.556 -0.008,0.047 -0.036,0.092 -0.057,0.136 -0.087,0.176 -0.303,0.283 -0.493,0.283 -0.961,-0.006 -1.787,-0.666 -2.505,-1.235 -0.277,-0.219 -0.057,-0.765 0.297,-0.72 v 0"
         style="fill:#699355;fill-opacity:1;fill-rule:nonzero;stroke:none;stroke-width:0.1"
         id="path1810" />
      <path
         d="m 228.307,164.843 c 1.045,0.071 3.093,0.05 3.472,1.303 0.074,0.239 -0.084,0.462 -0.304,0.538 -0.501,0.173 -1.033,-0.033 -1.52,-0.165 -0.6,-0.163 -1.21,-0.303 -1.815,-0.442 -0.686,-0.159 -0.543,-1.282 0.167,-1.234 v 0"
         style="fill:#699355;fill-opacity:1;fill-rule:nonzero;stroke:none;stroke-width:0.1"
         id="path1812" />
      <path
         d="m 229.476,161.529 c 0.734,0.267 1.535,0.326 2.245,0.631 0.387,0.166 0.369,0.825 0,0.997 -0.924,0.43 -1.895,-0.077 -2.686,-0.582 -0.525,-0.336 -0.193,-1.278 0.441,-1.046 v 0"
         style="fill:#699355;fill-opacity:1;fill-rule:nonzero;stroke:none;stroke-width:0.1"
         id="path1814" />
      <path
         d="m 231.005,158.812 c 0.577,0.337 1.499,0.376 1.813,1.041 0.082,0.175 0.063,0.429 -0.137,0.522 -0.733,0.343 -1.676,-0.073 -2.326,-0.452 -0.716,-0.418 -0.069,-1.53 0.65,-1.111 v 0"
         style="fill:#699355;fill-opacity:1;fill-rule:nonzero;stroke:none;stroke-width:0.1"
         id="path1816" />
      <path
         d="m 230.304,155.094 c 0.259,-0.037 0.498,-0.172 0.766,-0.171 0.356,0.001 0.701,0.042 1.053,0.09 0.594,0.08 1.306,0.36 1.615,0.896 0.204,0.352 0.035,0.922 -0.406,1 -0.543,0.095 -0.972,-0.103 -1.474,-0.279 -0.217,-0.077 -0.435,-0.154 -0.656,-0.222 -0.212,-0.067 -0.527,-0.213 -0.748,-0.206 -0.626,0.02 -0.786,-1.018 -0.15,-1.108 v 0"
         style="fill:#699355;fill-opacity:1;fill-rule:nonzero;stroke:none;stroke-width:0.1"
         id="path1818" />
      <path
         d="m 238.235,175.864 c 0.148,0.023 0.349,-0.008 0.501,-0.01 0.202,-0.003 0.416,0.044 0.618,0.059 0.354,0.025 0.734,0.093 1.039,0.279 0.371,0.224 0.321,0.833 -0.123,0.941 -0.403,0.099 -0.833,0.03 -1.227,-0.086 -0.421,-0.123 -0.712,-0.318 -1.084,-0.529 -0.377,-0.215 -0.104,-0.713 0.276,-0.654 v 0"
         style="fill:#699355;fill-opacity:1;fill-rule:nonzero;stroke:none;stroke-width:0.1"
         id="path1820" />
      <path
         d="m 238.845,173.182 c 0.661,-0.217 1.391,-0.234 2.019,0.088 0.359,0.184 0.316,0.857 -0.12,0.916 -0.689,0.093 -1.247,-0.208 -1.899,-0.376 -0.325,-0.083 -0.297,-0.531 0,-0.628 v 0"
         style="fill:#699355;fill-opacity:1;fill-rule:nonzero;stroke:none;stroke-width:0.1"
         id="path1822" />
      <path
         d="m 239.361,170.18 c 0.76,-0.133 1.827,-0.121 2.355,0.531 0.092,0.113 0.107,0.26 0,0.371 -0.599,0.622 -1.494,0.164 -2.22,0.097 -0.53,-0.05 -0.74,-0.893 -0.135,-0.999 v 0"
         style="fill:#699355;fill-opacity:1;fill-rule:nonzero;stroke:none;stroke-width:0.1"
         id="path1824" />
      <path
         d="m 240.28,167.747 c 0.64,-0.091 1.795,0.012 1.941,0.824 0.025,0.142 -0.038,0.251 -0.172,0.302 -0.542,0.209 -1.108,-0.197 -1.649,-0.236 -0.476,-0.034 -0.655,-0.813 -0.12,-0.89 v 0"
         style="fill:#699355;fill-opacity:1;fill-rule:nonzero;stroke:none;stroke-width:0.1"
         id="path1826" />
      <path
         d="m 240.445,164.703 c 0.541,-0.273 1.455,-0.393 1.907,0.083 0.248,0.26 0.249,0.657 0,0.919 -0.518,0.542 -1.696,0.353 -2.103,-0.255 -0.158,-0.236 -0.059,-0.62 0.196,-0.747 v 0"
         style="fill:#699355;fill-opacity:1;fill-rule:nonzero;stroke:none;stroke-width:0.1"
         id="path1828" />
      <path
         d="m 241.339,162.237 c 0.209,-0.137 0.42,-0.195 0.67,-0.198 0.293,-0.002 0.429,0.13 0.623,0.29 0.226,0.185 0.123,0.533 -0.087,0.673 0.102,-0.118 0.096,-0.105 -0.02,0.039 -0.073,0.072 -0.158,0.122 -0.256,0.15 -0.156,0.043 -0.314,0.093 -0.464,0.15 -0.67,0.253 -1.012,-0.747 -0.466,-1.104 v 0"
         style="fill:#699355;fill-opacity:1;fill-rule:nonzero;stroke:none;stroke-width:0.1"
         id="path1830" />
      <path
         d="m 241.982,159.714 c 0.152,0.006 0.302,0.011 0.453,0.022 0.545,0.038 0.545,0.808 0,0.846 -0.151,0.01 -0.301,0.016 -0.453,0.022 -0.573,0.023 -0.573,-0.914 0,-0.89 v 0"
         style="fill:#699355;fill-opacity:1;fill-rule:nonzero;stroke:none;stroke-width:0.1"
         id="path1832" />
      <path
         d="m 251.753,179.411 c 0.285,-0.207 0.675,-0.269 1.013,-0.346 0.339,-0.078 0.816,-0.154 1.146,-0.027 0.123,0.047 0.236,0.209 0.138,0.339 -0.23,0.299 -0.568,0.382 -0.92,0.477 -0.371,0.1 -0.817,0.204 -1.2,0.208 -0.374,0.004 -0.443,-0.458 -0.177,-0.651 v 0"
         style="fill:#699355;fill-opacity:1;fill-rule:nonzero;stroke:none;stroke-width:0.1"
         id="path1834" />
      <path
         d="m 251.107,176.528 c 0.284,-0.858 1.856,-1.13 2.388,-0.395 0.07,0.097 0.072,0.281 0,0.377 -0.224,0.3 -0.572,0.433 -0.929,0.514 -0.323,0.074 -0.79,0.234 -1.109,0.12 -0.246,-0.089 -0.439,-0.343 -0.35,-0.616 v 0"
         style="fill:#699355;fill-opacity:1;fill-rule:nonzero;stroke:none;stroke-width:0.1"
         id="path1836" />
      <path
         d="m 250.724,173.513 c 0.427,-0.228 0.84,-0.487 1.304,-0.642 0.33,-0.109 0.978,-0.114 1.097,0.319 0.116,0.425 -0.489,0.698 -0.788,0.801 -0.457,0.156 -0.942,0.239 -1.425,0.217 -0.354,-0.015 -0.532,-0.512 -0.188,-0.695 v 0"
         style="fill:#699355;fill-opacity:1;fill-rule:nonzero;stroke:none;stroke-width:0.1"
         id="path1838" />
      <path
         d="m 251.063,170.607 c 0.344,-0.539 1.041,-0.836 1.667,-0.639 0.366,0.114 0.542,0.725 0.119,0.905 -0.461,0.197 -0.986,0.262 -1.485,0.26 -0.257,-0.001 -0.447,-0.3 -0.301,-0.526 v 0"
         style="fill:#699355;fill-opacity:1;fill-rule:nonzero;stroke:none;stroke-width:0.1"
         id="path1840" />
      <path
         d="m 250.962,167.011 c 0.511,-0.242 1.013,-0.34 1.57,-0.224 0.403,0.083 0.53,0.644 0.241,0.916 -0.466,0.44 -1.068,0.494 -1.674,0.354 -0.462,-0.105 -0.585,-0.832 -0.137,-1.046 v 0"
         style="fill:#699355;fill-opacity:1;fill-rule:nonzero;stroke:none;stroke-width:0.1"
         id="path1842" />
      <path
         d="m 251.138,164.315 c 0.267,-0.015 0.528,-0.087 0.794,-0.089 0.117,-0.001 0.267,0.067 0.316,0.182 0.028,0.063 0.045,0.115 0.051,0.185 0.013,0.175 -0.125,0.294 -0.27,0.354 -0.27,0.111 -0.602,0.102 -0.891,0.098 -0.474,-0.007 -0.468,-0.706 0,-0.73 v 0"
         style="fill:#699355;fill-opacity:1;fill-rule:nonzero;stroke:none;stroke-width:0.1"
         id="path1844" />
      <path
         d="m 250.689,161.455 c 0.37,-0.086 0.733,-0.176 1.112,-0.121 0.141,0.021 0.264,0.169 0.3,0.3 0.021,0.081 0.013,0.148 0,0.229 -0.026,0.145 -0.167,0.26 -0.3,0.3 -0.32,0.094 -0.672,0.07 -1.002,0.105 -0.468,0.048 -0.557,-0.707 -0.11,-0.813 v 0"
         style="fill:#699355;fill-opacity:1;fill-rule:nonzero;stroke:none;stroke-width:0.1"
         id="path1846" />
      <path
         d="m 256.45,178.191 c 0.841,-0.063 1.633,-0.383 2.488,-0.38 0.186,0 0.263,0.221 0.145,0.352 -0.7,0.78 -1.762,0.759 -2.706,0.575 -0.326,-0.064 -0.222,-0.525 0.073,-0.547 v 0"
         style="fill:#699355;fill-opacity:1;fill-rule:nonzero;stroke:none;stroke-width:0.1"
         id="path1848" />
      <path
         d="m 256.217,175.659 c 0.454,-0.112 0.915,-0.237 1.354,-0.396 0.298,-0.108 0.972,-0.248 1.092,0.188 0.122,0.442 -0.439,0.789 -0.793,0.896 -0.513,0.157 -0.996,0.242 -1.532,0.202 -0.49,-0.038 -0.643,-0.761 -0.121,-0.89 v 0"
         style="fill:#699355;fill-opacity:1;fill-rule:nonzero;stroke:none;stroke-width:0.1"
         id="path1850" />
      <path
         d="m 255.289,173.166 c 0.465,-0.633 1.415,-1.129 2.195,-1.193 0.389,-0.031 0.536,0.412 0.404,0.704 -0.345,0.766 -1.47,1.04 -2.229,1.135 -0.311,0.039 -0.552,-0.399 -0.37,-0.646 v 0"
         style="fill:#699355;fill-opacity:1;fill-rule:nonzero;stroke:none;stroke-width:0.1"
         id="path1852" />
      <path
         d="m 254.998,169.79 c 0.161,-0.908 1.865,-1.272 2.479,-0.689 0.175,0.168 0.179,0.482 0,0.649 -0.317,0.293 -0.728,0.285 -1.133,0.303 -0.323,0.015 -0.624,0.072 -0.935,0.148 -0.263,0.064 -0.455,-0.161 -0.411,-0.411 v 0"
         style="fill:#699355;fill-opacity:1;fill-rule:nonzero;stroke:none;stroke-width:0.1"
         id="path1854" />
      <path
         d="m 254.538,166.457 c 0.314,-0.203 0.846,-0.522 1.128,-0.105 0.275,0.406 -0.457,0.703 -0.694,0.846 -0.478,0.287 -0.896,-0.442 -0.434,-0.741 v 0"
         style="fill:#699355;fill-opacity:1;fill-rule:nonzero;stroke:none;stroke-width:0.1"
         id="path1856" />
      <path
         d="m 253.352,163.196 c 0.319,-0.174 0.585,-0.33 0.954,-0.368 0.486,-0.051 0.713,0.627 0.387,0.937 -0.266,0.253 -0.575,0.337 -0.924,0.419 -0.584,0.137 -0.97,-0.686 -0.417,-0.988 v 0"
         style="fill:#699355;fill-opacity:1;fill-rule:nonzero;stroke:none;stroke-width:0.1"
         id="path1858" />
      <path
         d="m 253.06,160.736 c 0.258,-0.026 0.454,-0.053 0.71,-0.014 0.115,0.018 0.098,0.164 0.028,0.218 -0.236,0.181 -0.444,0.207 -0.738,0.224 -0.28,0.018 -0.271,-0.402 0,-0.428 v 0"
         style="fill:#699355;fill-opacity:1;fill-rule:nonzero;stroke:none;stroke-width:0.1"
         id="path1860" />
      <path
         d="m 264.364,158.669 c -0.11,-0.302 0.113,-0.687 0.255,-0.947 0.357,-0.65 1.273,-0.08 0.977,0.57 -0.169,0.372 -0.985,1.055 -1.232,0.377 v 0"
         style="fill:#699355;fill-opacity:1;fill-rule:nonzero;stroke:none;stroke-width:0.1"
         id="path1862" />
      <path
         d="m 266.228,159.933 c -0.044,-0.667 0.119,-1.778 1.001,-1.773 0.355,0.002 0.559,0.272 0.597,0.597 0.035,0.292 -0.14,0.514 -0.278,0.75 -0.132,0.226 -0.229,0.46 -0.373,0.683 -0.282,0.434 -0.915,0.25 -0.947,-0.257 v 0"
         style="fill:#699355;fill-opacity:1;fill-rule:nonzero;stroke:none;stroke-width:0.1"
         id="path1864" />
      <path
         d="m 268.561,161.478 c -0.176,-0.37 -0.04,-0.803 0.117,-1.161 0.197,-0.45 0.483,-0.866 0.998,-0.936 0.384,-0.051 0.758,0.22 0.645,0.646 -0.106,0.405 -0.352,0.639 -0.606,0.959 -0.2,0.253 -0.408,0.572 -0.733,0.663 -0.15,0.043 -0.35,-0.023 -0.421,-0.171 v 0"
         style="fill:#699355;fill-opacity:1;fill-rule:nonzero;stroke:none;stroke-width:0.1"
         id="path1866" />
      <path
         d="m 270.753,162.736 c -0.23,-0.354 -0.079,-0.859 0.065,-1.214 0.214,-0.524 0.572,-1.018 1.19,-1.037 0.355,-0.012 0.651,0.368 0.541,0.71 -0.124,0.386 -0.416,0.647 -0.682,0.937 -0.213,0.233 -0.358,0.573 -0.645,0.726 -0.17,0.092 -0.365,0.038 -0.469,-0.122 v 0"
         style="fill:#699355;fill-opacity:1;fill-rule:nonzero;stroke:none;stroke-width:0.1"
         id="path1868" />
      <path
         d="m 272.559,163.612 c 0.315,-0.604 0.709,-1.637 1.545,-1.577 0.279,0.019 0.513,0.268 0.426,0.559 -0.116,0.388 -0.391,0.573 -0.683,0.826 -0.273,0.237 -0.541,0.439 -0.843,0.637 -0.288,0.189 -0.589,-0.172 -0.445,-0.445 v 0"
         style="fill:#699355;fill-opacity:1;fill-rule:nonzero;stroke:none;stroke-width:0.1"
         id="path1870" />
      <path
         d="m 274.627,164.807 c 0.258,-0.62 0.66,-1.201 1.168,-1.644 0.456,-0.4 1.074,0.094 0.819,0.631 -0.284,0.597 -0.889,0.947 -1.363,1.376 -0.249,0.227 -0.779,0.009 -0.624,-0.363 v 0"
         style="fill:#699355;fill-opacity:1;fill-rule:nonzero;stroke:none;stroke-width:0.1"
         id="path1872" />
      <path
         d="m 277.147,165.709 c 0.208,-0.22 0.396,-0.459 0.582,-0.698 0.221,-0.285 0.417,-0.633 0.818,-0.636 0.186,-0.002 0.315,0.123 0.377,0.288 0.154,0.405 -0.218,0.795 -0.485,1.059 -0.293,0.291 -0.668,0.478 -1.079,0.503 -0.275,0.018 -0.382,-0.335 -0.213,-0.516 v 0"
         style="fill:#699355;fill-opacity:1;fill-rule:nonzero;stroke:none;stroke-width:0.1"
         id="path1874" />
      <path
         d="m 279.368,166.688 c 0.415,-0.481 0.927,-1.031 1.507,-1.308 0.376,-0.178 0.928,0.22 0.632,0.633 -0.413,0.577 -1.11,0.882 -1.705,1.236 -0.364,0.217 -0.692,-0.263 -0.434,-0.561 v 0"
         style="fill:#699355;fill-opacity:1;fill-rule:nonzero;stroke:none;stroke-width:0.1"
         id="path1876" />
      <path
         d="m 247.408,141.285 c 0.417,-0.047 1.102,-0.508 1.333,0.072 0.102,0.252 -0.178,0.609 -0.357,0.744 -0.283,0.213 -0.632,0.273 -0.976,0.312 -0.306,0.034 -0.564,-0.283 -0.564,-0.565 0,-0.333 0.259,-0.53 0.564,-0.563 v 0"
         style="fill:#699355;fill-opacity:1;fill-rule:nonzero;stroke:none;stroke-width:0.1"
         id="path1878" />
      <path
         d="m 246.806,139.157 c 0.308,-0.108 0.611,-0.244 0.944,-0.22 0.391,0.027 0.636,0.493 0.329,0.795 -0.269,0.264 -0.631,0.369 -0.973,0.513 -0.659,0.276 -0.994,-0.845 -0.3,-1.088 v 0"
         style="fill:#699355;fill-opacity:1;fill-rule:nonzero;stroke:none;stroke-width:0.1"
         id="path1880" />
      <path
         d="m 246.103,136.72 c 0.339,-0.239 0.78,-0.564 1.215,-0.381 0.265,0.111 0.41,0.321 0.349,0.615 -0.106,0.519 -0.677,0.692 -1.124,0.812 -0.655,0.176 -0.955,-0.684 -0.44,-1.046 v 0"
         style="fill:#699355;fill-opacity:1;fill-rule:nonzero;stroke:none;stroke-width:0.1"
         id="path1882" />
      <path
         d="m 245.938,134.08 c 0.042,-0.007 0.078,-0.028 0.107,-0.06 0.32,-0.24 0.713,0.215 0.527,0.526 -0.12,0.2 -0.295,0.313 -0.521,0.362 -0.601,0.13 -0.725,-0.79 -0.113,-0.828 v 0"
         style="fill:#699355;fill-opacity:1;fill-rule:nonzero;stroke:none;stroke-width:0.1"
         id="path1884" />
      <path
         d="m 244.928,131.446 c 0.459,-0.296 1.194,-0.598 1.559,-0.007 0.16,0.26 0.023,0.574 -0.181,0.755 -0.199,0.177 -0.49,0.239 -0.712,0.39 -0.702,0.478 -1.381,-0.677 -0.666,-1.138 v 0"
         style="fill:#699355;fill-opacity:1;fill-rule:nonzero;stroke:none;stroke-width:0.1"
         id="path1886" />
      <path
         d="m 244.238,128.647 c 0.332,-0.117 0.58,-0.316 0.947,-0.348 0.48,-0.041 0.743,0.548 0.53,0.925 -0.333,0.589 -1.077,0.582 -1.583,0.236 -0.327,-0.222 -0.267,-0.681 0.106,-0.813 v 0"
         style="fill:#699355;fill-opacity:1;fill-rule:nonzero;stroke:none;stroke-width:0.1"
         id="path1888" />
      <path
         d="m 250.389,140.872 c 0.396,-0.404 1.033,-0.714 1.605,-0.574 0.292,0.072 0.553,0.449 0.426,0.75 -0.339,0.805 -1.391,1.01 -2.031,0.42 -0.171,-0.157 -0.157,-0.437 0,-0.596 v 0"
         style="fill:#699355;fill-opacity:1;fill-rule:nonzero;stroke:none;stroke-width:0.1"
         id="path1890" />
      <path
         d="m 250.536,137.687 c 0.576,-0.208 1.138,-0.563 1.771,-0.387 0.332,0.093 0.507,0.496 0.324,0.796 -0.402,0.656 -1.242,0.749 -1.945,0.699 -0.647,-0.046 -0.754,-0.888 -0.15,-1.108 v 0"
         style="fill:#699355;fill-opacity:1;fill-rule:nonzero;stroke:none;stroke-width:0.1"
         id="path1892" />
      <path
         d="m 250,134.572 c 0.49,-0.693 1.737,-0.918 2.407,-0.4 0.241,0.188 0.23,0.569 0.105,0.81 -0.405,0.779 -1.656,0.6 -2.321,0.318 -0.252,-0.106 -0.343,-0.512 -0.191,-0.728 v 0"
         style="fill:#699355;fill-opacity:1;fill-rule:nonzero;stroke:none;stroke-width:0.1"
         id="path1894" />
      <path
         d="m 249.351,131.939 c -0.098,-0.521 0.118,-0.974 0.625,-1.168 0.39,-0.151 0.885,-0.143 1.24,0.083 0.58,0.368 0.34,1.074 -0.237,1.263 -0.204,0.066 -0.393,0.034 -0.6,0.039 0.132,-0.003 -0.055,0.027 -0.08,0.037 0.137,-0.051 -0.042,0.025 -0.005,-0.005 -0.297,0.244 -0.857,0.207 -0.943,-0.249 v 0"
         style="fill:#699355;fill-opacity:1;fill-rule:nonzero;stroke:none;stroke-width:0.1"
         id="path1896" />
      <path
         d="m 249.104,127.77 c 0.495,-0.042 0.973,-0.323 1.468,-0.197 0.321,0.082 0.542,0.451 0.438,0.771 -0.285,0.877 -1.339,0.834 -2.073,0.659 -0.73,-0.173 -0.505,-1.175 0.167,-1.233 v 0"
         style="fill:#699355;fill-opacity:1;fill-rule:nonzero;stroke:none;stroke-width:0.1"
         id="path1898" />
      <path
         d="m 254.05,140.173 c 0.271,-0.195 0.61,-0.196 0.931,-0.238 0.333,-0.044 0.704,0.021 0.926,0.286 0.203,0.242 0.203,0.526 0,0.768 -0.233,0.277 -0.584,0.31 -0.926,0.286 -0.313,-0.022 -0.67,-0.051 -0.931,-0.237 -0.32,-0.231 -0.32,-0.635 0,-0.865 v 0"
         style="fill:#699355;fill-opacity:1;fill-rule:nonzero;stroke:none;stroke-width:0.1"
         id="path1900" />
      <path
         d="m 254.131,137.631 c 0.425,-0.239 0.892,-0.316 1.299,-0.012 0.253,0.188 0.303,0.569 0,0.748 -0.135,0.079 -0.242,0.149 -0.396,0.193 -0.161,0.047 -0.309,0.036 -0.468,0.103 -0.599,0.25 -0.98,-0.725 -0.435,-1.032 v 0"
         style="fill:#699355;fill-opacity:1;fill-rule:nonzero;stroke:none;stroke-width:0.1"
         id="path1902" />
      <path
         d="m 254.303,133.963 c 0.526,-0.067 1.04,-0.167 1.528,0.094 0.42,0.225 0.42,0.891 0,1.115 -0.488,0.261 -1.002,0.161 -1.528,0.094 -0.838,-0.106 -0.838,-1.196 0,-1.303 v 0"
         style="fill:#699355;fill-opacity:1;fill-rule:nonzero;stroke:none;stroke-width:0.1"
         id="path1904" />
      <path
         d="m 254.042,131.479 c 0.504,-0.161 1.193,-0.429 1.67,-0.068 0.266,0.201 0.424,0.634 0.115,0.892 -0.455,0.379 -1.08,0.339 -1.638,0.269 -0.601,-0.076 -0.782,-0.891 -0.147,-1.093 v 0"
         style="fill:#699355;fill-opacity:1;fill-rule:nonzero;stroke:none;stroke-width:0.1"
         id="path1906" />
      <path
         d="m 253.939,128.465 c 0.606,-0.15 1.285,-0.415 1.876,-0.095 0.376,0.204 0.343,0.747 0,0.959 -0.523,0.322 -1.301,0.274 -1.876,0.132 -0.494,-0.122 -0.494,-0.874 0,-0.996 v 0"
         style="fill:#699355;fill-opacity:1;fill-rule:nonzero;stroke:none;stroke-width:0.1"
         id="path1908" />
      <path
         d="m 253.686,125.992 c 0.421,-0.156 0.891,-0.259 1.325,-0.104 0.528,0.19 0.609,0.998 0,1.151 -0.33,0.084 -0.666,0.063 -0.995,0.148 -0.786,0.204 -1.07,-0.923 -0.33,-1.195 v 0"
         style="fill:#699355;fill-opacity:1;fill-rule:nonzero;stroke:none;stroke-width:0.1"
         id="path1910" />
      <path
         d="m 266.223,143.15 c 0.349,0.252 0.909,0.633 0.818,1.125 -0.021,0.116 -0.145,0.153 -0.245,0.138 -0.355,-0.05 -0.62,-0.498 -0.902,-0.701 -0.338,-0.243 -0.013,-0.809 0.329,-0.562 v 0"
         style="fill:#699355;fill-opacity:1;fill-rule:nonzero;stroke:none;stroke-width:0.1"
         id="path1912" />
      <path
         d="m 267.521,141.471 c 0.309,0.172 0.747,0.356 0.97,0.636 0.305,0.382 0.112,0.882 -0.385,0.929 -0.59,0.054 -1.126,-0.536 -1.226,-1.072 -0.07,-0.37 0.288,-0.69 0.641,-0.493 v 0"
         style="fill:#699355;fill-opacity:1;fill-rule:nonzero;stroke:none;stroke-width:0.1"
         id="path1914" />
      <path
         d="m 269.706,139.895 c 0.258,0.257 0.597,0.419 0.712,0.784 0.066,0.209 -0.075,0.435 -0.279,0.492 -0.467,0.132 -0.866,-0.226 -1.174,-0.534 -0.48,-0.478 0.263,-1.22 0.741,-0.742 v 0"
         style="fill:#699355;fill-opacity:1;fill-rule:nonzero;stroke:none;stroke-width:0.1"
         id="path1916" />
      <path
         d="m 270.918,138.037 c 0.64,-0.002 1.437,0.485 1.638,1.111 0.124,0.39 -0.262,0.678 -0.614,0.613 -0.29,-0.053 -0.504,-0.224 -0.736,-0.392 -0.269,-0.195 -0.518,-0.392 -0.651,-0.699 -0.124,-0.283 0.015,-0.632 0.363,-0.633 v 0"
         style="fill:#699355;fill-opacity:1;fill-rule:nonzero;stroke:none;stroke-width:0.1"
         id="path1918" />
      <path
         d="m 272.606,136.153 c 0.562,0.223 1.507,0.483 1.707,1.122 0.083,0.261 -0.094,0.477 -0.322,0.568 -0.69,0.276 -1.35,-0.614 -1.771,-1.026 -0.269,-0.262 0.004,-0.817 0.386,-0.664 v 0"
         style="fill:#699355;fill-opacity:1;fill-rule:nonzero;stroke:none;stroke-width:0.1"
         id="path1920" />
      <path
         d="m 273.631,133.992 c 0.379,-0.018 0.769,0.202 1.071,0.413 0.321,0.225 0.673,0.395 0.994,0.616 0.388,0.267 0.291,0.998 -0.259,0.959 -0.434,-0.03 -0.753,-0.236 -1.096,-0.488 -0.332,-0.246 -0.727,-0.504 -0.991,-0.823 -0.222,-0.265 -0.083,-0.661 0.281,-0.677 v 0"
         style="fill:#699355;fill-opacity:1;fill-rule:nonzero;stroke:none;stroke-width:0.1"
         id="path1922" />
      <path
         d="m 275.906,132.282 c 0.309,0.214 0.625,0.419 0.946,0.617 0.318,0.197 0.539,0.378 0.656,0.739 0.042,0.129 -0.047,0.312 -0.189,0.333 -0.711,0.109 -1.344,-0.474 -1.894,-0.866 -0.495,-0.353 -0.027,-1.177 0.481,-0.823 v 0"
         style="fill:#699355;fill-opacity:1;fill-rule:nonzero;stroke:none;stroke-width:0.1"
         id="path1924" />
      <path
         d="m 277.699,130.935 c 0.534,0.051 1.022,0.22 1.096,0.815 -0.024,-0.087 -0.048,-0.175 -0.071,-0.264 0.27,0.397 0.021,0.83 -0.453,0.788 0.088,-0.024 0.176,-0.048 0.264,-0.071 -0.339,0.199 -0.658,0.049 -1.002,-0.035 -0.678,-0.165 -0.547,-1.3 0.166,-1.233 v 0"
         style="fill:#699355;fill-opacity:1;fill-rule:nonzero;stroke:none;stroke-width:0.1"
         id="path1926" />
      <path
         d="m 264.595,141.903 c 0.072,0.031 0.165,0.054 0.243,0.075 0.427,0.112 0.468,0.815 0,0.901 -0.327,0.06 -0.585,0.021 -0.802,-0.253 -0.332,-0.42 0.069,-0.936 0.559,-0.723 v 0"
         style="fill:#699355;fill-opacity:1;fill-rule:nonzero;stroke:none;stroke-width:0.1"
         id="path1928" />
      <path
         d="m 265.584,140.369 c 0.108,0.047 0.229,0.07 0.342,0.103 0.431,0.128 0.304,0.691 -0.1,0.737 -0.238,0.028 -0.436,-0.046 -0.651,-0.141 -0.477,-0.211 -0.064,-0.91 0.409,-0.699 v 0"
         style="fill:#699355;fill-opacity:1;fill-rule:nonzero;stroke:none;stroke-width:0.1"
         id="path1930" />
      <path
         d="m 266.858,138.126 c 0.447,0.105 0.88,0.204 1.221,0.53 0.311,0.296 0.057,0.762 -0.327,0.79 -0.473,0.033 -0.877,-0.212 -1.249,-0.478 -0.418,-0.298 -0.173,-0.966 0.355,-0.842 v 0"
         style="fill:#699355;fill-opacity:1;fill-rule:nonzero;stroke:none;stroke-width:0.1"
         id="path1932" />
      <path
         d="m 267.979,135.947 c 0.573,0.068 1.172,0.283 1.376,0.878 0.082,0.233 -0.088,0.5 -0.318,0.56 -0.607,0.161 -1.132,-0.265 -1.47,-0.722 -0.204,-0.275 0.068,-0.758 0.412,-0.716 v 0"
         style="fill:#699355;fill-opacity:1;fill-rule:nonzero;stroke:none;stroke-width:0.1"
         id="path1934" />
      <path
         d="m 269.223,134.075 c 0.592,0.067 1.341,0.123 1.674,0.698 0.141,0.243 0.028,0.659 -0.287,0.706 -0.541,0.08 -1.029,-0.174 -1.531,-0.343 -0.546,-0.184 -0.492,-1.135 0.144,-1.061 v 0"
         style="fill:#699355;fill-opacity:1;fill-rule:nonzero;stroke:none;stroke-width:0.1"
         id="path1936" />
      <path
         d="m 270.214,131.814 c 0.691,0.25 1.829,0.586 1.935,1.444 0.018,0.141 -0.149,0.241 -0.271,0.207 -0.318,-0.091 -0.6,-0.284 -0.879,-0.457 -0.341,-0.21 -0.701,-0.378 -1.037,-0.598 -0.294,-0.195 -0.112,-0.728 0.252,-0.596 v 0"
         style="fill:#699355;fill-opacity:1;fill-rule:nonzero;stroke:none;stroke-width:0.1"
         id="path1938" />
      <path
         d="m 271.625,130.239 c 0.839,-0.139 2.076,0.226 2.523,0.994 0.072,0.122 0,0.259 -0.124,0.303 -0.768,0.277 -1.812,-0.345 -2.475,-0.716 -0.225,-0.125 -0.203,-0.534 0.076,-0.581 v 0"
         style="fill:#699355;fill-opacity:1;fill-rule:nonzero;stroke:none;stroke-width:0.1"
         id="path1940" />
      <path
         d="m 272.943,128.248 c 0.448,0.109 0.867,0.25 1.301,0.403 0.287,0.101 0.764,0.333 0.656,0.721 -0.222,0.81 -1.889,-0.191 -2.257,-0.412 -0.384,-0.23 -0.128,-0.815 0.3,-0.712 v 0"
         style="fill:#699355;fill-opacity:1;fill-rule:nonzero;stroke:none;stroke-width:0.1"
         id="path1942" />
      <path
         d="m 235.836,146.44 c 0.271,-0.336 0.632,-0.61 1.08,-0.601 0.395,0.008 0.591,0.482 0.317,0.767 -0.169,0.176 -0.399,0.294 -0.547,0.488 -0.475,0.62 -1.342,-0.046 -0.85,-0.654 v 0"
         style="fill:#699355;fill-opacity:1;fill-rule:nonzero;stroke:none;stroke-width:0.1"
         id="path1944" />
      <path
         d="m 234.604,144.416 c 0.233,-0.298 0.472,-0.552 0.846,-0.657 0.374,-0.105 0.665,0.306 0.488,0.633 -0.137,0.252 -0.346,0.428 -0.51,0.66 -0.437,0.619 -1.291,-0.037 -0.824,-0.636 v 0"
         style="fill:#699355;fill-opacity:1;fill-rule:nonzero;stroke:none;stroke-width:0.1"
         id="path1946" />
      <path
         d="m 232.909,142.269 c 0.312,-0.348 0.773,-0.789 1.279,-0.642 0.201,0.059 0.343,0.28 0.277,0.487 -0.129,0.399 -0.545,0.596 -0.815,0.896 -0.453,0.505 -1.192,-0.24 -0.741,-0.741 v 0"
         style="fill:#699355;fill-opacity:1;fill-rule:nonzero;stroke:none;stroke-width:0.1"
         id="path1948" />
      <path
         d="m 231.728,139.957 c 0.347,-0.417 1.072,-1.131 1.62,-0.611 0.503,0.477 -0.518,1.142 -0.777,1.454 -0.208,0.25 -0.63,0.214 -0.843,0 -0.246,-0.245 -0.207,-0.593 0,-0.843 v 0"
         style="fill:#699355;fill-opacity:1;fill-rule:nonzero;stroke:none;stroke-width:0.1"
         id="path1950" />
      <path
         d="m 229.956,137.981 c 0.147,-0.566 0.772,-1.179 1.339,-0.703 0.064,0.053 0.075,0.147 0.059,0.223 -0.009,0.047 -0.041,0.241 -0.029,0.056 -0.008,0.126 -0.045,0.234 -0.135,0.326 -0.107,0.111 -0.199,0.223 -0.238,0.373 -0.167,0.644 -1.164,0.37 -0.996,-0.275 v 0"
         style="fill:#699355;fill-opacity:1;fill-rule:nonzero;stroke:none;stroke-width:0.1"
         id="path1952" />
      <path
         d="m 228.064,136.069 c 0.295,-0.242 0.624,-0.638 1.034,-0.628 0.135,0.004 0.201,0.119 0.183,0.242 -0.052,0.382 -0.465,0.629 -0.733,0.869 -0.33,0.295 -0.82,-0.207 -0.484,-0.483 v 0"
         style="fill:#699355;fill-opacity:1;fill-rule:nonzero;stroke:none;stroke-width:0.1"
         id="path1954" />
      <path
         d="m 222.826,140.098 c 0.293,-0.273 0.661,-0.89 1.104,-0.858 0.165,0.011 0.306,0.13 0.305,0.305 -0.001,0.239 -0.113,0.349 -0.271,0.513 -0.193,0.2 -0.375,0.409 -0.575,0.602 -0.37,0.356 -0.937,-0.212 -0.563,-0.562 v 0"
         style="fill:#699355;fill-opacity:1;fill-rule:nonzero;stroke:none;stroke-width:0.1"
         id="path1956" />
      <path
         d="m 224.36,142.209 c 0.119,-0.545 0.399,-0.943 0.923,-1.149 0.385,-0.15 0.663,0.406 0.391,0.67 -0.241,0.233 -0.514,0.454 -0.69,0.743 -0.206,0.339 -0.706,0.112 -0.624,-0.264 v 0"
         style="fill:#699355;fill-opacity:1;fill-rule:nonzero;stroke:none;stroke-width:0.1"
         id="path1958" />
      <path
         d="m 226.203,143.824 c 0.266,-0.424 0.503,-0.806 0.985,-1.004 0.371,-0.152 0.755,0.367 0.525,0.684 -0.285,0.393 -0.668,0.661 -1.124,0.822 -0.284,0.099 -0.54,-0.257 -0.386,-0.502 v 0"
         style="fill:#699355;fill-opacity:1;fill-rule:nonzero;stroke:none;stroke-width:0.1"
         id="path1960" />
      <path
         d="m 227.511,145.687 c 0.128,-0.125 0.204,-0.307 0.333,-0.438 0.149,-0.152 0.287,-0.294 0.459,-0.421 0.297,-0.22 0.832,-0.362 1.064,0.035 0.243,0.416 -0.141,0.796 -0.447,1.021 -0.163,0.121 -0.36,0.198 -0.547,0.275 -0.212,0.087 -0.414,0.058 -0.632,0.085 -0.294,0.035 -0.416,-0.374 -0.23,-0.557 v 0"
         style="fill:#699355;fill-opacity:1;fill-rule:nonzero;stroke:none;stroke-width:0.1"
         id="path1962" />
      <path
         d="m 229.189,147.788 c 0.352,-0.628 1.381,-1.284 2.067,-0.775 0.177,0.131 0.317,0.4 0.16,0.609 -0.355,0.472 -0.99,0.6 -1.477,0.916 -0.476,0.311 -1.008,-0.289 -0.75,-0.75 v 0"
         style="fill:#699355;fill-opacity:1;fill-rule:nonzero;stroke:none;stroke-width:0.1"
         id="path1964" />
      <path
         d="m 231.2,149.762 c 0.279,-0.564 1.003,-1.032 1.64,-0.862 0.335,0.089 0.429,0.51 0.198,0.752 -0.308,0.324 -0.827,0.53 -1.229,0.719 -0.408,0.191 -0.813,-0.196 -0.609,-0.609 v 0"
         style="fill:#699355;fill-opacity:1;fill-rule:nonzero;stroke:none;stroke-width:0.1"
         id="path1966" />
      <path
         d="m 190.216,158.589 c 0.36,-0.014 0.656,-0.227 1.017,-0.203 0.127,0.008 0.213,0.114 0.184,0.241 -0.119,0.532 -0.735,0.625 -1.201,0.615 -0.421,-0.01 -0.419,-0.634 0,-0.653 v 0"
         style="fill:#699355;fill-opacity:1;fill-rule:nonzero;stroke:none;stroke-width:0.1"
         id="path1968" />
      <path
         d="m 191.037,160.64 c 0.292,-0.299 0.667,-0.488 1.088,-0.4 0.317,0.065 0.401,0.577 0.093,0.717 -0.311,0.142 -0.647,0.14 -0.985,0.159 -0.249,0.013 -0.358,-0.31 -0.196,-0.476 v 0"
         style="fill:#699355;fill-opacity:1;fill-rule:nonzero;stroke:none;stroke-width:0.1"
         id="path1970" />
      <path
         d="m 191.977,162.823 c 0.38,-0.198 1.192,-0.625 1.55,-0.21 0.058,0.067 0.087,0.17 0.033,0.25 -0.114,0.168 -0.245,0.213 -0.44,0.259 -0.286,0.07 -0.552,0.125 -0.822,0.25 -0.366,0.169 -0.689,-0.358 -0.321,-0.549 v 0"
         style="fill:#699355;fill-opacity:1;fill-rule:nonzero;stroke:none;stroke-width:0.1"
         id="path1972" />
      <path
         d="m 192.841,164.676 c 0.349,-0.203 1.417,-0.763 1.607,-0.072 0.191,0.692 -0.988,0.798 -1.406,0.812 -0.401,0.014 -0.536,-0.545 -0.201,-0.74 v 0"
         style="fill:#699355;fill-opacity:1;fill-rule:nonzero;stroke:none;stroke-width:0.1"
         id="path1974" />
      <path
         d="m 193.727,167.173 c 0.266,-0.267 0.541,-0.4 0.911,-0.468 0.323,-0.061 0.888,-0.028 1.011,0.357 0.217,0.68 -1.28,0.554 -1.621,0.63 -0.297,0.065 -0.527,-0.29 -0.301,-0.519 v 0"
         style="fill:#699355;fill-opacity:1;fill-rule:nonzero;stroke:none;stroke-width:0.1"
         id="path1976" />
      <path
         d="m 195.167,169.228 c 0.271,-0.148 0.605,-0.215 0.91,-0.267 0.286,-0.048 0.52,-0.024 0.718,0.119 0.11,0.08 0.143,0.174 0.124,0.306 -0.086,0.609 -1.002,0.785 -1.503,0.76 -0.47,-0.024 -0.7,-0.672 -0.249,-0.918 v 0"
         style="fill:#699355;fill-opacity:1;fill-rule:nonzero;stroke:none;stroke-width:0.1"
         id="path1978" />
      <path
         d="m 195.772,171.67 c 0.274,-0.2 0.662,-0.32 0.981,-0.431 0.321,-0.112 0.606,-0.084 0.873,-0.007 0.114,0.033 0.216,0.172 0.167,0.293 -0.154,0.382 -0.373,0.587 -0.755,0.746 -0.351,0.145 -0.792,0.231 -1.167,0.154 -0.386,-0.079 -0.361,-0.564 -0.099,-0.755 v 0"
         style="fill:#699355;fill-opacity:1;fill-rule:nonzero;stroke:none;stroke-width:0.1"
         id="path1980" />
      <path
         d="m 196.955,173.568 c 0.235,-0.106 0.42,-0.307 0.668,-0.376 0.125,-0.035 0.252,0.062 0.252,0.191 -0.002,0.353 -0.325,0.57 -0.608,0.72 -0.358,0.19 -0.671,-0.375 -0.312,-0.535 v 0"
         style="fill:#699355;fill-opacity:1;fill-rule:nonzero;stroke:none;stroke-width:0.1"
         id="path1982" />
      <path
         d="m 179.479,176.214 c 0.422,-0.022 0.943,-0.156 1.248,0.216 0.062,0.076 0.062,0.16 0,0.235 -0.305,0.373 -0.826,0.239 -1.248,0.216 -0.431,-0.022 -0.431,-0.644 0,-0.667 v 0"
         style="fill:#699355;fill-opacity:1;fill-rule:nonzero;stroke:none;stroke-width:0.1"
         id="path1984" />
      <path
         d="m 178.765,173.129 c 0.375,-0.168 1.953,-0.494 1.953,0.254 0,0.748 -1.578,0.422 -1.953,0.254 -0.193,-0.086 -0.193,-0.422 0,-0.508 v 0"
         style="fill:#699355;fill-opacity:1;fill-rule:nonzero;stroke:none;stroke-width:0.1"
         id="path1986" />
      <path
         d="m 179.271,170.212 c 0.498,-0.203 1.187,-0.378 1.683,-0.087 0.324,0.192 0.324,0.673 0,0.864 -0.496,0.292 -1.185,0.117 -1.683,-0.086 -0.339,-0.139 -0.339,-0.552 0,-0.691 v 0"
         style="fill:#699355;fill-opacity:1;fill-rule:nonzero;stroke:none;stroke-width:0.1"
         id="path1988" />
      <path
         d="m 179.122,167.596 c 0.45,-0.156 1.386,-0.558 1.584,0.16 0.222,0.809 -0.963,0.851 -1.454,0.808 -0.554,-0.05 -0.67,-0.781 -0.13,-0.968 v 0"
         style="fill:#699355;fill-opacity:1;fill-rule:nonzero;stroke:none;stroke-width:0.1"
         id="path1990" />
      <path
         d="m 179.366,164.544 c 0.154,-0.003 0.304,-0.011 0.459,10e-4 0.485,0.04 0.782,0.737 0.269,0.993 -0.24,0.121 -0.463,0.163 -0.728,0.182 -0.752,0.056 -0.763,-1.162 0,-1.176 v 0"
         style="fill:#699355;fill-opacity:1;fill-rule:nonzero;stroke:none;stroke-width:0.1"
         id="path1992" />
      <path
         d="m 178.913,161.855 c 0.43,-0.012 1.297,-0.086 1.297,0.564 0,0.651 -0.867,0.577 -1.297,0.565 -0.727,-0.02 -0.727,-1.11 0,-1.129 v 0"
         style="fill:#699355;fill-opacity:1;fill-rule:nonzero;stroke:none;stroke-width:0.1"
         id="path1994" />
      <path
         d="m 179.14,159.676 c 0.366,-0.013 0.701,-0.038 1.019,0.177 0.312,0.211 0.312,0.627 0,0.838 -0.318,0.215 -0.653,0.189 -1.019,0.177 -0.769,-0.026 -0.769,-1.166 0,-1.192 v 0"
         style="fill:#699355;fill-opacity:1;fill-rule:nonzero;stroke:none;stroke-width:0.1"
         id="path1996" />
      <path
         d="m 175.771,175.314 c 0.343,-0.137 0.691,-0.092 1.055,-0.069 0.436,0.026 0.804,0.026 1.21,0.208 0.323,0.145 0.312,0.69 0,0.839 -0.459,0.218 -0.876,0.187 -1.368,0.117 -0.432,-0.062 -0.889,-0.177 -1.102,-0.593 -0.108,-0.212 -0.006,-0.418 0.205,-0.502 v 0"
         style="fill:#699355;fill-opacity:1;fill-rule:nonzero;stroke:none;stroke-width:0.1"
         id="path1998" />
      <path
         d="m 175.184,172.64 c 0.611,-0.017 1.671,-0.222 2.118,0.32 0.103,0.126 0.103,0.268 0,0.394 -0.447,0.542 -1.507,0.336 -2.118,0.319 -0.666,-0.017 -0.666,-1.014 0,-1.033 v 0"
         style="fill:#699355;fill-opacity:1;fill-rule:nonzero;stroke:none;stroke-width:0.1"
         id="path2000" />
      <path
         d="m 175.411,170.264 c 0.523,-0.074 1.048,-0.176 1.57,-0.038 0.44,0.116 0.44,0.772 0,0.889 -0.522,0.137 -1.047,0.036 -1.57,-0.038 -0.404,-0.058 -0.404,-0.755 0,-0.813 v 0"
         style="fill:#699355;fill-opacity:1;fill-rule:nonzero;stroke:none;stroke-width:0.1"
         id="path2002" />
      <path
         d="m 176.088,167.699 c 0.631,0 1.276,-0.104 1.804,0.299 0.136,0.105 0.136,0.267 0,0.372 -0.528,0.403 -1.173,0.298 -1.804,0.298 -0.626,0 -0.626,-0.969 0,-0.969 v 0"
         style="fill:#699355;fill-opacity:1;fill-rule:nonzero;stroke:none;stroke-width:0.1"
         id="path2004" />
      <path
         d="m 175.58,164.956 c 0.264,-0.168 0.636,-0.184 0.939,-0.216 0.419,-0.046 0.871,-0.011 1.121,0.371 0.093,0.143 0.087,0.351 0,0.496 -0.434,0.717 -1.922,0.473 -2.213,-0.274 -0.055,-0.14 0.036,-0.301 0.153,-0.377 v 0"
         style="fill:#699355;fill-opacity:1;fill-rule:nonzero;stroke:none;stroke-width:0.1"
         id="path2006" />
      <path
         d="m 176.208,161.81 c 0.36,-0.07 1.199,-0.224 1.199,0.384 0,0.606 -0.839,0.453 -1.199,0.383 -0.38,-0.075 -0.38,-0.693 0,-0.767 v 0"
         style="fill:#699355;fill-opacity:1;fill-rule:nonzero;stroke:none;stroke-width:0.1"
         id="path2008" />
      <path
         d="m 176.992,159.061 c 0.337,0.038 0.925,0.053 0.925,0.533 0,0.48 -0.588,0.494 -0.925,0.532 -0.686,0.078 -0.686,-1.142 0,-1.065 v 0"
         style="fill:#699355;fill-opacity:1;fill-rule:nonzero;stroke:none;stroke-width:0.1"
         id="path2010" />
      <path
         d="m 154.737,168.649 c 0.563,0.264 1.362,0.238 1.799,0.732 0.307,0.347 0.012,0.867 -0.446,0.766 -0.321,-0.071 -0.63,-0.299 -0.914,-0.464 -0.271,-0.158 -0.526,-0.418 -0.738,-0.646 -0.198,-0.214 0.049,-0.504 0.299,-0.388 v 0"
         style="fill:#699355;fill-opacity:1;fill-rule:nonzero;stroke:none;stroke-width:0.1"
         id="path2012" />
      <path
         d="m 156.345,166.057 c 0.494,0.083 1.013,0.341 1.329,0.731 0.198,0.245 0.184,0.744 -0.212,0.802 -0.619,0.093 -1.241,-0.114 -1.666,-0.59 -0.396,-0.442 -0.004,-1.036 0.549,-0.943 v 0"
         style="fill:#699355;fill-opacity:1;fill-rule:nonzero;stroke:none;stroke-width:0.1"
         id="path2014" />
      <path
         d="m 158.252,163.915 c 0.4,0.203 1.018,0.352 1.211,0.796 0.122,0.28 0.047,0.664 -0.301,0.74 -0.595,0.129 -1.142,-0.338 -1.507,-0.762 -0.367,-0.426 0.087,-1.031 0.597,-0.774 v 0"
         style="fill:#699355;fill-opacity:1;fill-rule:nonzero;stroke:none;stroke-width:0.1"
         id="path2016" />
      <path
         d="m 160.031,161.635 c 0.37,0.377 1.071,0.37 1.232,0.973 0.065,0.24 -0.08,0.429 -0.292,0.514 -0.373,0.152 -0.802,-0.112 -1.072,-0.356 -0.273,-0.247 -0.369,-0.558 -0.397,-0.912 -0.023,-0.276 0.35,-0.4 0.529,-0.219 v 0"
         style="fill:#699355;fill-opacity:1;fill-rule:nonzero;stroke:none;stroke-width:0.1"
         id="path2018" />
      <path
         d="m 161.167,159.527 c 0.455,0.064 0.961,0.201 1.344,0.464 0.322,0.22 0.232,0.796 -0.211,0.778 -0.484,-0.019 -0.905,-0.282 -1.357,-0.43 -0.53,-0.173 -0.301,-0.886 0.224,-0.812 v 0"
         style="fill:#699355;fill-opacity:1;fill-rule:nonzero;stroke:none;stroke-width:0.1"
         id="path2020" />
      <path
         d="m 162.082,157.189 c 0.68,-0.291 1.702,0.057 2.065,0.703 0.219,0.389 -0.143,0.943 -0.604,0.786 -0.265,-0.09 -0.471,-0.241 -0.713,-0.375 -0.239,-0.133 -0.529,-0.214 -0.748,-0.373 -0.227,-0.165 -0.328,-0.601 0,-0.741 v 0"
         style="fill:#699355;fill-opacity:1;fill-rule:nonzero;stroke:none;stroke-width:0.1"
         id="path2022" />
      <path
         d="m 164.252,155.222 c 0.415,0.142 0.795,0.351 0.945,0.785 0.05,0.146 -0.056,0.359 -0.217,0.382 -0.361,0.052 -0.669,-0.021 -1.019,-0.109 -0.689,-0.173 -0.377,-1.286 0.291,-1.058 v 0"
         style="fill:#699355;fill-opacity:1;fill-rule:nonzero;stroke:none;stroke-width:0.1"
         id="path2024" />
      <path
         d="m 144.442,136.651 c 0.336,-0.28 0.515,-0.763 0.956,-0.888 0.248,-0.07 0.533,0.128 0.519,0.396 -0.025,0.517 -0.505,0.95 -0.897,1.241 -0.435,0.323 -0.993,-0.404 -0.578,-0.749 v 0"
         style="fill:#699355;fill-opacity:1;fill-rule:nonzero;stroke:none;stroke-width:0.1"
         id="path2026" />
      <path
         d="m 146.672,137.837 c 0.178,-0.306 0.393,-0.586 0.622,-0.856 0.104,-0.123 0.242,-0.224 0.383,-0.3 0.22,-0.119 0.371,-0.092 0.606,-0.068 0.145,0.014 0.259,0.108 0.262,0.262 0.004,0.189 0.034,0.306 -0.046,0.487 -0.067,0.152 -0.157,0.272 -0.265,0.398 -0.192,0.223 -0.424,0.402 -0.601,0.639 -0.418,0.561 -1.33,0.075 -0.961,-0.562 v 0"
         style="fill:#699355;fill-opacity:1;fill-rule:nonzero;stroke:none;stroke-width:0.1"
         id="path2028" />
      <path
         d="m 149.941,138.139 c 0.212,-0.048 0.325,-0.201 0.456,-0.366 0.213,-0.27 0.429,-0.387 0.764,-0.408 0.149,-0.01 0.338,0.119 0.36,0.273 0.062,0.434 -0.065,0.702 -0.355,1.034 -0.24,0.274 -0.564,0.492 -0.925,0.556 -0.705,0.124 -1.017,-0.925 -0.3,-1.089 v 0"
         style="fill:#699355;fill-opacity:1;fill-rule:nonzero;stroke:none;stroke-width:0.1"
         id="path2030" />
      <path
         d="m 152.461,139.614 c 0.121,-0.255 0.191,-0.526 0.337,-0.777 0.206,-0.351 0.421,-0.556 0.808,-0.694 0.387,-0.138 0.736,0.279 0.642,0.642 -0.098,0.371 -0.284,0.61 -0.528,0.9 -0.227,0.27 -0.492,0.388 -0.81,0.512 -0.359,0.14 -0.581,-0.306 -0.449,-0.583 v 0"
         style="fill:#699355;fill-opacity:1;fill-rule:nonzero;stroke:none;stroke-width:0.1"
         id="path2032" />
      <path
         d="m 155.38,140.736 c -0.088,-0.626 0.234,-1.398 0.851,-1.658 0.257,-0.11 0.471,-0.094 0.689,0.088 0.002,0.001 0.003,0.003 0.005,0.004 -0.11,-0.046 -0.219,-0.09 -0.328,-0.135 0.027,0.002 0.054,0.004 0.081,0.006 0.199,0.019 0.402,0.164 0.387,0.388 -0.019,-0.049 -0.037,-0.099 -0.056,-0.147 0.119,0.173 0.087,0.397 0,0.574 -0.099,0.203 -0.246,0.374 -0.402,0.536 -0.129,0.135 -0.212,0.313 -0.326,0.462 -0.219,0.287 -0.832,0.362 -0.901,-0.118 v 0"
         style="fill:#699355;fill-opacity:1;fill-rule:nonzero;stroke:none;stroke-width:0.1"
         id="path2034" />
      <path
         d="m 157.972,140.954 c 0.201,-0.437 0.576,-0.8 1.066,-0.852 0.375,-0.04 0.521,0.406 0.392,0.683 -0.159,0.339 -0.558,0.571 -0.871,0.755 -0.398,0.236 -0.758,-0.215 -0.587,-0.586 v 0"
         style="fill:#699355;fill-opacity:1;fill-rule:nonzero;stroke:none;stroke-width:0.1"
         id="path2036" />
      <path
         d="m 160.431,141.502 c 0.163,-0.323 0.311,-0.623 0.67,-0.747 0.252,-0.087 0.524,0.141 0.519,0.396 -0.006,0.336 -0.218,0.549 -0.393,0.817 -0.327,0.498 -1.064,0.066 -0.796,-0.466 v 0"
         style="fill:#699355;fill-opacity:1;fill-rule:nonzero;stroke:none;stroke-width:0.1"
         id="path2038" />
      <path
         d="m 162.842,142.803 c -0.25,-0.502 -0.202,-1.062 0.324,-1.357 0.148,-0.083 0.367,-0.104 0.513,0 0.133,0.094 0.222,0.165 0.234,0.336 0,-0.077 0.006,-0.042 0.018,0.103 0,0.092 -0.023,0.178 -0.069,0.257 -0.025,0.044 -0.038,0.189 -0.073,0.107 0.116,0.276 0.086,0.585 -0.197,0.751 -0.244,0.144 -0.616,0.071 -0.75,-0.197 v 0"
         style="fill:#699355;fill-opacity:1;fill-rule:nonzero;stroke:none;stroke-width:0.1"
         id="path2040" />
      <path
         d="m 177.688,140.362 c 0.25,-0.169 0.599,-0.139 0.886,-0.101 0.18,0.024 0.36,0.039 0.529,0.108 0.247,0.098 0.355,0.201 0.525,0.396 0.268,0.309 0.157,0.751 -0.233,0.885 -0.175,0.059 -0.289,0.11 -0.479,0.104 -0.245,-0.007 -0.474,-0.096 -0.692,-0.201 -0.299,-0.143 -0.657,-0.38 -0.726,-0.725 -0.04,-0.193 0.026,-0.357 0.19,-0.466 v 0"
         style="fill:#699355;fill-opacity:1;fill-rule:nonzero;stroke:none;stroke-width:0.1"
         id="path2042" />
      <path
         d="m 178.8,137.86 c 0.68,-0.06 1.375,0.138 1.788,0.703 0.094,0.128 -0.006,0.31 -0.142,0.35 -0.563,0.166 -1.084,-0.124 -1.646,-0.083 -0.627,0.043 -0.615,-0.916 0,-0.97 v 0"
         style="fill:#699355;fill-opacity:1;fill-rule:nonzero;stroke:none;stroke-width:0.1"
         id="path2044" />
      <path
         d="m 179.482,135.573 c 0.289,-0.085 0.649,-0.091 0.951,-0.089 0.413,0.003 0.787,-0.039 1.035,0.359 0.091,0.148 0.084,0.342 0,0.489 -0.393,0.69 -1.672,0.331 -2.169,-0.069 -0.252,-0.203 -0.091,-0.611 0.183,-0.69 v 0"
         style="fill:#699355;fill-opacity:1;fill-rule:nonzero;stroke:none;stroke-width:0.1"
         id="path2046" />
      <path
         d="m 180.609,132.726 c 0.38,-0.038 0.697,-0.088 1.081,-0.03 0.275,0.042 0.644,0.376 0.609,0.675 -0.086,0.719 -1.227,0.468 -1.69,0.419 -0.684,-0.071 -0.687,-0.996 0,-1.064 v 0"
         style="fill:#699355;fill-opacity:1;fill-rule:nonzero;stroke:none;stroke-width:0.1"
         id="path2048" />
      <path
         d="m 181.513,130.063 c 0.513,-0.063 0.971,0.06 1.273,0.494 0.224,0.322 -0.072,0.821 -0.457,0.796 -0.281,-0.018 -0.534,-0.119 -0.816,-0.099 -0.325,0.024 -0.596,-0.288 -0.596,-0.595 0,-0.355 0.273,-0.557 0.596,-0.596 v 0"
         style="fill:#699355;fill-opacity:1;fill-rule:nonzero;stroke:none;stroke-width:0.1"
         id="path2050" />
      <path
         d="m 182.549,127.528 c 0.452,0.225 1.052,0.385 1.221,0.922 0.029,0.092 -0.017,0.216 -0.106,0.26 -0.543,0.267 -1.121,-0.104 -1.604,-0.345 -0.56,-0.28 -0.069,-1.117 0.489,-0.837 v 0"
         style="fill:#699355;fill-opacity:1;fill-rule:nonzero;stroke:none;stroke-width:0.1"
         id="path2052" />
      <path
         d="m 183.084,125.431 c 0.366,0.09 0.76,0.105 1.117,0.214 0.121,0.037 0.247,0.138 0.271,0.269 0.012,0.074 0.019,0.134 0,0.207 -0.049,0.181 -0.201,0.263 -0.373,0.284 -0.398,0.048 -0.843,-0.12 -1.218,-0.239 -0.468,-0.147 -0.277,-0.854 0.203,-0.735 v 0"
         style="fill:#699355;fill-opacity:1;fill-rule:nonzero;stroke:none;stroke-width:0.1"
         id="path2054" />
      <path
         d="m 183.442,123.155 c 0.224,-0.06 0.479,-0.096 0.711,-0.098 0.284,-0.003 0.488,0.04 0.753,0.13 0.483,0.162 0.44,0.76 0,0.937 -0.319,0.129 -0.565,0.168 -0.911,0.104 -0.27,-0.051 -0.548,-0.202 -0.728,-0.409 -0.192,-0.22 -0.13,-0.583 0.175,-0.664 v 0"
         style="fill:#699355;fill-opacity:1;fill-rule:nonzero;stroke:none;stroke-width:0.1"
         id="path2056" />
      <path
         d="m 187.391,145.045 c 0.686,0 0.686,1.066 0,1.066 -0.687,0 -0.687,-1.066 0,-1.066 v 0"
         style="fill:#699355;fill-opacity:1;fill-rule:nonzero;stroke:none;stroke-width:0.1"
         id="path2058" />
      <path
         d="m 187.952,143.427 c 0.017,-0.021 0.033,-0.042 0.05,-0.063 0.129,-0.163 0.456,-0.163 0.585,0 0.017,0.021 0.034,0.042 0.05,0.063 0.25,0.316 0.117,0.827 -0.342,0.827 -0.46,0 -0.593,-0.511 -0.343,-0.827 v 0"
         style="fill:#699355;fill-opacity:1;fill-rule:nonzero;stroke:none;stroke-width:0.1"
         id="path2060" />
      <path
         d="m 189.15,141.396 c 0.025,-0.38 0.212,-0.942 0.713,-0.805 0.386,0.107 0.267,0.513 0.289,0.805 0.047,0.644 -1.045,0.647 -1.002,0 v 0"
         style="fill:#699355;fill-opacity:1;fill-rule:nonzero;stroke:none;stroke-width:0.1"
         id="path2062" />
      <path
         d="m 191.233,138.347 c 0.736,0.039 0.945,1.116 0.18,1.327 -0.98,0.27 -1.15,-1.378 -0.18,-1.327 v 0"
         style="fill:#699355;fill-opacity:1;fill-rule:nonzero;stroke:none;stroke-width:0.1"
         id="path2064" />
      <path
         d="m 192.21,136.708 c 0.133,-0.398 0.286,-0.672 0.694,-0.825 0.252,-0.094 0.576,0.102 0.632,0.359 0.066,0.308 -0.003,0.514 -0.115,0.8 -0.124,0.319 -0.416,0.537 -0.772,0.439 -0.317,-0.087 -0.547,-0.448 -0.439,-0.773 v 0"
         style="fill:#699355;fill-opacity:1;fill-rule:nonzero;stroke:none;stroke-width:0.1"
         id="path2066" />
      <path
         d="m 194.258,134.809 c -0.059,-0.343 -0.063,-0.636 0.005,-0.978 0.187,-0.946 1.723,-0.543 1.455,0.402 -0.038,0.136 -0.037,0.239 -0.024,0.382 0.076,0.818 -1.295,1.004 -1.436,0.194 v 0"
         style="fill:#699355;fill-opacity:1;fill-rule:nonzero;stroke:none;stroke-width:0.1"
         id="path2068" />
      <path
         d="m 196.023,132.467 c 0.027,-0.325 0.1,-0.592 0.407,-0.758 0.314,-0.171 0.757,-0.029 0.843,0.343 0.034,0.149 0.021,0.269 0.021,0.415 10e-4,0.828 -1.339,0.809 -1.271,0 v 0"
         style="fill:#699355;fill-opacity:1;fill-rule:nonzero;stroke:none;stroke-width:0.1"
         id="path2070" />
      <path
         d="m 198.128,130.015 c 0.83,0 0.83,1.287 0,1.287 -0.83,0 -0.83,-1.287 0,-1.287 v 0"
         style="fill:#699355;fill-opacity:1;fill-rule:nonzero;stroke:none;stroke-width:0.1"
         id="path2072" />
      <path
         d="m 215.14,154.663 c -6.518,-3.617 -18.124,-8.602 -24.707,-2.454 -0.891,0.831 -2.231,-0.504 -1.338,-1.338 3.565,-3.329 8.655,-3.524 13.212,-2.709 5.008,0.895 10.057,1.969 13.213,6.121 0.179,0.235 -0.156,0.505 -0.38,0.38 v 0"
         style="fill:#699355;fill-opacity:1;fill-rule:nonzero;stroke:none;stroke-width:0.1"
         id="path2074" />
      <path
         d="m 215.066,154.636 c -2.331,-2.385 -3.189,-5.868 -4.42,-8.882 -1.148,-2.81 -3.591,-6.534 -3.029,-9.631 0.135,-0.742 1.361,-0.932 1.671,-0.217 1.16,2.673 2.208,5.393 3.266,8.107 1.329,3.406 1.912,6.887 3.017,10.329 0.094,0.292 -0.298,0.506 -0.505,0.294 v 0"
         style="fill:#699355;fill-opacity:1;fill-rule:nonzero;stroke:none;stroke-width:0.1"
         id="path2076" />
    </g>
  </g>
</svg>
