<?xml version="1.0" encoding="UTF-8" standalone="no"?>
<svg
   xmlns:dc="http://purl.org/dc/elements/1.1/"
   xmlns:cc="http://creativecommons.org/ns#"
   xmlns:rdf="http://www.w3.org/1999/02/22-rdf-syntax-ns#"
   xmlns:svg="http://www.w3.org/2000/svg"
   xmlns="http://www.w3.org/2000/svg"
   id="svg6796"
   version="1.1"
   viewBox="0 0 17.991472 28.934036"
   height="28.934036mm"
   width="17.991472mm">
  <defs
     id="defs6790" />
  <metadata
     id="metadata6793">
    <rdf:RDF>
      <cc:Work
         rdf:about="">
        <dc:format>image/svg+xml</dc:format>
        <dc:type
           rdf:resource="http://purl.org/dc/dcmitype/StillImage" />
        <dc:title></dc:title>
      </cc:Work>
    </rdf:RDF>
  </metadata>
  <g
     id="layer1">
    <g
       transform="matrix(0.35277777,0,0,-0.35277777,-97.75065,55.280024)"
       id="g6728">
      <path
         d="m 321.814,80.8691 c 2.465,2.575 4.379,5.2637 5.496,8.6489 0.994,3.0148 0.938,6.7699 0.377,9.8929 -0.216,1.2011 -0.481,2.4021 -0.958,3.5251 -0.648,1.519 -1.666,2.848 -2.671,4.157 -1.669,2.171 -3.744,4.709 -5.853,6.455 -2.874,2.378 -5.597,3.875 -7.757,6.916 -0.587,0.825 -0.719,1.879 -0.826,2.886 -0.784,7.421 -1.075,14.894 -0.87,22.353 0.04,1.479 0.146,3.206 -0.058,4.671 -3.473,-0.209 -6.946,-0.419 -10.42,-0.628 -0.924,-0.056 -1.883,-0.121 -2.702,-0.555 0.28,-1.106 0.36,-2.25 0.439,-3.387 0.182,-2.635 0.445,-5.141 0.648,-7.773 0.468,-6.059 0.487,-12.153 0.056,-18.213 -0.139,-1.94 -2.16,-2.947 -3.659,-4.186 -4.524,-3.739 -9.067,-7.743 -11.664,-13.006 -1.136,-2.302 -1.705,-4.5901 -1.644,-7.1569 0.038,-1.5543 0.196,-3.3351 0.523,-4.8543 0.688,-3.207 1.737,-6.4257 4.039,-8.7628 3.243,-3.2918 5.461,-4.9098 8.94,-6.1649 2.651,-0.9562 5.529,-1.0789 8.346,-0.975 7.305,0.2731 14.218,0.8348 19.685,5.6891 l 0.533,0.4679"
         style="fill:#5c7f5e;fill-opacity:1;fill-rule:nonzero;stroke:none;stroke-width:0.1"
         id="path864" />
      <path
         d="m 315.701,100.822 c -0.156,1.013 0.695,2.366 1.371,3.485 0.468,0.773 0.833,1.607 1.033,2.488 0.209,0.917 0.271,1.877 0.137,2.812 -0.289,2.016 -1.535,3.874 -3.291,4.907 -1.756,1.032 -3.985,1.219 -5.888,0.491 -0.655,-0.251 -1.291,-0.621 -1.693,-1.195 -0.713,-1.018 -0.141,-2.716 0.644,-3.85 0.088,-0.127 -0.031,-0.289 -0.178,-0.243 -0.286,0.09 -0.636,0.127 -0.946,-0.071 -0.716,-0.455 -0.594,-0.837 -0.526,-1.085 0.096,-0.342 0.455,-0.527 0.779,-0.674 0.566,-0.255 1.13,-0.51 1.697,-0.766 0.705,-0.318 1.764,-0.766 2.537,-0.824 10e-4,0.2 0.048,0.69 0.051,1.484 0.002,0.472 0.128,0.935 0.132,1.408 0.006,0.677 -0.04,1.456 -0.56,1.875 -0.314,0.253 -0.758,0.272 -1.124,0.105 -0.855,-0.39 -0.487,-0.864 -0.88,-1.056 -0.677,0.33 -0.962,1.218 -0.737,1.937 0.223,0.719 0.861,1.255 1.567,1.515 0.707,0.261 1.479,0.279 2.231,0.235 0.699,-0.041 1.409,-0.137 2.041,-0.439 1.56,-0.745 2.324,-2.645 2.156,-4.365 -0.168,-1.721 -1.099,-3.276 -2.179,-4.625 -0.454,-0.568 -0.94,-1.112 -1.482,-1.595 -2.433,-2.171 -5.833,-2.974 -9.093,-2.9389 -1.893,0.0211 -3.79,0.2989 -5.574,0.9309 -0.663,0.235 -1.322,0.527 -1.844,1 -0.489,0.443 -0.723,1.124 -0.728,1.787 -0.002,0.476 0.251,0.914 0.626,1.208 0.483,0.378 0.955,0.794 1.312,1.298 0.616,0.868 0.863,1.988 0.672,3.035 -0.193,1.046 -1.019,1.551 -1.903,2.144 0.384,-0.527 0.639,-1.474 0.52,-2.114 -0.166,-0.896 -0.666,-1.493 -1.333,-2.114 -0.868,-0.807 -1.946,-0.593 -3.121,-0.432 -0.258,0.036 -0.521,0.079 -0.75,0.199 -0.415,0.218 -0.703,0.64 -0.852,1.085 -0.674,2.009 1.168,3.056 1.601,3.343 0.398,0.263 1.5,0.366 1.778,0.299 -0.481,0.47 -1.271,0.688 -1.935,0.582 -0.664,-0.105 -1.277,-0.415 -1.872,-0.727 -0.495,-0.26 -0.99,-0.776 -1.32,-1.227 -0.578,-0.791 -0.486,-1.676 -0.543,-2.587 -0.049,-0.792 0.192,-1.613 0.791,-2.134 0.138,-0.119 0.061,-0.161 0.01,-0.339 -0.228,-0.821 -0.653,-1.575 -0.897,-2.39 -0.244,-0.815 -0.283,-1.764 0.214,-2.455 0.457,-0.636 1.253,-0.913 1.999,-1.154 0.863,-1.3602 1.324,-2.891 1.532,-4.4879 0.149,-1.1519 0.229,-2.3621 -0.2,-3.441 -0.501,-1.2633 -1.661,-2.1883 -2.943,-2.6371 -1.281,-0.45 -2.677,-0.4699 -4.027,-0.3192 -0.191,1.1801 -1.209,2.2321 -2.336,2.6274 -0.102,-0.8184 0.405,-1.5684 0.793,-2.2942 0.379,-0.7109 0.66,-1.4742 0.834,-2.2609 0.022,-0.1 0.075,-0.2301 0.147,-0.3641 0.206,-0.3808 0.725,-0.4312 1.028,-0.121 0.37,0.3781 0.854,0.596 1.423,0.5929 0.823,-0.007 1.644,-0.159 2.416,-0.4469 0.439,-0.164 0.87,-0.3742 1.335,-0.4398 1.387,-0.2012 2.683,0.9867 3.056,2.3398 0.14,0.5071 0.225,0.9629 0.725,1.1258 0.518,0.1711 1.067,-0.3117 1.601,-0.2 0.31,0.3871 0.069,0.9602 -0.224,1.3594 -0.293,0.3988 -0.654,0.8438 -0.55,1.327 0.541,0.1449 1.133,-0.1102 1.506,-0.5274 0.461,-0.5148 0.636,-1.2367 0.719,-1.9047 0.154,-1.2519 0.017,-2.523 -0.349,-3.7301 -0.466,-1.5308 -0.931,-3.0628 -1.397,-4.5941 -0.24,-0.7898 -0.559,-1.6738 -1.317,-2.0039 -0.376,-0.1648 -0.802,-0.1602 -1.207,-0.2309 -0.404,-0.073 -0.836,-0.2632 -0.988,-0.6453 1.535,-0.2867 3.07,-0.5738 4.605,-0.8609 0.24,0.2781 -0.042,0.6859 -0.095,1.0512 -0.127,0.8691 1.123,1.5129 1.4,1.875 0.092,0.1179 0.238,0.18 0.387,0.1988 0.502,0.0601 1.012,-0.0027 1.519,0.0019 0.194,0.0012 0.399,0.0153 0.566,0.1153 0.423,0.2508 0.39,0.8961 0.141,1.3199 -0.249,0.4238 -0.649,0.7539 -0.849,1.2039 -0.08,0.177 -0.122,0.3922 -0.022,0.559 0.131,0.2211 0.433,0.2492 0.69,0.2543 0.582,0.0098 1.164,0.0199 1.745,0.0289 -0.132,0.475 -0.368,0.9199 -0.684,1.298 -0.365,0.436 -0.841,0.786 -1.121,1.2797 -0.28,0.4961 -0.279,1.2301 0.204,1.5301 0.237,0.1481 0.532,0.1563 0.812,0.159 1.14,0.0101 2.282,-0.0117 3.421,-0.0641 0.374,0.3903 0.123,1.041 -0.211,1.466 -0.328,0.4161 -0.747,0.8571 -0.701,1.3793 0.025,0.277 0.28,0.4731 0.557,0.4918 0.937,0.0653 1.862,-0.141 2.796,-0.123 0.634,0.0133 1.649,0.3152 2.175,0.6691 -0.358,-0.748 -0.086,-0.9539 0.081,-1.4781 0.313,-0.9859 1.156,-1.6879 1.886,-2.4187 0.08,-0.0782 0.162,-0.1672 0.171,-0.2782 0.014,-0.1492 -0.108,-0.273 -0.215,-0.3781 -0.948,-0.9301 -1.49,-2.2109 -1.739,-3.5148 -0.248,-1.3039 -0.223,-2.643 -0.178,-3.9692 0.007,-0.2238 0.013,-0.4551 -0.077,-0.659 -0.289,-0.655 -1.436,-0.7859 -1.418,-1.5019 0.752,-0.0262 1.507,0.0039 2.254,0.093 0.196,0.0218 0.398,0.0531 0.561,0.1601 0.194,0.1289 0.306,0.3488 0.39,0.5641 0.413,1.0508 0.389,2.2148 0.595,3.3258 0.206,1.1089 0.756,2.2839 1.814,2.6781 0.714,0.266 1.522,0.1219 2.25,0.348 0.104,0.0321 0.213,0.075 0.28,0.1617 0.143,0.1852 0.038,0.45 -0.071,0.6563 -0.378,0.718 -0.756,1.4359 -1.134,2.1539 0.732,0.2281 1.465,0.457 2.197,0.684 0.063,0.0199 0.129,0.0422 0.168,0.0941 0.067,0.0879 0.026,0.2129 -0.02,0.3129 -0.326,0.7039 -0.829,1.3238 -1.452,1.7871 -0.487,0.3617 -1.113,0.7489 -1.095,1.3559 0.793,0.489 1.451,-0.2399 2.263,-0.6969 1.561,-0.8781 2.213,-0.9359 3.544,-1.6582 0.494,-0.2687 1.308,-0.3828 1.334,-0.9437 0.015,-0.3192 -0.13,-0.8571 -0.195,-1.1711 -0.423,-2.0153 -0.858,-2.8371 -1.278,-4.2063 -0.04,-0.1297 -0.12,-0.2457 -0.236,-0.3187 -0.478,-0.309 -1.569,-0.8621 -1.185,-1.5551 0.983,-0.1789 2.161,0.9699 3.05,1.4289 0.15,0.0769 0.304,0.1582 0.42,0.282 0.213,0.2313 0.256,0.566 0.306,0.8762 0.224,1.3879 1.151,2.525 1.622,3.8488 0.422,1.1832 1.379,1.0172 1.463,1.2699 0.124,0.3731 0.087,0.8672 -0.347,1.2141 -0.836,0.6691 -1.841,1.2813 -1.879,2.3512 -0.032,0.8578 0.413,1.7179 1.13,2.1898 -0.779,0.3582 -1.669,0.434 -2.43,0.8281 -0.761,0.3961 -1.379,1.329 -0.989,2.093 0.259,0.509 0.884,0.775 1.075,1.3141 -2.189,-0.0352 -4.383,0.4801 -6.327,1.4849 l -0.151,0.382"
         style="fill:#30284f;fill-opacity:1;fill-rule:nonzero;stroke:none;stroke-width:0.1"
         id="path866" />
      <path
         d="m 301.882,130.428 c -0.131,0.36 -0.465,0.639 -0.843,0.702 -0.378,0.064 -0.784,-0.091 -1.024,-0.388 -0.161,-0.199 -0.248,-0.463 -0.198,-0.713 0.066,-0.321 0.353,-0.566 0.67,-0.645 0.318,-0.079 0.657,-0.013 0.956,0.118 0.158,0.069 0.314,0.16 0.405,0.305 0.114,0.182 0.106,0.419 0.034,0.621"
         style="fill:#9f9dea;fill-opacity:1;fill-rule:nonzero;stroke:none;stroke-width:0.1"
         id="path868" />
      <path
         d="m 306.513,131.083 c 0.246,0.286 0.104,0.77 -0.211,0.974 -0.317,0.204 -0.733,0.181 -1.09,0.063 -0.088,-0.029 -0.177,-0.066 -0.237,-0.136 -0.06,-0.07 -0.083,-0.164 -0.086,-0.257 -0.016,-0.508 0.537,-0.886 1.045,-0.873 0.213,0.005 0.439,0.068 0.579,0.229"
         style="fill:#9f9dea;fill-opacity:1;fill-rule:nonzero;stroke:none;stroke-width:0.1"
         id="path870" />
      <path
         d="m 302.323,121.172 c -0.167,0.096 -0.331,-0.134 -0.376,-0.322 -0.041,-0.171 -0.071,-0.347 -0.06,-0.521 0.025,-0.411 0.289,-0.797 0.661,-0.97 0.372,-0.173 0.838,-0.125 1.167,0.12 0.131,0.098 0.242,0.226 0.307,0.375 0.217,0.501 -0.17,1.116 -0.694,1.27 -0.523,0.155 -0.584,0.396 -1.005,0.048"
         style="fill:#9f9dea;fill-opacity:1;fill-rule:nonzero;stroke:none;stroke-width:0.1"
         id="path872" />
      <path
         d="m 298.36,113.658 c 0.057,-0.241 0.334,-0.361 0.58,-0.37 0.348,-0.011 0.753,0.214 0.74,0.562 -0.008,0.22 -0.187,0.403 -0.391,0.485 -0.204,0.082 -0.43,0.082 -0.649,0.082 -0.063,0 -0.131,-0.003 -0.178,-0.045 -0.06,-0.054 -0.054,-0.147 -0.059,-0.228 -0.008,-0.163 -0.08,-0.326 -0.043,-0.486"
         style="fill:#9f9dea;fill-opacity:1;fill-rule:nonzero;stroke:none;stroke-width:0.1"
         id="path874" />
      <path
         d="m 303.043,108.318 c 0.066,0.157 0.109,0.328 0.098,0.498 -0.032,0.43 -0.398,0.756 -0.77,0.973 -0.325,0.191 -0.757,0.331 -1.061,0.107 -0.092,-0.067 -0.16,-0.161 -0.227,-0.254 -0.25,-0.346 -0.511,-0.724 -0.509,-1.15 0.003,-0.577 0.547,-1.071 1.123,-1.088 0.576,-0.019 1.119,0.384 1.346,0.914"
         style="fill:#9f9dea;fill-opacity:1;fill-rule:nonzero;stroke:none;stroke-width:0.1"
         id="path876" />
      <path
         d="m 303.395,143.381 c 2.619,0.079 2.526,0.576 2.621,0.576 0.438,1.636 0.453,3.805 0.368,5.436 -0.005,0.095 -0.012,0.194 -0.102,0.271 -0.186,0.16 -0.823,-0.216 -2.081,-0.303 -1.977,-0.137 -5.858,-0.194 -5.894,-0.223 -0.499,-0.406 -0.051,-1.579 0.089,-3.221 0.051,-0.592 -0.002,-1.705 0.468,-2.07 0.67,-0.521 2.209,-0.537 4.531,-0.466"
         style="fill:#7c895d;fill-opacity:1;fill-rule:nonzero;stroke:none;stroke-width:0.1"
         id="path878" />
      <path
         d="m 297.395,150.834 c -1.301,-0.216 -1.455,-0.697 -1.735,-0.997 -0.115,-0.123 -0.217,-1.214 0.39,-1.343 3.659,-0.785 7.909,-0.696 11.49,0.389 0.347,0.106 0.931,0.291 1.17,0.565 0.239,0.272 0.292,0.871 0.047,1.138 -0.74,0.812 -2.9,1.02 -4.378,0.934 -2.437,-0.143 -4.577,-0.284 -6.984,-0.686"
         style="fill:#63705f;fill-opacity:1;fill-rule:nonzero;stroke:none;stroke-width:0.1"
         id="path880" />
      <path
         d="m 301.166,148.883 c -3.033,-0.097 -2.962,0.484 -3.071,0.477 -0.626,1.859 -0.649,3.762 -0.669,5.653 -0.002,0.109 0,0.225 0.097,0.32 0.204,0.199 0.703,0.143 1.111,0.113 2.29,-0.173 4.633,-0.123 6.891,0.144 0.197,0.024 0.873,0.655 1.017,0.577 0.062,-0.033 0.043,-0.228 0.087,-0.259 0.607,-0.434 0.174,-1.822 0.13,-3.73 -0.016,-0.689 0.127,-1.971 -0.39,-2.428 -0.737,-0.65 -2.515,-0.78 -5.203,-0.867"
         style="fill:#d4af64;fill-opacity:1;fill-rule:nonzero;stroke:none;stroke-width:0.1"
         id="path882" />
      <path
         d="m 306.346,154.915 c 0.33,0.152 0.694,0.432 0.627,0.789 -0.032,0.167 -0.155,0.301 -0.289,0.402 -0.552,0.411 -0.965,0.538 -2.526,0.582 -1.496,0.041 -2.235,-0.036 -3.729,-0.13 -0.827,-0.053 -1.637,-0.203 -2.384,-0.564 -0.144,-0.07 -0.548,-0.458 -0.617,-0.602 -0.115,-0.235 0.025,-0.548 0.258,-0.669 1.139,-0.594 2.143,-0.494 3.003,-0.55 1.799,-0.116 4.018,-0.009 5.657,0.742"
         style="fill:#f5dba3;fill-opacity:1;fill-rule:nonzero;stroke:none;stroke-width:0.1"
         id="path884" />
      <path
         d="m 290.067,103.583 c 0.606,0 0.606,0.94 0,0.94 -0.605,0 -0.605,-0.94 0,-0.94 v 0"
         style="fill:#ba422a;fill-opacity:1;fill-rule:nonzero;stroke:none;stroke-width:0.1"
         id="path886" />
      <path
         d="m 293.016,102.94 c 0.652,0 0.652,1.013 0,1.013 -0.654,0 -0.654,-1.013 0,-1.013 v 0"
         style="fill:#ba422a;fill-opacity:1;fill-rule:nonzero;stroke:none;stroke-width:0.1"
         id="path888" />
      <path
         d="m 289.2,101.341 c 0.031,0 0.031,0.049 0,0.049 -0.031,0 -0.031,-0.049 0,-0.049 v 0"
         style="fill:#574e87;fill-opacity:1;fill-rule:nonzero;stroke:none;stroke-width:0.1"
         id="path890" />
      <path
         d="m 289.165,101.982 c -0.147,-0.982 0.8,-1.415 1.641,-1.528 0.62,-0.084 2.235,0.084 2.207,0.998 -0.005,0.137 -0.14,0.203 -0.257,0.147 -0.248,-0.116 -0.417,-0.351 -0.667,-0.48 -0.321,-0.166 -0.725,-0.201 -1.078,-0.204 -0.716,-0.007 -1.525,0.35 -1.776,1.067 -0.01,0.03 -0.064,0.039 -0.07,0 v 0"
         style="fill:#574e87;fill-opacity:1;fill-rule:nonzero;stroke:none;stroke-width:0.1"
         id="path892" />
      <path
         d="m 296.727,97.273 c 0.355,-0.3171 0.591,-0.4699 1.069,-0.566 0.453,-0.0898 0.915,-0.114 1.376,-0.0859 0.055,0.0039 0.091,0.0867 0.03,0.1148 -0.765,0.3442 -1.701,0.1813 -2.446,0.575 -0.024,0.0129 -0.051,-0.0199 -0.029,-0.0379 v 0"
         style="fill:#574e87;fill-opacity:1;fill-rule:nonzero;stroke:none;stroke-width:0.1"
         id="path894" />
      <path
         d="m 297.336,95.243 c 0.301,-0.1219 0.601,-0.2629 0.885,-0.42 0.295,-0.1628 0.473,-0.4402 0.737,-0.6371 0.049,-0.0359 0.122,0.0129 0.12,0.0692 -0.031,0.7758 -1.123,1.0347 -1.727,1.0949 -0.067,0.007 -0.068,-0.0871 -0.015,-0.107 v 0"
         style="fill:#574e87;fill-opacity:1;fill-rule:nonzero;stroke:none;stroke-width:0.1"
         id="path896" />
      <path
         d="m 301.322,97.3988 c 0.423,-0.0648 0.85,-0.1558 1.279,-0.1699 0.38,-0.0129 0.817,-0.0961 1.154,0.1082 0.095,0.057 0.095,0.1957 0,0.252 -0.34,0.205 -0.771,0.116 -1.154,0.1089 -0.427,-0.0082 -0.858,-0.107 -1.279,-0.1699 -0.064,-0.0101 -0.064,-0.1191 0,-0.1293 v 0"
         style="fill:#574e87;fill-opacity:1;fill-rule:nonzero;stroke:none;stroke-width:0.1"
         id="path898" />
      <path
         d="m 293.851,95.9699 c 0.157,-0.289 0.238,-0.6578 0.271,-0.9847 0.033,-0.3192 -0.044,-0.6364 0.024,-0.95 0.03,-0.1403 0.201,-0.1602 0.295,-0.0793 0.316,0.2742 0.285,0.7269 0.179,1.0961 -0.122,0.421 -0.379,0.7058 -0.72,0.9691 -0.03,0.023 -0.065,-0.0211 -0.049,-0.0512 v 0"
         style="fill:#574e87;fill-opacity:1;fill-rule:nonzero;stroke:none;stroke-width:0.1"
         id="path900" />
      <path
         d="m 297.772,99.098 c 0.434,-0.389 1.295,-0.698 1.871,-0.5558 0.129,0.0316 0.123,0.1879 0.033,0.2558 -0.252,0.1942 -0.538,0.2442 -0.839,0.3309 -0.315,0.091 -0.638,0.1941 -0.966,0.2082 -0.119,0.0059 -0.189,-0.1582 -0.099,-0.2391 v 0"
         style="fill:#574e87;fill-opacity:1;fill-rule:nonzero;stroke:none;stroke-width:0.1"
         id="path902" />
      <path
         d="m 302.094,94.334 c 0.257,-0.0918 0.504,-0.234 0.709,-0.4141 0.18,-0.157 0.331,-0.459 0.577,-0.5058 0.073,-0.0141 0.175,0.0199 0.187,0.107 0.047,0.3219 -0.271,0.5617 -0.512,0.725 -0.282,0.191 -0.599,0.2687 -0.935,0.2801 -0.116,0.0039 -0.125,-0.1563 -0.026,-0.1922 v 0"
         style="fill:#574e87;fill-opacity:1;fill-rule:nonzero;stroke:none;stroke-width:0.1"
         id="path904" />
      <path
         d="m 300.671,91.8949 c 0.267,-0.1629 0.548,-0.4039 0.715,-0.6699 0.107,-0.1699 0.225,-0.518 0.484,-0.3871 0.065,0.0332 0.114,0.118 0.109,0.191 -0.043,0.6262 -0.666,1.0402 -1.247,1.093 -0.126,0.0121 -0.158,-0.1668 -0.061,-0.227 v 0"
         style="fill:#574e87;fill-opacity:1;fill-rule:nonzero;stroke:none;stroke-width:0.1"
         id="path906" />
      <path
         d="m 298.327,91.6352 c 0.145,-0.4364 0.534,-1.0434 0.995,-1.1911 0.079,-0.0261 0.125,0.0618 0.097,0.1258 -0.092,0.2051 -0.304,0.3571 -0.469,0.5031 -0.2,0.1758 -0.377,0.377 -0.501,0.6141 -0.035,0.0668 -0.146,0.0199 -0.122,-0.0519 v 0"
         style="fill:#574e87;fill-opacity:1;fill-rule:nonzero;stroke:none;stroke-width:0.1"
         id="path908" />
      <path
         d="m 301.18,89.5301 c 0.094,-0.1942 0.53,-1.061 0.853,-0.7379 0.303,0.3027 -0.555,0.7519 -0.737,0.8539 -0.078,0.0437 -0.153,-0.041 -0.116,-0.116 v 0"
         style="fill:#574e87;fill-opacity:1;fill-rule:nonzero;stroke:none;stroke-width:0.1"
         id="path910" />
      <path
         d="m 298.654,87.7879 c 0.286,-0.4348 0.099,-1.0668 0.518,-1.4231 0.075,-0.0636 0.169,-0.0347 0.204,0.0532 0.205,0.507 -0.057,1.334 -0.611,1.514 -0.08,0.0258 -0.158,-0.0718 -0.111,-0.1441 v 0"
         style="fill:#574e87;fill-opacity:1;fill-rule:nonzero;stroke:none;stroke-width:0.1"
         id="path912" />
      <path
         d="m 298.039,85.152 c -0.08,-0.3969 0.019,-0.9071 0.497,-0.975 0.075,-0.011 0.164,0.0468 0.135,0.1351 -0.117,0.352 -0.491,0.4988 -0.62,0.8399 -0.002,0.005 -0.011,0.007 -0.012,0 v 0"
         style="fill:#574e87;fill-opacity:1;fill-rule:nonzero;stroke:none;stroke-width:0.1"
         id="path914" />
      <path
         d="m 293.414,91.1328 c 0.018,-0.2469 0.041,-0.4937 0.054,-0.7418 0.012,-0.2359 -0.011,-0.443 0.06,-0.6711 0.024,-0.0758 0.138,-0.1019 0.178,-0.023 0.22,0.4301 0.018,1.0133 -0.053,1.4679 -0.021,0.1364 -0.249,0.1043 -0.239,-0.032 v 0"
         style="fill:#574e87;fill-opacity:1;fill-rule:nonzero;stroke:none;stroke-width:0.1"
         id="path916" />
      <path
         d="m 291.432,88.7051 c -0.007,-0.2512 -0.022,-0.6051 0.128,-0.8199 0.046,-0.0672 0.138,-0.0391 0.147,0.0398 0.027,0.252 -0.062,0.5199 -0.056,0.7801 0.003,0.1418 -0.216,0.141 -0.219,0 v 0"
         style="fill:#574e87;fill-opacity:1;fill-rule:nonzero;stroke:none;stroke-width:0.1"
         id="path918" />
      <path
         d="m 306.022,98.7352 c 0.445,-0.0282 1.185,-0.168 1.474,0.2738 0.046,0.0699 0.035,0.1898 -0.031,0.2441 -0.444,0.3641 -1.103,-0.0562 -1.501,-0.3019 -0.102,-0.0633 -0.056,-0.209 0.058,-0.216 v 0"
         style="fill:#574e87;fill-opacity:1;fill-rule:nonzero;stroke:none;stroke-width:0.1"
         id="path920" />
      <path
         d="m 306.265,96.2711 c 0.567,-0.1211 1.337,-0.1531 1.729,0.348 0.054,0.0668 0.008,0.1778 -0.089,0.152 -0.528,-0.1473 -1.067,-0.3563 -1.623,-0.368 -0.073,-0.0011 -0.094,-0.1152 -0.017,-0.132 v 0"
         style="fill:#574e87;fill-opacity:1;fill-rule:nonzero;stroke:none;stroke-width:0.1"
         id="path922" />
      <path
         d="m 306.252,93.7051 c 0.501,-0.3973 1.01,-0.8129 1.647,-0.95 0.1,-0.0199 0.18,0.0777 0.131,0.1711 -0.353,0.6547 -1.136,0.5578 -1.726,0.8449 -0.041,0.0199 -0.092,-0.034 -0.052,-0.066 v 0"
         style="fill:#574e87;fill-opacity:1;fill-rule:nonzero;stroke:none;stroke-width:0.1"
         id="path924" />
      <path
         d="m 310.897,94.5309 c 0.655,0.1632 1.707,0.1269 2.096,0.78 0.068,0.1121 -0.042,0.2289 -0.158,0.2063 -0.679,-0.1383 -1.369,-0.5582 -1.994,-0.8531 -0.077,-0.036 -0.022,-0.152 0.056,-0.1332 v 0"
         style="fill:#574e87;fill-opacity:1;fill-rule:nonzero;stroke:none;stroke-width:0.1"
         id="path926" />
      <path
         d="m 310.73,97.4551 c 0.613,0.0898 1.408,0.1859 1.881,0.616 0.081,0.073 0.017,0.2078 -0.086,0.2078 -0.621,0.0031 -1.274,-0.418 -1.846,-0.6348 -0.119,-0.0453 -0.073,-0.2062 0.051,-0.189 v 0"
         style="fill:#574e87;fill-opacity:1;fill-rule:nonzero;stroke:none;stroke-width:0.1"
         id="path928" />
      <path
         d="m 310.376,99.452 c 0.284,0.1921 0.593,0.3082 0.917,0.4128 0.266,0.0864 0.568,0.2052 0.746,0.4252 0.091,0.114 0.039,0.289 -0.12,0.292 -0.612,0.015 -1.345,-0.417 -1.795,-0.8039 -0.178,-0.1551 0.057,-0.457 0.252,-0.3261 v 0"
         style="fill:#574e87;fill-opacity:1;fill-rule:nonzero;stroke:none;stroke-width:0.1"
         id="path930" />
      <path
         d="m 313.842,101.512 c 0.372,0.235 0.929,0.31 1.151,0.734 0.046,0.087 -0.009,0.233 -0.126,0.219 -0.506,-0.059 -0.809,-0.52 -1.067,-0.911 -0.017,-0.025 0.016,-0.058 0.042,-0.042 v 0"
         style="fill:#574e87;fill-opacity:1;fill-rule:nonzero;stroke:none;stroke-width:0.1"
         id="path932" />
      <path
         d="m 315.607,104.266 c 0.164,0.151 0.352,0.253 0.535,0.378 0.141,0.097 0.299,0.151 0.385,0.305 0.042,0.074 -0.009,0.177 -0.099,0.174 -0.391,-0.016 -0.75,-0.461 -0.925,-0.776 -0.038,-0.067 0.049,-0.133 0.104,-0.081 v 0"
         style="fill:#574e87;fill-opacity:1;fill-rule:nonzero;stroke:none;stroke-width:0.1"
         id="path934" />
      <path
         d="m 317.505,107.054 c 0.066,0.191 0.263,0.299 0.371,0.472 0.042,0.067 0.048,0.179 0,0.245 -0.013,0.017 -0.025,0.033 -0.038,0.05 -0.072,0.089 -0.204,0.081 -0.295,0.038 -0.332,-0.157 -0.33,-0.484 -0.285,-0.805 0.019,-0.137 0.21,-0.106 0.247,0 v 0"
         style="fill:#574e87;fill-opacity:1;fill-rule:nonzero;stroke:none;stroke-width:0.1"
         id="path936" />
      <path
         d="m 315.311,98.7191 c 0.229,-0.1082 0.492,-0.1031 0.741,-0.1332 0.256,-0.0289 0.515,-0.041 0.76,0.0422 0.083,0.0289 0.134,0.1258 0.084,0.2059 -0.299,0.4699 -1.151,0.364 -1.585,0.148 -0.099,-0.048 -0.102,-0.216 0,-0.2629 v 0"
         style="fill:#574e87;fill-opacity:1;fill-rule:nonzero;stroke:none;stroke-width:0.1"
         id="path938" />
      <path
         d="m 315.34,96.482 c 0.177,-0.241 0.745,-0.357 1,-0.207 0.06,0.0352 0.108,0.1238 0.079,0.193 -0.15,0.3609 -0.902,0.466 -1.079,0.0699 -0.008,-0.018 -0.013,-0.0399 0,-0.0559 v 0"
         style="fill:#574e87;fill-opacity:1;fill-rule:nonzero;stroke:none;stroke-width:0.1"
         id="path940" />
      <path
         d="m 318.644,96.4551 c 0.273,-0.0879 0.528,-0.168 0.819,-0.1289 0.094,0.0109 0.135,0.1226 0.049,0.1808 -0.255,0.1711 -0.532,0.2032 -0.83,0.236 -0.171,0.0172 -0.189,-0.2399 -0.038,-0.2879 v 0"
         style="fill:#574e87;fill-opacity:1;fill-rule:nonzero;stroke:none;stroke-width:0.1"
         id="path942" />
      <path
         d="m 317.426,93.668 c 0.173,-0.05 0.362,-0.1102 0.526,-0.1828 0.176,-0.0793 0.325,-0.1973 0.518,-0.2391 0.084,-0.0172 0.196,0.0418 0.185,0.1418 -0.064,0.5551 -0.773,0.7519 -1.229,0.5859 -0.144,-0.0527 -0.157,-0.259 0,-0.3058 v 0"
         style="fill:#574e87;fill-opacity:1;fill-rule:nonzero;stroke:none;stroke-width:0.1"
         id="path944" />
      <path
         d="m 312.948,92.5211 c 0.025,-0.3512 0.083,-0.7051 0.274,-1.0039 0.041,-0.0633 0.165,-0.0652 0.178,0.0226 0.057,0.3711 -0.128,0.6723 -0.26,1.0063 -0.037,0.0949 -0.201,0.093 -0.192,-0.025 v 0"
         style="fill:#574e87;fill-opacity:1;fill-rule:nonzero;stroke:none;stroke-width:0.1"
         id="path946" />
      <path
         d="m 311.179,91.0461 c -0.055,-0.4289 0.007,-0.9652 0.45,-1.1461 0.071,-0.0289 0.135,0.043 0.14,0.1059 0.023,0.3613 -0.174,0.6711 -0.151,1.0402 0.018,0.2891 -0.405,0.273 -0.439,0 v 0"
         style="fill:#574e87;fill-opacity:1;fill-rule:nonzero;stroke:none;stroke-width:0.1"
         id="path948" />
      <path
         d="m 313.623,89.3691 c 0.136,-0.132 0.246,-0.275 0.334,-0.4429 0.069,-0.1321 0.108,-0.25 0.247,-0.3153 0.078,-0.0371 0.159,0.0082 0.165,0.0942 0.026,0.323 -0.448,0.5929 -0.695,0.7308 -0.041,0.0231 -0.086,-0.0328 -0.051,-0.0668 v 0"
         style="fill:#574e87;fill-opacity:1;fill-rule:nonzero;stroke:none;stroke-width:0.1"
         id="path950" />
      <path
         d="m 312.581,86.7648 c 0.167,-0.4418 0.042,-1 0.31,-1.3937 0.043,-0.0641 0.147,-0.043 0.147,0.0398 0,0.4551 -0.052,0.9942 -0.222,1.4192 -0.057,0.1429 -0.291,0.0828 -0.235,-0.0653 v 0"
         style="fill:#574e87;fill-opacity:1;fill-rule:nonzero;stroke:none;stroke-width:0.1"
         id="path952" />
      <path
         d="m 315.128,93.2141 c -0.023,-0.2563 0.407,-0.493 0.59,-0.6012 0.075,-0.0449 0.179,-0.0481 0.255,0 0.063,0.0402 0.09,0.0812 0.116,0.15 0.028,0.082 -0.004,0.1891 -0.066,0.2461 -0.102,0.0969 -0.86,0.5922 -0.895,0.2051 v 0"
         style="fill:#574e87;fill-opacity:1;fill-rule:nonzero;stroke:none;stroke-width:0.1"
         id="path954" />
      <path
         d="m 320.64,94.625 c 0.204,-0.1301 0.387,-0.2891 0.583,-0.4309 0.201,-0.1472 0.319,-0.2722 0.581,-0.2589 0.1,0.0046 0.159,0.0886 0.14,0.1859 -0.099,0.5187 -0.828,0.6219 -1.267,0.6398 -0.076,0.0039 -0.096,-0.098 -0.037,-0.1359 v 0"
         style="fill:#574e87;fill-opacity:1;fill-rule:nonzero;stroke:none;stroke-width:0.1"
         id="path956" />
      <path
         d="m 319.435,91.4328 c 0.17,-0.0937 0.269,-0.2148 0.363,-0.3808 0.087,-0.1532 0.193,-0.279 0.304,-0.4149 0.152,-0.1883 0.691,-0.4781 0.798,-0.0859 0.096,0.3566 -0.291,0.6058 -0.535,0.7797 -0.236,0.1703 -0.618,0.2171 -0.902,0.2043 -0.053,-0.0024 -0.078,-0.075 -0.028,-0.1024 v 0"
         style="fill:#574e87;fill-opacity:1;fill-rule:nonzero;stroke:none;stroke-width:0.1"
         id="path958" />
      <path
         d="m 322.271,91.5672 c -0.012,-0.3621 0.131,-0.625 0.305,-0.9332 0.122,-0.2192 0.42,-0.636 0.72,-0.4602 0.532,0.3121 -0.564,1.3231 -0.815,1.5141 -0.089,0.068 -0.208,-0.0258 -0.21,-0.1207 v 0"
         style="fill:#574e87;fill-opacity:1;fill-rule:nonzero;stroke:none;stroke-width:0.1"
         id="path960" />
      <path
         d="m 322.703,88.5801 c 0.055,-0.1922 0.155,-0.4571 0.374,-0.4949 0.078,-0.0133 0.146,0.0457 0.127,0.1269 -0.037,0.1641 -0.171,0.277 -0.219,0.4457 -0.05,0.1801 -0.334,0.1031 -0.282,-0.0777 v 0"
         style="fill:#574e87;fill-opacity:1;fill-rule:nonzero;stroke:none;stroke-width:0.1"
         id="path962" />
      <path
         d="m 277.699,130.935 c 0.534,0.051 1.022,0.22 1.096,0.815 -0.024,-0.087 -0.048,-0.175 -0.071,-0.264 0.27,0.397 0.021,0.83 -0.453,0.788 0.088,-0.024 0.176,-0.048 0.264,-0.071 -0.339,0.199 -0.658,0.049 -1.002,-0.035 -0.678,-0.165 -0.547,-1.3 0.166,-1.233 v 0"
         style="fill:#699355;fill-opacity:1;fill-rule:nonzero;stroke:none;stroke-width:0.1"
         id="path1926" />
    </g>
  </g>
</svg>
