<?xml version="1.0" encoding="UTF-8" standalone="no"?>
<svg
   xmlns:dc="http://purl.org/dc/elements/1.1/"
   xmlns:cc="http://creativecommons.org/ns#"
   xmlns:rdf="http://www.w3.org/1999/02/22-rdf-syntax-ns#"
   xmlns:svg="http://www.w3.org/2000/svg"
   xmlns="http://www.w3.org/2000/svg"
   id="svg5769"
   version="1.1"
   viewBox="0 0 29.797634 44.455471"
   height="44.455471mm"
   width="29.797634mm">
  <defs
     id="defs5763" />
  <metadata
     id="metadata5766">
    <rdf:RDF>
      <cc:Work
         rdf:about="">
        <dc:format>image/svg+xml</dc:format>
        <dc:type
           rdf:resource="http://purl.org/dc/dcmitype/StillImage" />
        <dc:title></dc:title>
      </cc:Work>
    </rdf:RDF>
  </metadata>
  <g
     id="layer1">
    <g
       transform="matrix(0.35277777,0,0,-0.35277777,-104.29661,109.72741)"
       id="g5950">
      <path
         d="m 335.235,297.287 c 0.015,0.336 0.213,0.659 0.507,0.823 -0.063,2.345 -1.755,4.491 -4.045,4.998 -1.298,0.288 -2.241,0.267 -3.367,0.975 -1.206,0.757 -2.15,2.131 -2.32,3.545 -0.108,0.899 -0.154,1.831 -0.357,2.707 -0.182,0.79 -1.222,0.956 -1.676,0.285 -1.125,-1.667 -1.189,-4.08 0.054,-5.695 0.46,-0.596 1.801,-1.44 1.811,-2.193 -1.561,0.346 -3.985,0.215 -5.205,-0.828 -0.349,-0.298 -0.524,-0.78 -0.385,-1.216 0.188,-0.596 0.745,-0.659 1.24,-0.695 0.914,-0.066 1.827,-0.133 2.74,-0.199 -0.819,-0.262 -1.602,-0.638 -2.32,-1.113 -0.419,-0.277 -0.842,-0.62 -0.717,-1.277 0.085,-0.444 0.429,-0.801 0.851,-0.963 1.249,-0.478 2.514,0.324 3.735,0.049 -0.448,-0.062 -0.592,-0.712 -0.332,-1.082 0.261,-0.371 0.74,-0.508 1.187,-0.581 3.109,-0.507 5.747,1.125 8.599,2.46"
         style="fill:#5c7f5e;fill-opacity:1;fill-rule:nonzero;stroke:none;stroke-width:0.1"
         id="path2348" />
      <path
         d="m 337.808,298.585 c -0.61,1.648 -0.008,3.542 1.48,4.476 1.993,1.251 4.9,1.671 6.886,3.226 1.162,0.909 2.041,2.716 3.278,3.594 0.474,0.336 1.114,0.204 1.428,-0.284 0.324,-0.504 0.203,-0.933 -0.228,-1.818 -1.208,-2.488 -2.876,-3.024 -4.558,-4.229 1.125,-0.126 2.33,-0.283 3.071,-1.242 0.43,-0.557 0.506,-1.348 0.07,-1.901 -0.682,-0.869 -1.964,-0.455 -2.947,-0.815 0.87,0.032 1.713,-0.4 2.274,-1.062 0.606,-0.717 0.195,-1.851 -0.735,-1.98 -0.848,-0.117 -1.716,-0.081 -2.55,0.111 0.473,-0.284 1.015,-0.721 0.888,-1.256 -0.124,-0.524 -0.78,-0.68 -1.315,-0.737 -1.555,-0.163 -3.229,-0.302 -4.581,0.481 -1.238,0.717 -1.955,2.073 -2.453,3.413 -0.003,0.008 -0.005,0.016 -0.008,0.023"
         style="fill:#5c7f5e;fill-opacity:1;fill-rule:nonzero;stroke:none;stroke-width:0.1"
         id="path2350" />
      <path
         d="m 364.089,191.499 c 6.256,3.602 9.117,7.43 11.374,12.133 2.275,4.739 2.968,9.281 3.832,12.08 1.305,4.225 0.777,8.769 0.238,13.158 -0.284,2.308 -0.268,3.467 -1.037,5.663 -0.544,1.555 -1.298,4.808 -2.085,6.255 -1.993,3.662 -5.119,7.205 -9.668,10.427 -6.169,4.369 -11.444,5.022 -18.285,8.237 -1.961,0.921 -3.187,2.98 -3.669,5.092 -0.482,2.112 -0.334,4.308 -0.232,6.472 0.356,7.596 0.095,15.221 -0.781,22.775 -0.156,1.346 0.342,3.135 -0.73,3.965 -0.808,0.624 -2.646,0.419 -3.665,0.459 -2.885,0.114 -5.78,-0.018 -8.643,-0.393 -0.798,-0.104 -1.487,0.567 -2.124,0.076 -1.095,-0.846 -1.083,-4.235 -0.995,-5.616 0.711,-11.161 1.059,-19.814 -0.823,-27.959 -0.506,-2.189 -2.568,-3.733 -4.412,-5.015 -1.845,-1.283 -3.894,-2.235 -5.856,-3.329 -6.271,-3.494 -11.698,-8.49 -15.698,-14.451 -2.682,-3.996 -5.096,-11.852 -5.178,-16.664 -0.13,-7.657 1.327,-12.322 3.223,-17.82 1.954,-5.667 4.991,-8.88 6.211,-10.309 0.651,-0.762 1.402,-1.433 2.162,-2.088 3.986,-3.439 8.375,-6.57 13.396,-8.157 5.06,-1.601 10.477,-1.548 15.783,-1.396 10.202,0.294 18.816,1.313 27.662,6.405"
         style="fill:#8caa61;fill-opacity:1;fill-rule:nonzero;stroke:none;stroke-width:0.1"
         id="path2352" />
      <path
         d="m 329.587,299.019 c -0.69,-0.127 -1.265,-0.731 -1.357,-1.427 -0.029,-0.224 -0.008,-0.467 0.121,-0.653 0.128,-0.187 0.875,-0.405 1.066,-0.444 4.273,-0.877 8.774,-1.744 12.929,-0.414 0.61,0.196 1.296,0.546 1.383,1.181 0.063,0.453 -0.229,0.898 -0.612,1.148 -0.384,0.251 -0.846,0.345 -1.296,0.429 -2.982,0.555 -6.013,0.846 -9.048,0.87 -1.199,0.009 -2.006,-0.472 -3.186,-0.69"
         style="fill:#30284f;fill-opacity:1;fill-rule:nonzero;stroke:none;stroke-width:0.1"
         id="path2354" />
      <path
         d="m 345.243,250.45 c 1.963,-0.297 3.893,-0.82 5.736,-1.557 0.94,-0.375 1.876,-0.81 2.883,-0.909 1.891,-0.187 3.763,0.896 4.852,2.452 0.308,0.441 0.567,0.927 0.685,1.452 0.424,1.881 -1.263,3.832 -3.185,3.987 -1.922,0.156 -3.766,-1.216 -4.504,-2.998 -0.738,-1.781 -0.503,-3.856 0.27,-5.622 0.347,-0.791 0.818,-1.56 1.526,-2.053 1.531,-1.066 5.432,-0.45 7.028,0.516 1.328,0.803 2.661,2.642 3.128,4.123 -1.238,-2.464 -6.446,-4.002 -9.008,-2.981 -0.531,0.212 -1.055,0.532 -1.319,1.04 -0.179,0.344 -0.222,0.739 -0.261,1.123 -0.114,1.103 -0.221,2.259 0.196,3.286 0.417,1.029 1.541,1.861 2.607,1.557 0.387,-0.111 0.753,-0.398 0.825,-0.793 0.029,-0.161 0.009,-0.327 -0.024,-0.487 -0.266,-1.277 -1.416,-2.318 -2.713,-2.455 -1.222,-0.13 -2.395,0.465 -3.452,1.089 -1.515,0.894 -2.986,1.894 -4.637,2.495 -1.652,0.602 -3.558,0.764 -5.129,-0.024 -2.066,-1.035 -3.346,-3.567 -5.637,-3.871 -1.394,-0.186 -2.742,0.547 -3.879,1.376 -1.136,0.828 -2.221,1.8 -3.565,2.217 0.03,0.227 -0.145,0.71 -0.119,0.938 0.041,0.377 0.188,0.735 0.239,1.111 0.052,0.376 -0.016,0.806 -0.315,1.039 -0.314,0.245 -0.783,0.186 -1.117,-0.031 -0.332,-0.218 -0.559,-0.56 -0.776,-0.893 -0.293,-0.449 -0.587,-0.899 -0.88,-1.348 -0.136,0.53 -0.273,1.06 -0.41,1.59 -0.13,0.507 -0.314,1.08 -0.794,1.29 -0.561,0.246 -1.218,-0.171 -1.526,-0.701 -0.309,-0.531 -0.396,-1.159 -0.634,-1.724 -0.468,0.319 -0.935,0.638 -1.402,0.958 -0.129,0.087 -0.265,0.178 -0.42,0.198 -0.49,0.062 -0.764,-0.65 -0.511,-1.073 0.252,-0.424 0.636,-0.915 1.108,-1.055 -2.656,-0.768 -5.108,-2.23 -7.046,-4.203 -0.717,-0.729 -1.407,-1.667 -1.25,-2.678 0.165,-1.051 1.213,-1.76 2.255,-1.974 0.417,-0.086 0.871,-0.109 1.251,0.085 0.38,0.194 0.644,0.662 0.488,1.058 -0.674,-0.176 -1.485,-0.321 -1.992,0.159 -0.406,0.385 -0.427,1.056 -0.181,1.56 0.246,0.503 0.704,0.868 1.175,1.173 1.68,1.093 3.711,1.639 5.712,1.536 2.931,-0.15 6.148,-0.682 8.668,-2.183 0.904,-0.538 1.759,-1.166 2.721,-1.59 1.874,-0.825 4.107,-0.791 5.954,0.09 2.36,1.124 4.795,4.095 7.379,3.705"
         style="fill:#5c7f5e;fill-opacity:1;fill-rule:nonzero;stroke:none;stroke-width:0.1"
         id="path2356" />
      <path
         d="m 307.267,213.297 c 1.394,-2.262 5.046,-1.6 7.046,-3.351 1.146,-1.004 1.529,-2.627 1.587,-4.15 0.059,-1.521 -0.14,-3.059 0.118,-4.56 0.257,-1.502 1.112,-3.034 2.555,-3.52 -0.957,-1.006 -1.516,-2.38 -1.537,-3.768 1.343,-0.067 2.693,0.679 3.351,1.851 0.188,-0.747 -0.567,-1.645 -0.071,-2.235 0.328,-0.389 1,-0.267 1.34,0.111 0.34,0.378 0.436,0.908 0.518,1.409 -0.111,-0.673 -0.216,-1.399 0.088,-2.011 0.303,-0.612 1.198,-0.964 1.69,-0.49 0.363,0.351 0.343,0.963 0.681,1.339 0.485,0.539 1.378,0.301 1.999,-0.074 0.621,-0.375 1.287,-0.868 1.995,-0.708 0.791,0.178 1.188,1.153 1.004,1.943 -0.186,0.79 -0.783,1.412 -1.397,1.944 -1.52,1.319 -3.289,2.352 -5.185,3.028 -0.978,0.35 -2.087,0.68 -2.598,1.584 -0.198,0.352 -0.28,0.754 -0.353,1.151 -0.435,2.349 -0.647,4.74 -0.632,7.129 0.007,1.115 0.031,2.331 -0.654,3.209 -0.617,0.79 -1.651,1.099 -2.617,1.364 -1.454,0.398 -5.85,-0.197 -5.709,4.496 0.059,1.94 0.02,3.359 -0.063,5.299 -0.074,1.722 -1.053,3.372 -2.507,4.298 -1.453,0.928 -3.34,1.123 -4.968,0.555 -0.962,-0.335 -1.88,-0.982 -2.237,-1.936 -0.596,-1.584 0.579,-3.338 2.029,-4.209 0.761,-0.457 1.698,-0.769 2.531,-0.465 0.781,0.285 1.289,1.044 1.601,1.813 0.831,2.048 0.599,4.494 -0.603,6.349 -1.203,1.854 -3.342,3.065 -5.55,3.142 3.332,-0.969 5.512,-4.834 4.621,-8.186 -0.091,-0.339 -0.213,-0.681 -0.451,-0.939 -0.66,-0.717 -2.028,-0.362 -2.391,0.542 -0.363,0.904 0.209,2.012 1.104,2.399 0.893,0.388 1.977,0.136 2.745,-0.464 0.767,-0.6 1.253,-1.499 1.548,-2.427 0.841,-2.654 0.256,-5.536 -0.501,-8.216 -0.298,-1.054 -0.703,-2.312 -0.127,-3.246"
         style="fill:#5c7f5e;fill-opacity:1;fill-rule:nonzero;stroke:none;stroke-width:0.1"
         id="path2358" />
      <path
         d="m 368.372,208.437 c -0.064,1.379 0.023,2.765 0.259,4.125 0.134,0.768 0.323,1.549 0.761,2.194 0.341,0.502 0.816,0.898 1.296,1.269 1.819,1.404 3.822,2.569 5.94,3.458 0.404,0.169 0.822,0.335 1.142,0.635 0.494,0.464 0.669,1.237 0.424,1.87 -0.245,0.633 -0.895,1.086 -1.574,1.097 0.735,-0.134 1.522,0.451 1.604,1.194 0.082,0.743 -0.558,1.486 -1.304,1.515 0.723,0.337 1.565,0.864 1.508,1.66 -0.487,0.373 -1.126,0.538 -1.733,0.448 -0.221,1.542 -0.571,3.065 -1.044,4.55 -0.123,0.385 -0.262,0.782 -0.553,1.063 -0.29,0.281 -0.776,0.402 -1.103,0.166 0.222,-1.997 0.443,-3.994 0.664,-5.991 -0.909,1.188 -2.143,2.126 -3.531,2.684 -0.396,0.16 -0.973,0.216 -1.127,-0.181 -0.087,-0.223 0.024,-0.469 0.132,-0.684 1.074,-2.155 1.846,-4.46 2.287,-6.827 0.184,-0.988 -0.684,-1.554 -1.455,-2.197 -0.772,-0.643 -1.716,-1.032 -2.603,-1.504 -1.815,-0.969 -3.499,-2.424 -4.123,-4.385 -0.926,-2.912 0.564,-6.534 -1.367,-8.902 -0.924,-1.134 -2.399,-1.626 -3.783,-2.102 -2.205,-0.757 -4.429,-1.632 -6.187,-3.163 -1.757,-1.53 -2.992,-3.844 -2.669,-6.152 0.08,-0.568 0.256,-1.135 0.607,-1.588 1.077,-1.394 3.437,-1.115 4.645,0.167 0.527,0.558 0.909,1.336 0.736,2.084 -0.243,1.054 -1.431,1.581 -2.497,1.76 -2.242,0.373 -4.616,-0.123 -6.52,-1.364 -1.903,-1.24 -3.317,-3.211 -3.881,-5.412 1.983,3.342 5.547,5.529 9.43,5.678 0.359,0.014 0.737,0.007 1.052,-0.168 0.74,-0.411 0.668,-1.66 -0.053,-2.105 -0.72,-0.447 -1.75,-0.111 -2.218,0.595 -0.468,0.706 -0.438,1.658 -0.098,2.434 0.339,0.776 0.95,1.401 1.597,1.946 1.814,1.526 4.033,2.564 6.366,2.976 1.588,0.28 3.253,0.284 4.734,0.924 2.418,1.045 4.361,3.601 4.239,6.233"
         style="fill:#5c7f5e;fill-opacity:1;fill-rule:nonzero;stroke:none;stroke-width:0.1"
         id="path2360" />
      <path
         d="m 338.947,187.478 c 0.102,0.133 0.238,-0.196 0.075,-0.24 -0.161,-0.045 -0.3,0.115 -0.391,0.256 -0.643,0.985 -31.023,45.423 -31.844,46.187 -2.026,1.884 -4.078,3.795 -6.104,5.679 6.534,0.749 13.067,1.499 19.601,2.248 2.634,0.302 27.479,1.068 33.425,1.124 6.561,0.061 13.414,0.09 20.742,-1.671 -2.328,-3.052 -3.674,-6.618 -6.002,-9.671 -1.057,-1.388 -25.003,-35.605 -26.707,-40.255 -0.573,-1.564 -1.175,-3.29 -2.607,-4.141 0.02,0.28 -0.208,0.204 -0.188,0.484"
         style="fill:#f5dba3;fill-opacity:1;fill-rule:nonzero;stroke:none;stroke-width:0.1"
         id="path2362" />
      <path
         d="m 370.071,237.951 c -1.884,0.6 -3.812,-0.927 -4.811,-2.634 -0.999,-1.708 -1.527,-3.716 -2.864,-5.175 -0.839,-0.917 -1.975,-1.489 -3.093,-2.036 -0.786,-0.384 -1.251,-0.057 -2.039,-0.019 -1.951,0.095 -3.998,1.282 -3.958,3.234 0.039,1.952 1.835,3.69 3.787,3.69 0.655,0.001 1.345,-0.193 1.783,-0.68 0.548,-0.61 0.581,-1.52 0.495,-2.336 -0.296,-2.787 -1.678,-5.444 -3.789,-7.287 -2.111,-1.842 -4.756,-3.735 -7.344,-2.66 -1.851,0.77 -3.704,1.54 -5.555,2.31 0.279,0.923 1.34,1.345 2.293,1.5 0.951,0.155 1.992,0.199 2.735,0.814 -1.361,1.101 -2.991,1.866 -4.708,2.209 1.817,1.42 4.049,2.181 6.234,2.919 -1.989,0.86 -4.781,0.857 -6.902,0.41 -0.052,1.701 1.158,3.974 2.417,5.119 0.894,0.813 2.133,1.564 4.266,2.701 -6.54,0 -8.146,-3.073 -9.498,-6.238 -1.352,-3.166 -1.172,-6.805 -0.296,-10.133 -1.918,-0.433 -3.795,-0.577 -5.419,-1.685 -0.1,2.394 1.136,3.412 -1.138,6.682 -0.606,0.872 -1.97,1.625 -1.732,2.66 0.381,1.667 2.801,2.054 3.473,3.627 -1.612,-0.206 -3.224,-0.411 -4.838,-0.617 -0.29,-0.037 -0.591,-0.073 -0.868,0.02 -0.352,0.118 -0.603,0.421 -0.875,0.675 -1.187,1.112 -2.978,1.386 -4.574,1.071 -1.596,-0.315 -3.039,-1.143 -4.413,-2.012 -0.789,-0.499 -1.667,-1.228 -1.525,-2.149 0.039,-0.251 0.326,-0.295 0.579,-0.315 1.117,-0.088 2.239,0.039 3.36,0.079 1.12,0.041 2.27,-0.011 3.309,-0.432 1.039,-0.423 1.957,-1.274 2.207,-2.367 0.25,-1.093 -0.332,-2.386 -1.403,-2.717 -0.412,-0.128 -0.853,-0.112 -1.283,-0.078 -0.989,0.078 -1.97,0.245 -2.937,0.467 -0.939,0.217 -1.866,0.486 -2.775,0.806 0.127,-1.659 1.342,-3.09 2.815,-3.864 1.473,-0.773 3.174,-0.983 4.837,-1.041 -0.059,-2.079 -0.587,-3.607 -0.04,-5.614 0.427,-1.565 1.551,-2.174 1.674,-2.478 0.245,-0.609 -0.536,-1.645 -0.963,-2.924 -0.318,-0.956 -1.436,-1.697 -1.422,-2.703 0,0 1.988,-0.324 2.417,0 0.43,0.326 0.446,1.902 0.788,2.317 1.469,1.788 4.579,1.768 6.89,1.665 2.312,-0.105 4.188,1.639 5.829,3.269 -0.042,-0.552 0.335,-2.602 0.854,-3.269 0.995,-1.279 2.43,0.144 3.019,-0.736 0.518,-0.772 -0.174,-1.813 -0.974,-2.286 -0.801,-0.472 -2.695,-0.649 -2.318,-1.5 0.459,-1.037 2.269,-0.284 3.387,-0.1 1.119,0.183 2.231,0.742 2.816,1.713 0.407,0.671 0.528,1.469 0.78,2.213 0.904,2.669 3.391,4.422 5.685,6.061 2.294,1.64 3.837,2.992 5.235,5.441 1.671,2.927 2.146,4.644 2.719,6.78 0.496,1.849 0.659,4.051 -0.641,5.455 -1.012,1.095 -2.626,1.373 -4.116,1.394 -0.917,0.013 -1.846,-0.051 -2.716,-0.337 -1.92,-0.63 -3.414,-2.404 -3.71,-4.403 -0.296,-1.998 0.622,-4.129 2.277,-5.287 1.167,-0.816 2.621,-1.149 4.046,-1.163 2.533,-0.026 4.705,0.54 6.265,2.537 1.118,1.433 2.063,3.684 2.81,5.342 0.746,1.657 1.72,3.557 3.456,4.095"
         style="fill:#ba422a;fill-opacity:1;fill-rule:nonzero;stroke:none;stroke-width:0.1"
         id="path2364" />
      <path
         d="m 330.979,297.642 c 0.01,-0.364 0.232,-0.685 0.565,-0.83 0.536,-0.234 1.403,-0.59 2.331,-0.691 1.3,-0.142 4.994,-0.161 6.714,0.303 0.385,0.104 0.665,0.429 0.731,0.822 0.104,0.612 0.018,1.268 0.044,1.903 0.025,0.58 -0.03,1.16 -0.021,1.74 0.012,0.888 -0.165,2.107 -0.003,2.981 -3.262,0.198 -6.709,0.026 -10.166,0 -0.265,-0.613 -0.309,-1.395 -0.284,-2.062 0.048,-1.297 0.053,-2.811 0.089,-4.166"
         style="fill:#d4af64;fill-opacity:1;fill-rule:nonzero;stroke:none;stroke-width:0.1"
         id="path2366" />
      <path
         d="m 341.445,303.676 c -0.014,0.637 -0.803,0.912 -1.435,1.003 -2.91,0.416 -5.979,0.532 -8.689,-0.609 -0.281,-0.118 -0.716,-0.556 -0.005,-1.053 2.559,-0.499 2.911,-0.356 4.976,-0.356 1.849,0 2.916,-0.161 3.906,-10e-4 0.579,0.094 1.26,0.429 1.247,1.016"
         style="fill:#f5dba3;fill-opacity:1;fill-rule:nonzero;stroke:none;stroke-width:0.1"
         id="path2368" />
      <path
         d="m 324.024,234.201 c 10e-4,-0.023 10e-4,-0.046 0.002,-0.069 0.005,-0.327 0.209,-0.544 0.5,-0.656 0.137,-0.054 0.276,-0.038 0.415,-0.004 0.3,0.071 0.544,0.448 0.427,0.752 -0.004,0.011 -0.009,0.022 -0.013,0.034 0,-0.115 0,-0.229 0,-0.344 0.023,0.095 0.035,0.189 0.03,0.287 -0.022,0.37 -0.294,0.68 -0.68,0.68 -0.366,0 -0.686,-0.309 -0.681,-0.68 v 0"
         style="fill:#30284f;fill-opacity:1;fill-rule:nonzero;stroke:none;stroke-width:0.1"
         id="path2370" />
      <path
         d="m 322.003,251.271 c 0.723,0 0.723,1.12 0,1.12 -0.722,0 -0.722,-1.12 0,-1.12 v 0"
         style="fill:#30284f;fill-opacity:1;fill-rule:nonzero;stroke:none;stroke-width:0.1"
         id="path2372" />
      <path
         d="m 321.803,197.009 c 0.17,-0.227 0.387,-0.437 0.7,-0.399 0.476,0.056 0.777,0.487 0.542,0.943 -0.007,0.013 -0.014,0.027 -0.021,0.04 0.03,-0.111 0.06,-0.222 0.09,-0.332 0.001,0.016 0.003,0.031 0.005,0.047 -0.031,-0.116 -0.062,-0.231 -0.094,-0.348 0.011,0.017 0.022,0.034 0.032,0.049 0.302,0.47 -0.095,1.094 -0.627,1.094 -0.503,0 -0.969,-0.637 -0.627,-1.094 v 0"
         style="fill:#30284f;fill-opacity:1;fill-rule:nonzero;stroke:none;stroke-width:0.1"
         id="path2374" />
      <path
         d="m 374.61,224.408 c 0.894,0 0.894,1.386 0,1.386 -0.894,0 -0.894,-1.386 0,-1.386 v 0"
         style="fill:#30284f;fill-opacity:1;fill-rule:nonzero;stroke:none;stroke-width:0.1"
         id="path2376" />
      <path
         d="m 319.585,230.222 c 0.302,0.235 0.449,0.597 0.517,0.963 0.047,0.267 0.041,0.775 -0.297,0.875 -0.354,0.105 -0.677,-0.234 -0.834,-0.5 -0.223,-0.378 -0.251,-0.879 -0.015,-1.258 0.149,-0.237 0.424,-0.241 0.629,-0.08 v 0"
         style="fill:#ffffff;fill-opacity:1;fill-rule:nonzero;stroke:none;stroke-width:0.1"
         id="path2378" />
      <path
         d="m 321.014,230.251 c 0.412,0.282 0.743,0.674 0.969,1.119 0.079,0.155 0.067,0.336 -0.059,0.463 -0.024,0.023 -0.051,0.042 -0.078,0.059 -0.154,0.103 -0.332,0.044 -0.462,-0.059 -0.391,-0.311 -0.699,-0.76 -0.801,-1.251 -0.048,-0.231 0.202,-0.487 0.431,-0.331 v 0"
         style="fill:#ffffff;fill-opacity:1;fill-rule:nonzero;stroke:none;stroke-width:0.1"
         id="path2380" />
      <path
         d="m 322.733,230.086 c 0.396,0.272 0.804,0.483 0.98,0.957 0.072,0.193 -0.016,0.419 -0.149,0.561 -0.033,0.036 -0.073,0.066 -0.116,0.09 -0.169,0.092 -0.416,0.12 -0.582,0 -0.423,-0.307 -0.514,-0.759 -0.602,-1.247 -0.046,-0.25 0.215,-0.535 0.469,-0.361 v 0"
         style="fill:#ffffff;fill-opacity:1;fill-rule:nonzero;stroke:none;stroke-width:0.1"
         id="path2382" />
      <path
         d="m 324.889,229.894 c 0.14,0.128 0.325,0.198 0.492,0.284 0.236,0.12 0.387,0.231 0.539,0.453 0.216,0.316 -0.068,0.794 -0.442,0.773 -0.728,-0.041 -0.998,-0.687 -1.034,-1.326 -0.012,-0.239 0.287,-0.327 0.445,-0.184 v 0"
         style="fill:#ffffff;fill-opacity:1;fill-rule:nonzero;stroke:none;stroke-width:0.1"
         id="path2384" />
      <path
         d="m 319.537,227.661 c -0.025,-0.29 -0.082,-0.595 -0.045,-0.885 0.062,-0.487 0.696,-0.487 0.757,0 0.036,0.29 -0.02,0.595 -0.045,0.885 -0.038,0.429 -0.629,0.429 -0.667,0 v 0"
         style="fill:#ffffff;fill-opacity:1;fill-rule:nonzero;stroke:none;stroke-width:0.1"
         id="path2386" />
      <path
         d="m 321.025,227.234 c 0.042,0.08 0.043,0.093 0.005,0.036 -0.06,-0.081 -0.058,-0.195 -0.059,-0.291 -0.003,-0.178 -0.022,-0.329 0.002,-0.508 0.068,-0.539 0.738,-0.65 0.94,-0.128 0.108,0.28 0.083,0.537 -0.05,0.802 -0.05,0.102 -0.142,0.222 -0.242,0.28 -0.087,0.051 -0.172,0.035 -0.258,0.066 -0.149,0.054 -0.359,-0.091 -0.338,-0.257 v 0"
         style="fill:#ffffff;fill-opacity:1;fill-rule:nonzero;stroke:none;stroke-width:0.1"
         id="path2388" />
      <path
         d="m 323.08,227.152 c -0.254,-0.302 -0.591,-0.675 -0.541,-1.104 0.063,-0.541 0.715,-0.621 0.922,-0.124 0.12,0.288 0.042,0.645 0.099,0.949 0.046,0.255 -0.278,0.519 -0.48,0.279 v 0"
         style="fill:#ffffff;fill-opacity:1;fill-rule:nonzero;stroke:none;stroke-width:0.1"
         id="path2390" />
      <path
         d="m 373.001,230.906 c 0.297,0.141 0.6,0.214 0.927,0.22 0.276,0.006 0.644,-0.008 0.843,0.213 0.071,0.08 0.083,0.179 0.035,0.275 -0.175,0.341 -0.656,0.326 -0.977,0.244 -0.4,-0.104 -0.768,-0.367 -1.061,-0.648 -0.168,-0.161 0.044,-0.394 0.233,-0.304 v 0"
         style="fill:#ffffff;fill-opacity:1;fill-rule:nonzero;stroke:none;stroke-width:0.1"
         id="path2392" />
      <path
         d="m 331.597,293.383 c 1.153,-1.637 3.239,-2.037 5.128,-2.099 1.575,-0.052 4.426,-0.03 5.058,1.753 0.09,0.253 -0.101,0.48 -0.321,0.565 -1.265,0.493 -2.916,-0.289 -4.226,-0.373 -1.772,-0.114 -3.589,0.135 -5.294,0.604 -0.243,0.067 -0.506,-0.222 -0.345,-0.45 v 0"
         style="fill:#f5dba3;fill-opacity:1;fill-rule:nonzero;stroke:none;stroke-width:0.1"
         id="path2394" />
      <path
         d="m 338.281,288.53 c -0.095,-0.184 -0.174,-0.371 -0.219,-0.572 -0.204,-0.899 0.428,-1.941 1.438,-1.888 0.042,0.005 0.084,0.006 0.127,0.003 0.492,-0.015 0.971,0.279 1.216,0.697 0.298,0.509 0.261,1.309 -0.22,1.708 -0.013,0.01 -0.025,0.02 -0.038,0.031 0.122,-0.21 0.245,-0.42 0.367,-0.629 -0.005,0.026 -0.01,0.052 -0.014,0.078 -0.084,0.48 -0.578,0.938 -1.042,1.042 0.093,-0.038 0.186,-0.076 0.279,-0.114 0.171,-0.17 0.341,-0.341 0.512,-0.512 -0.073,0.11 -0.054,0.055 0.055,-0.166 -0.17,0.452 -0.455,0.807 -0.94,0.941 -0.561,0.154 -1.243,-0.088 -1.521,-0.619 v 0"
         style="fill:#f5dba3;fill-opacity:1;fill-rule:nonzero;stroke:none;stroke-width:0.1"
         id="path2396" />
      <path
         d="m 339.933,264.522 c -1.724,-4.643 0.262,-11.003 5.506,-12.048 2.134,-0.425 3.04,2.848 0.901,3.265 -4.085,0.796 -3.893,5.66 -5.11,8.783 -0.246,0.631 -1.057,0.647 -1.297,0 v 0"
         style="fill:#f5dba3;fill-opacity:1;fill-rule:nonzero;stroke:none;stroke-width:0.1"
         id="path2398" />
    </g>
  </g>
</svg>
