<?xml version="1.0" encoding="UTF-8" standalone="no"?>
<svg
   xmlns:dc="http://purl.org/dc/elements/1.1/"
   xmlns:cc="http://creativecommons.org/ns#"
   xmlns:rdf="http://www.w3.org/1999/02/22-rdf-syntax-ns#"
   xmlns:svg="http://www.w3.org/2000/svg"
   xmlns="http://www.w3.org/2000/svg"
   width="32.168041mm"
   height="35.827335mm"
   viewBox="0 0 32.168041 35.827335"
   version="1.1"
   id="svg3758">
  <defs
     id="defs3752">
    <clipPath
       id="clipPath1668"
       clipPathUnits="userSpaceOnUse">
      <path
         id="path1666"
         d="m 971.461,3606.26 c -5.254,-34.4 -12.07,-68.57 -20.422,-102.36 -2.226,-9.03 -4.594,-18.1 -8.652,-26.47 -4.539,-9.36 -11.086,-17.6 -17.907,-25.47 -33.535,-38.68 -72.476,-72.22 -119.812,-91.72 -22.66,-9.34 -45.629,-18.76 -69.918,-22.05 -40.437,-5.48 -82.996,7.3 -113.727,34.15 -3.191,2.79 -6.445,5.82 -10.55,6.88 -3.836,0.98 -7.895,0.09 -11.707,-1.01 -11.739,-3.39 -22.821,-8.68 -34.196,-13.13 -49.554,-19.38 -105.422,-22.2 -156.683,-7.94 -51.262,14.27 -95.907,43.62 -127.422,86.49 -18.645,25.37 -33.645,53.66 -41.914,84.04 -8.27,30.37 -9.629,62.9 -1.66,93.35 4.308,16.5 11.371,32.98 9.363,49.91 -1.27,10.72 -6.117,20.66 -8.625,31.16 -2.973,12.38 -2.641,25.29 -1.914,38 0.199,3.45 -1.66,6.71 1.769,6.3 21.383,29.16 31.395,66.43 27.496,102.36 -3.894,35.95 -22.183,71.89 -49.316,95.78 29.574,-2.85 58.238,-14.62 81.289,-33.36 12.438,-10.11 23.777,-22.49 38.945,-27.67 -4.187,35.76 -8.375,71.52 -12.558,107.29 -1.465,12.53 -2.934,25.11 -2.457,37.71 0.469,12.2 2.762,24.26 5.062,36.25 2.973,15.47 5.981,30.93 9.344,46.31 7.731,35.34 19.277,73.17 48.848,94 -11.649,-44.47 0.254,-91.34 12.117,-135.76 2.668,-10 5.351,-20.03 9.539,-29.48 9.937,-22.46 27.785,-40.43 46.492,-56.35 -2.789,45.79 -0.258,93.46 11.153,137.89 4.566,17.78 9.937,36.74 16.539,53.86 5.062,13.14 10.836,25.99 17.195,38.55 26.59,52.42 65.422,100.93 118.387,126.41 -17.985,-35.12 -27.086,-74.75 -26.235,-114.2 0.328,-14.91 2.043,-29.75 3.867,-44.55 3.571,-28.91 7.575,-57.78 11.907,-86.6 5.117,-34.06 11.148,-69.23 30.218,-97.92 1.25,0.03 1.579,2.22 0.391,2.61 26.641,37.78 46.004,80.78 50.086,126.83 1.027,11.62 1.211,23.74 -3.344,34.47 17.957,-3.16 35.012,-11 49.906,-21.52 15.325,-10.82 30.676,-22.31 41.34,-37.75 4.512,-6.52 8.09,-13.64 11.649,-20.73 21.851,-43.64 43.523,-88.79 48.011,-137.4 -0.812,4.54 2.993,5.31 6.372,8.46 20.695,19.28 41.921,38.4 66.546,52.32 24.625,13.93 53.192,22.43 81.25,18.84 3.418,-0.44 7.133,-1.23 9.286,-3.93 -2.864,-1.33 -3.336,-3.13 -5.516,-5.42 -23.211,-24.46 -33.27,-58.79 -36.426,-92.36 -3.148,-33.58 -0.187,-67.42 -1.304,-101.12 -0.528,-15.91 -1.961,-31.8 -1.891,-47.73 0.242,-57.14 28.418,-109.73 19.789,-166.22 z" />
    </clipPath>
  </defs>
  <metadata
     id="metadata3755">
    <rdf:RDF>
      <cc:Work
         rdf:about="">
        <dc:format>image/svg+xml</dc:format>
        <dc:type
           rdf:resource="http://purl.org/dc/dcmitype/StillImage" />
        <dc:title></dc:title>
      </cc:Work>
    </rdf:RDF>
  </metadata>
  <g
     id="layer1">
    <g
       id="g3709"
       transform="matrix(0.35277777,0,0,-0.35277777,-4.9882789,153.54723)">
      <path
         id="path1660"
         style="fill:#ba422a;fill-opacity:1;fill-rule:nonzero;stroke:none;stroke-width:0.1"
         d="m 97.1461,360.626 c -0.5254,-3.44 -1.207,-6.857 -2.0422,-10.236 -0.2226,-0.903 -0.4594,-1.81 -0.8652,-2.647 -0.4539,-0.936 -1.1086,-1.76 -1.7907,-2.547 -3.3535,-3.868 -7.2476,-7.222 -11.9812,-9.172 -2.266,-0.934 -4.5629,-1.876 -6.9918,-2.205 -4.0437,-0.548 -8.2996,0.73 -11.3727,3.415 -0.3191,0.279 -0.6445,0.582 -1.055,0.688 -0.3836,0.098 -0.7895,0.009 -1.1707,-0.101 -1.1739,-0.339 -2.2821,-0.868 -3.4196,-1.313 -4.9554,-1.938 -10.5422,-2.22 -15.6683,-0.794 -5.1262,1.427 -9.5907,4.362 -12.7422,8.649 -1.8645,2.537 -3.3645,5.366 -4.1914,8.404 -0.827,3.037 -0.9629,6.29 -0.166,9.335 0.4308,1.65 1.1371,3.298 0.9363,4.991 -0.127,1.072 -0.6117,2.066 -0.8625,3.116 -0.2973,1.238 -0.2641,2.529 -0.1914,3.8 0.0199,0.345 -0.166,0.671 0.1769,0.63 2.1383,2.916 3.1395,6.643 2.7496,10.236 -0.3894,3.595 -2.2183,7.189 -4.9316,9.578 2.9574,-0.285 5.8238,-1.462 8.1289,-3.336 1.2438,-1.011 2.3777,-2.249 3.8945,-2.767 -0.4187,3.576 -0.8375,7.152 -1.2558,10.729 -0.1465,1.253 -0.2934,2.511 -0.2457,3.771 0.0469,1.22 0.2762,2.426 0.5062,3.625 0.2973,1.547 0.5981,3.093 0.9344,4.631 0.7731,3.534 1.9277,7.317 4.8848,9.4 -1.1649,-4.447 0.0254,-9.134 1.2117,-13.576 0.2668,-1 0.5351,-2.003 0.9539,-2.948 0.9937,-2.246 2.7785,-4.043 4.6492,-5.635 -0.2789,4.579 -0.0258,9.346 1.1153,13.789 0.4566,1.778 0.9937,3.674 1.6539,5.386 0.5062,1.314 1.0836,2.599 1.7195,3.855 2.659,5.242 6.5422,10.093 11.8387,12.641 -1.7985,-3.512 -2.7086,-7.475 -2.6235,-11.42 0.0328,-1.491 0.2043,-2.975 0.3867,-4.455 0.3571,-2.891 0.7575,-5.778 1.1907,-8.66 0.5117,-3.406 1.1148,-6.923 3.0218,-9.792 0.125,0.003 0.1579,0.222 0.0391,0.261 2.6641,3.778 4.6004,8.078 5.0086,12.683 0.1027,1.162 0.1211,2.374 -0.3344,3.447 1.7957,-0.316 3.5012,-1.1 4.9906,-2.152 1.5325,-1.082 3.0676,-2.231 4.134,-3.775 0.4512,-0.652 0.809,-1.364 1.1649,-2.073 2.1851,-4.364 4.3523,-8.879 4.8011,-13.74 -0.0812,0.454 0.2993,0.531 0.6372,0.846 2.0695,1.928 4.1921,3.84 6.6546,5.232 2.4625,1.393 5.3192,2.243 8.125,1.884 0.3418,-0.044 0.7133,-0.123 0.9286,-0.393 -0.2864,-0.133 -0.3336,-0.313 -0.5516,-0.542 -2.3211,-2.446 -3.327,-5.879 -3.6426,-9.236 -0.3148,-3.358 -0.0187,-6.742 -0.1304,-10.112 -0.0528,-1.591 -0.1961,-3.18 -0.1891,-4.773 0.0242,-5.714 2.8418,-10.973 1.9789,-16.622" />
      <g
         id="g1662"
         transform="scale(0.1)">
        <g
           clip-path="url(#clipPath1668)"
           id="g1664">
          <path
             id="path1670"
             style="fill:#a52713;fill-opacity:1;fill-rule:nonzero;stroke:none"
             d="m 278.313,3388.56 c -15.161,42.72 -24.196,89.8 -11.196,133.23 3.082,10.3 7.352,20.2 11.613,30.07 17.653,40.92 35.516,82.22 61.68,118.3 22.094,-45.87 43.188,-92.23 63.262,-139.02 8.777,-20.48 17.422,-41.16 29.394,-59.95 11.973,-18.79 27.586,-35.8 47.364,-46.07 9.558,-4.96 17.543,3.57 26.3,9.84 25.133,18.03 49.829,38.95 62.172,67.31 4.813,11.07 7.578,22.91 9.981,34.73 6.39,31.41 10.472,63.61 7.363,95.52 8.766,-19.13 13.664,-39.75 18.52,-60.22 3.464,-14.64 6.933,-29.26 10.402,-43.9 9.105,-38.42 18.234,-77.02 21.211,-116.39 0.676,-8.97 5.551,-16.6 14.512,-17.39 5.222,-0.46 10.027,2.67 14.207,5.83 29.175,22.1 51.226,52.97 64.8,86.96 13.575,33.98 18.868,70.99 17.665,107.57 -0.528,16.06 -2.282,32.08 -1.981,48.15 11.293,-4.51 21.258,-15.45 30.195,-23.69 17.481,-16.13 38.328,-26.83 57.559,-40.83 35.801,-26.07 49.16,-82.52 54.535,-85.75 19.242,23.61 33.027,60.87 45.02,88.88 17.73,41.39 37.339,77.68 46.191,121.83 8.598,0.41 8.672,2.65 12.078,-5.26 3.406,-7.91 3.473,-16.8 3.469,-25.41 -0.043,-65.81 -1.438,-132.72 -21.121,-195.53 -19.684,-62.81 -60.309,-121.96 -120.145,-149.38 -29.578,-13.56 -62.258,-18.79 -94.656,-21.78 -67.367,-6.23 -135.207,-3.38 -202.805,-0.54 -30.418,1.29 -60.886,2.58 -91.082,6.5 -49.882,6.49 -98.82,20.22 -144.797,40.63 -19.054,8.45 -40.062,21.49 -41.835,42.26 l 0.125,-6.5" />
        </g>
      </g>
      <path
         id="path1672"
         style="fill:#ba422a;fill-opacity:1;fill-rule:nonzero;stroke:none;stroke-width:0.1"
         d="m 14.5281,407.304 c -0.4914,-0.181 -0.4336,-0.889 -0.2738,-1.388 0.875,-2.731 2.1895,-5.577 4.7145,-6.937 1.25,-0.674 2.6851,-0.915 3.9941,-1.465 1.2605,-0.529 2.3984,-1.348 3.3008,-2.375 0.0234,2.761 -1.3848,5.495 -3.6449,7.079 -0.8801,0.616 -1.8661,1.061 -2.8086,1.576 -1.5399,0.842 -2.9723,1.878 -4.2532,3.078 -0.2867,0.269 -0.6601,0.568 -1.0289,0.432" />
      <path
         id="path1674"
         style="fill:#a52713;fill-opacity:1;fill-rule:nonzero;stroke:none;stroke-width:0.1"
         d="m 26.4098,401.761 c -0.7313,1.323 -1.4426,2.727 -1.4856,4.238 -0.0504,1.76 0.8086,3.404 1.6446,4.954 0.8453,1.567 1.6902,3.135 2.5351,4.702 -0.0496,-2.916 0.2109,-5.838 0.777,-8.699 0.2129,-1.077 0.4699,-2.151 0.5375,-3.246 0.1304,-2.095 -0.4571,-4.229 -1.6418,-5.962 -0.8262,1.315 -1.6161,2.654 -2.3668,4.013" />
      <path
         id="path1676"
         style="fill:#ba422a;fill-opacity:1;fill-rule:nonzero;stroke:none;stroke-width:0.1"
         d="m 21.9488,419.604 c 0.4653,-0.494 0.9067,-1.018 1.2325,-1.614 0.8367,-1.529 0.8343,-3.406 0.3714,-5.087 -0.4629,-1.68 -1.3472,-3.209 -2.2242,-4.715 -0.0797,1.685 -0.2543,3.365 -0.5226,5.03 -0.2059,1.276 -0.468,2.547 -0.9028,3.764 -0.8218,2.3 -2.2679,4.375 -4.1414,5.943 2.3988,-0.097 4.5406,-1.573 6.1871,-3.321" />
      <path
         id="path1678"
         style="fill:#ba422a;fill-opacity:1;fill-rule:nonzero;stroke:none;stroke-width:0.1"
         d="m 46.1395,423.356 c 0.432,0.973 0.5097,2.062 0.5203,3.126 0.009,0.985 -0.0364,1.977 -0.2668,2.934 -0.727,3.016 -3.4418,5.446 -6.5184,5.836 1.341,-2.243 2.8692,-4.502 3.1746,-7.097 0.4,-3.395 -1.3578,-6.948 -0.2125,-10.169 0.2488,2.112 2.4403,3.427 3.3028,5.37" />
      <path
         id="path1680"
         style="fill:#a52713;fill-opacity:1;fill-rule:nonzero;stroke:none;stroke-width:0.1"
         d="m 76.8191,430.02 c -3.7222,-3.211 -7.0984,-6.823 -10.0503,-10.753 -1.1133,-1.482 -2.1985,-3.088 -2.4407,-4.926 -0.3996,2.743 -0.7683,5.69 0.4817,8.165 0.3703,0.733 0.8718,1.394 1.416,2.01 2.6953,3.05 6.548,5.052 10.5933,5.504" />
      <path
         id="path1682"
         style="fill:#ba422a;fill-opacity:1;fill-rule:nonzero;stroke:none;stroke-width:0.1"
         d="m 84.1688,418.821 c 1.9074,-2.764 3.855,-5.62 4.5753,-8.9 0.7653,-3.487 0.011,-7.279 -2.0296,-10.207 0.3824,2.331 0.0843,4.768 -0.8473,6.939 -0.3383,0.789 -0.7582,1.542 -1.0942,2.332 -1.3074,3.07 -1.2921,6.57 -0.6042,9.836" />
      <path
         id="path1684"
         style="fill:#ba422a;fill-opacity:1;fill-rule:nonzero;stroke:none;stroke-width:0.1"
         d="m 98.5406,412.889 c 0.6707,0.173 1.3649,0.235 2.0554,0.297 1.576,0.142 3.153,0.284 4.729,0.425 -1.656,-1.347 -2.743,-3.252 -4.129,-4.876 -1.3855,-1.623 -3.3261,-3.053 -5.4519,-2.863 -0.9336,0.083 -1.9183,0.469 -2.7683,0.075 0.4262,3.117 2.5183,6.155 5.5648,6.942" />
      <path
         id="path1686"
         style="fill:#ffffff;fill-opacity:1;fill-rule:nonzero;stroke:none;stroke-width:0.1"
         d="m 27.1555,365.784 c -1.2535,1.691 -3.0524,2.886 -4.5387,4.379 -1.4863,1.491 -2.716,3.532 -2.3332,5.603 12.1527,1.064 21.7508,12.019 33.9133,12.963 4.3269,0.336 8.6414,-0.643 12.8336,-1.767 4.5996,-1.233 9.1968,-2.667 13.3117,-5.064 2.6258,-1.529 5.023,-3.433 7.6855,-4.896 3.3036,-1.815 6.9911,-2.926 10.7465,-3.238 -4.0191,-2.535 -8.0387,-5.071 -12.0586,-7.606 -1.9629,-1.238 -3.9312,-2.479 -6.0297,-3.47 -3.0945,-1.461 -6.4261,-2.355 -9.7738,-3.065 -10.0828,-2.141 -20.5535,-2.669 -30.7297,-1.027 -2.5027,0.403 -5.0023,0.943 -7.3402,1.924 -1.4484,0.609 -2.8586,1.41 -3.8734,2.61 -0.6922,0.818 -1.1754,1.792 -1.8133,2.654" />
      <path
         id="path1688"
         style="fill:#30284f;fill-opacity:1;fill-rule:nonzero;stroke:none;stroke-width:0.1"
         d="m 72.1184,367.414 c 1.3777,2.171 2.7957,4.46 2.9785,7.025 0.1047,1.476 -0.2106,2.947 -0.5242,4.393 -0.3329,1.536 -0.6926,3.131 -1.6633,4.368 -1.1114,1.415 -2.8696,2.158 -4.6043,2.634 -4.9461,1.359 -10.3321,1.046 -15.2973,-0.066 -3.7281,-0.836 -7.2519,-2.86 -8.366,-6.774 -0.257,-0.903 -0.3703,-1.84 -0.4598,-2.774 -0.3203,-3.334 -0.3074,-6.884 1.3571,-9.79 0.9371,-1.636 2.373,-2.981 4.0668,-3.807 5.3195,-2.598 11.4336,-3.253 16.7589,-0.668 2.4082,1.169 4.3192,3.198 5.7536,5.459" />
      <path
         id="path1690"
         style="fill:#63705f;fill-opacity:1;fill-rule:nonzero;stroke:none;stroke-width:0.1"
         d="m 61.0902,377.095 c -0.6414,0.253 -1.3031,0.487 -1.9922,0.534 -1.4156,0.096 -2.8503,-0.674 -3.5683,-1.898 -0.7176,-1.223 -0.693,-2.842 0.048,-4.052 0.7407,-1.21 2.1602,-1.966 3.5782,-1.924 0.566,0.016 1.123,0.151 1.6589,0.332 0.8438,0.286 1.6637,0.706 2.2672,1.361 0.6032,0.655 0.9633,1.574 0.7973,2.449 -0.0789,0.416 -0.2699,0.801 -0.4734,1.173 -0.2653,0.483 -0.5641,0.96 -0.9875,1.313 -0.3871,0.324 -0.8586,0.526 -1.3282,0.712" />
      <path
         id="path1692"
         style="fill:#ffffff;fill-opacity:1;fill-rule:nonzero;stroke:none;stroke-width:0.1"
         d="m 66.543,372.91 c -0.3953,0.551 -0.6575,1.198 -0.7559,1.87 -0.0824,0.566 -0.0527,1.147 -0.1875,1.702 -0.2555,1.05 -1.0566,1.863 -1.7285,2.709 -0.6715,0.848 -1.2637,1.916 -0.9941,2.963 0.325,1.262 1.8671,1.921 3.1335,1.615 0.9731,-0.235 1.8,-0.91 2.3711,-1.731 0.5715,-0.821 0.9094,-1.783 1.152,-2.753 0.2125,-0.847 0.3582,-1.718 0.3238,-2.59 -0.0453,-1.152 -0.4019,-2.267 -0.8164,-3.342 -0.1972,-0.511 -0.4758,-1.079 -1.0055,-1.219 -0.5777,-0.154 -1.1445,0.29 -1.4925,0.776" />
      <path
         id="path1694"
         style="fill:#d4af64;fill-opacity:1;fill-rule:nonzero;stroke:none;stroke-width:0.1"
         d="m 99.8727,373.704 c -3.2188,0.586 -6.2473,2.404 -8.8493,4.388 -2.6015,1.984 -5.3523,4.797 -7.8027,6.966 -1.2105,1.071 -6.3766,4.759 -12.2187,6.794 -3.8942,1.355 -7.3969,1.587 -12.2293,1.561 -4.0637,-0.022 -8.3832,-0.786 -12.1317,-2.356 -3.7484,-1.569 -7.1797,-3.823 -10.3601,-6.352 -0.9645,-0.767 -1.9079,-1.56 -2.9055,-2.283 -3.8457,-2.787 -8.3695,-4.445 -12.7563,-6.266 -0.1527,-0.063 -0.316,-0.136 -0.398,-0.279 -0.082,-0.144 0.0144,-0.218 0.1781,-0.238 4.9371,-0.787 13.5754,2.303 15.5254,3.193 6.468,2.952 13.7731,6.123 20.8102,7.138 2.3652,0.341 8.5679,0.266 15.4004,-2.756 2.5984,-1.15 5.2707,-2.124 7.8714,-3.266 5.0231,-2.206 7.3114,-4.749 14.8325,-6.144 1.6925,-0.314 2.6199,-0.282 4.323,-0.533 0.309,-0.045 0.4098,0.349 0.7106,0.433" />
      <path
         id="path1696"
         style="fill:#d4af64;fill-opacity:1;fill-rule:nonzero;stroke:none;stroke-width:0.1"
         d="m 98.9047,373.543 c -1.8672,-1.026 -3.7344,-2.052 -5.6016,-3.078 -5.0797,-2.791 -10.3515,-4.677 -15.9593,-6.142 -11.2254,-2.932 -23.0235,-3.171 -34.5071,-1.518 -4.6238,0.666 -7.5617,1.758 -13.1031,5.22 -2.5066,1.566 -5.8543,5.592 -7.8758,7.747 -0.95,1.014 -1.1269,-0.555 -1.5742,-0.006 3.4769,-8.055 8.6973,-15.127 16.2883,-19.527 1.789,-1.037 5.7969,-2.929 7.8469,-3.195 9.9945,-1.298 11.2511,-0.921 17.3285,-0.251 3.5886,0.396 7.1812,0.889 10.6566,1.871 10.2504,2.895 18.8578,9.85 26.4004,17.371 0.4766,0.475 0.9754,1.002 1.0684,1.669 -0.334,-0.067 -0.6696,0.003 -0.968,-0.161" />
      <path
         id="path1698"
         style="fill:#574e87;fill-opacity:1;fill-rule:nonzero;stroke:none;stroke-width:0.1"
         d="m 53.8285,383.792 c -3.8566,-0.632 -6.098,-5.321 -6.8722,-8.757 -0.9387,-4.166 2.0339,-8.509 6.3097,-8.883 0.6949,-0.061 1.0723,0.779 0.7723,1.327 -1.2106,2.209 -3.5817,3.513 -3.7801,6.222 -0.1852,2.525 1.552,7.504 4.0016,8.488 0.9882,0.397 0.6379,1.778 -0.4313,1.603 v 0" />
      <path
         id="path1700"
         style="fill:#30284f;fill-opacity:1;fill-rule:nonzero;stroke:none;stroke-width:0.1"
         d="m 40.8277,380.971 c 0.4852,3.27 -1.005,7.64 -3.4035,9.953 -0.4988,0.482 -1.1937,-0.113 -0.9222,-0.703 1.4113,-3.066 3.4484,-5.647 3.7519,-9.168 0.0266,-0.303 0.5219,-0.43 0.5738,-0.082 v 0" />
      <path
         id="path1702"
         style="fill:#30284f;fill-opacity:1;fill-rule:nonzero;stroke:none;stroke-width:0.1"
         d="m 38.3988,392.357 c -0.1004,0.382 -0.2593,0.634 -0.5179,0.928 0.1546,-0.27 0.3093,-0.54 0.4648,-0.809 -0.0023,0.012 -0.0051,0.023 -0.0074,0.035 -0.0629,-0.459 -0.1254,-0.918 -0.1883,-1.377 0.0063,0.015 0.0133,0.03 0.0195,0.045 0.2618,0.594 0.3543,1.18 0.0106,1.775 -0.3106,0.538 -0.8918,0.874 -1.5125,0.88 -0.8895,0.009 -1.7106,-0.571 -1.9258,-1.454 -0.2906,-1.192 0.5477,-2.404 1.8141,-2.412 1.2367,-0.007 2.1586,1.197 1.8429,2.389 v 0" />
      <path
         id="path1704"
         style="fill:#30284f;fill-opacity:1;fill-rule:nonzero;stroke:none;stroke-width:0.1"
         d="m 60.0598,384.195 c 0.6457,1.72 0.48,3.727 0.6007,5.543 0.1508,2.268 0.5157,4.482 0.995,6.7 0.2199,1.021 -1.2555,1.451 -1.5672,0.442 -0.6332,-2.047 -0.8512,-4.196 -1.0102,-6.325 -0.1519,-2.028 -0.4703,-4.404 0.2039,-6.355 0.1344,-0.388 0.6356,-0.383 0.7778,-0.005 v 0" />
      <path
         id="path1706"
         style="fill:#30284f;fill-opacity:1;fill-rule:nonzero;stroke:none;stroke-width:0.1"
         d="m 62.027,396.179 c 0.1722,0.092 0.3976,0.255 0.5152,0.372 0.1469,0.147 0.5676,0.664 0.1703,0.213 0.3793,0.43 0.5691,0.959 0.4152,1.533 -0.1797,0.67 -0.814,1.175 -1.5144,1.168 -0.0309,0 -0.061,-10e-4 -0.0918,-10e-4 0.2719,-0.075 0.5437,-0.151 0.816,-0.226 -0.1523,0.071 -0.3066,0.137 -0.4625,0.2 0.2797,-0.129 0.3367,-0.152 0.1715,-0.065 -1.2203,0.653 -2.7832,-0.132 -2.7922,-1.58 -0.0086,-1.439 1.5461,-2.263 2.7727,-1.614 v 0" />
      <path
         id="path1708"
         style="fill:#30284f;fill-opacity:1;fill-rule:nonzero;stroke:none;stroke-width:0.1"
         d="m 77.6086,380.987 c 1.4922,1.851 2.5961,3.888 4.4383,5.449 0.8886,0.752 1.966,0.943 2.9941,1.4 0.4535,0.202 0.4449,0.748 0.1426,1.053 -1.1926,1.208 -3.7742,-0.784 -4.6523,-1.527 -1.7098,-1.448 -3.1696,-3.801 -3.5286,-6.018 -0.05,-0.312 0.3493,-0.676 0.6059,-0.357 v 0" />
      <path
         id="path1710"
         style="fill:#30284f;fill-opacity:1;fill-rule:nonzero;stroke:none;stroke-width:0.1"
         d="m 83.8555,388.902 c 0.0066,-0.22 0.0211,-0.447 0.1008,-0.653 0.298,-0.77 0.8742,-1.347 1.7539,-1.352 0.8582,-0.006 1.4902,0.558 1.7703,1.33 -0.1371,-0.226 -0.2742,-0.453 -0.4121,-0.679 0.3316,0.403 0.5578,0.789 0.5609,1.331 0.0047,0.666 -0.3523,1.295 -0.9242,1.635 -1.1969,0.711 -2.893,-0.168 -2.8496,-1.612 v 0" />
      <path
         id="path1712"
         style="fill:#30284f;fill-opacity:1;fill-rule:nonzero;stroke:none;stroke-width:0.1"
         d="m 41.0785,363.135 c -3.6144,-1.897 -8.1742,-7.776 -6.3644,-12.089 0.1074,-0.256 0.4601,-0.143 0.5347,0.066 0.7282,2.049 0.6004,4.127 1.6313,6.143 1.1101,2.172 3.0347,3.562 4.607,5.344 0.2539,0.288 -0.0578,0.72 -0.4086,0.536 v 0" />
      <path
         id="path1714"
         style="fill:#30284f;fill-opacity:1;fill-rule:nonzero;stroke:none;stroke-width:0.1"
         d="m 34.9496,348.357 c 1.0555,-0.007 1.9414,0.868 1.9484,1.924 0.0063,1.055 -0.8691,1.941 -1.9246,1.948 -1.055,0.006 -1.9414,-0.869 -1.9476,-1.924 -0.0063,-1.056 0.8687,-1.942 1.9238,-1.948 v 0" />
      <path
         id="path1716"
         style="fill:#30284f;fill-opacity:1;fill-rule:nonzero;stroke:none;stroke-width:0.1"
         d="m 60.8871,363.979 c -1.6824,-2.435 -2.0508,-5.309 -2.1289,-8.206 -0.0883,-3.282 -0.257,-7.525 0.8539,-10.651 0.0922,-0.258 0.4426,-0.272 0.5332,-0.003 0.7985,2.362 0.177,5.343 0.025,7.785 -0.2172,3.497 -0.4828,7.606 1.1793,10.801 0.1609,0.309 -0.266,0.558 -0.4625,0.274 v 0" />
      <path
         id="path1718"
         style="fill:#30284f;fill-opacity:1;fill-rule:nonzero;stroke:none;stroke-width:0.1"
         d="m 59.6422,343.172 c 1.0414,-0.006 1.916,0.858 1.9223,1.899 0.0062,1.042 -0.8571,1.916 -1.8989,1.923 -1.0418,0.006 -1.916,-0.858 -1.9222,-1.899 -0.0067,-1.042 0.8574,-1.916 1.8988,-1.923 v 0" />
      <path
         id="path1720"
         style="fill:#30284f;fill-opacity:1;fill-rule:nonzero;stroke:none;stroke-width:0.1"
         d="m 77.491,364.115 c 1.034,-1.881 2.9926,-3.227 4.1176,-5.144 1.3937,-2.374 1.1957,-4.492 1.6156,-7.035 0.0403,-0.245 0.3571,-0.279 0.5141,-0.14 3.2715,2.888 -2.402,12.425 -6.068,12.627 -0.1601,0.009 -0.2508,-0.178 -0.1793,-0.308 v 0" />
      <path
         id="path1722"
         style="fill:#30284f;fill-opacity:1;fill-rule:nonzero;stroke:none;stroke-width:0.1"
         d="m 82.3586,350.411 c 0.4184,-0.767 1.3633,-1.324 2.2437,-0.991 0.5887,0.222 0.9122,0.542 1.1418,1.127 0.0739,0.171 0.1055,0.353 0.0957,0.546 0,0.023 0,0.046 0,0.07 -0.0781,0.589 -0.0832,0.644 -0.0156,0.164 -0.0332,1.2 -1.1422,2.127 -2.3394,1.805 -1.1789,-0.316 -1.6996,-1.671 -1.1262,-2.721 v 0" />
    </g>
  </g>
</svg>
