<?xml version="1.0" encoding="UTF-8" standalone="no"?>
<svg
   xmlns:dc="http://purl.org/dc/elements/1.1/"
   xmlns:cc="http://creativecommons.org/ns#"
   xmlns:rdf="http://www.w3.org/1999/02/22-rdf-syntax-ns#"
   xmlns:svg="http://www.w3.org/2000/svg"
   xmlns="http://www.w3.org/2000/svg"
   width="16.00172mm"
   height="31.760695mm"
   viewBox="0 0 16.00172 31.760695"
   version="1.1"
   id="svg3747">
  <defs
     id="defs3741" />
  <metadata
     id="metadata3744">
    <rdf:RDF>
      <cc:Work
         rdf:about="">
        <dc:format>image/svg+xml</dc:format>
        <dc:type
           rdf:resource="http://purl.org/dc/dcmitype/StillImage" />
        <dc:title></dc:title>
      </cc:Work>
    </rdf:RDF>
  </metadata>
  <g
     id="layer1">
    <g
       style="opacity:0.72"
       id="g3710"
       transform="matrix(0.35277777,0,0,-0.35277777,-3.5944031,37.998544)">
      <path
         id="path2400"
         style="fill:#30284f;fill-opacity:1;fill-rule:nonzero;stroke:none;stroke-width:0.1"
         d="m 54.8344,28.7871 c -8.0641,-2.2332 -16.477,-4.0551 -24.8227,-3.4543 -1.9672,0.1434 -3.9402,0.3672 -5.8375,0.9094 -2.2898,0.6558 -4.4215,1.7617 -6.6492,2.6039 -0.7434,0.2809 -1.5367,0.5371 -2.3203,0.4051 -1.8317,-0.3071 -3.0008,-0.6633 -3.0606,-2.5192 -0.1464,-4.5468 2.7872,-6.6922 5.1348,-7.6281 2.3477,-0.9379 5.6981,-1.318 8.2254,-1.3769 6.4566,-0.1489 12.9211,0.0742 19.3547,0.6441 2.6144,0.2309 5.1793,1.2348 7.3738,2.675 2.1945,1.441 3.625,5.323 2.6016,7.741" />
      <path
         id="path2402"
         style="fill:#30284f;fill-opacity:1;fill-rule:nonzero;stroke:none;stroke-width:0.1"
         d="m 17.3648,28.759 c -1.2996,-0.911 -2.914,-1.3629 -4.4976,-1.2602 -3.37306,12.3633 -2.718,22.2262 -2.1899,35.0293 0.4227,10.261 0.6922,23.7039 1.1153,33.966 1.084,0.6598 1.4125,0.1168 2.0426,-0.9863 0.6296,-1.1008 0.6355,-2.4418 0.5972,-3.7109 -0.5398,-17.952 0.0586,-29.416 0.4992,-50.541 0.0758,-3.6399 -0.1132,-10.1758 2.3196,-12.8848 0.4301,0.0371 0.3117,0.0039 0.1136,0.3879" />
      <path
         id="path2404"
         style="fill:#30284f;fill-opacity:1;fill-rule:nonzero;stroke:none;stroke-width:0.1"
         d="m 51.8457,30.9309 c -0.7789,0.0019 -4.1539,0.7871 -4.9332,0.789 0.8324,15.4031 0.7148,27.3141 2.0094,42.686 0.6621,7.8613 1.3242,15.7222 1.9863,23.5839 1.1406,-7e-4 1.4867,-0.0687 2.6273,-0.0687 0.0551,-22.452 -1.516,-66.4832 -1.6898,-66.9902" />
      <path
         id="path2406"
         style="fill:#574e87;fill-opacity:1;fill-rule:nonzero;stroke:none;stroke-width:0.1"
         d="m 51.3363,33.277 c -3.4617,1.7218 -7.4758,1.8742 -11.3425,1.8109 -7.359,-0.1188 -14.7067,-0.8899 -21.9297,-2.302 -2.9489,0.459 -6.6024,-2.8679 -5.7118,-5.7148 2.3973,-7.6672 24.779,-5.5539 36.4676,-3.566 1.7137,0.291 3.2215,0.7219 4.4285,1.6898 1.2426,0.9961 2.1832,2.5653 1.8551,4.1242 -0.2555,1.2161 -2.6555,3.4039 -3.7672,3.9579" />
      <path
         id="path2408"
         style="fill:#8caa61;fill-opacity:1;fill-rule:nonzero;stroke:none;stroke-width:0.1"
         d="m 22.707,25.7051 c -2.3101,0.5609 -5.6851,2.432 -6.0293,4.784 -0.3449,2.3507 0.0496,4.748 0.5918,7.0609 1.3727,5.8578 3.7063,11.4879 6.8789,16.6 1.1446,1.8449 2.434,3.7191 2.6602,5.877 0.4734,4.5191 -3.6582,7.9691 -6.4648,11.5429 -5.1329,6.534 -6.0961,16.5903 -0.9106,23.0821 -0.1301,-0.4379 -0.2402,0.771 -0.6066,1.0429 8.5687,0.2379 17.1339,0.6141 25.691,1.1289 0.5715,0.0344 1.2695,0.0032 1.5406,-0.5008 1.9191,-3.5699 0.8152,-7.7851 0.9063,-11.8359 0.0707,-3.1601 -0.3399,-6.4621 -2.0805,-9.1012 -1.1442,-1.7328 -2.7895,-3.0699 -4.111,-4.673 -1.3222,-1.6008 -2.3488,-3.682 -1.8902,-5.7078 0.3945,-1.741 1.7797,-3.0481 2.9301,-4.4133 5.3473,-6.3477 6.2226,-15.2379 6.5687,-23.5309 0.0942,-2.2488 0.8586,-5.9687 -0.1488,-7.9808 -0.9691,-1.9379 -3.7785,-3.0469 -6.8949,-3.375 -7.2461,-0.761 -11.5504,-1.718 -18.6309,0" />
      <path
         id="path2410"
         style="fill:#f5dba3;fill-opacity:1;fill-rule:nonzero;stroke:none;stroke-width:0.1"
         d="m 44.5652,93.482 c -0.0785,1.3508 -4.073,-1.4 -5.2312,-0.698 -0.4551,0.2762 -0.9945,0.368 -1.5195,0.4551 -5.0551,0.8398 -11.9598,1.1648 -17.0149,2.0039 -2.4101,-6.0039 -1.6062,-14.4758 1.3203,-20.2461 1.5145,-2.9848 3.5571,-3.4391 5.2817,-6.3078 1.7238,-2.8692 4.5086,-6.384 4.0929,-9.7051 -0.5004,-4.002 -3.366,-7.2231 -5.5265,-10.6281 -3.2129,-5.0629 -5.0176,-11.0098 -5.1614,-17.0047 -0.0246,-1.0102 0.0582,-2.1551 0.834,-2.8024 0.427,-0.3547 0.9907,-0.491 1.5352,-0.5996 5.9008,-1.1863 14.932,-1.5722 20.5094,0.6899 0.782,0.3168 1.5898,0.6968 2.0742,1.3898 0.4129,0.5902 0.5351,1.3313 0.6355,2.0453 0.502,3.5668 -1.0929,8.3297 -1.9761,11.8227 -0.8833,3.4929 0.4402,3.9613 -4.4012,11.7351 -0.5805,0.9328 -4.4235,5.5649 -4.2543,7.0418 0.4148,3.6231 -0.4629,5.325 1.7605,8.216 1.4668,1.9071 3.8606,5.0891 4.2543,6.1614 2.6407,7.1886 3.0848,11.3289 2.7871,16.4308" />
      <path
         id="path2412"
         style="fill:#30284f;fill-opacity:1;fill-rule:nonzero;stroke:none;stroke-width:0.1"
         d="m 27.2594,97.0148 c -4.8957,-0.2128 -12.4199,2.5024 -15.8489,6.0032 -0.68,0.694 -2.01636,-6.5989 -0.5867,-7.775 2.4942,-2.0539 7.1231,-3.4629 9.5196,-3.6211 7.3707,-0.4848 10.6976,-0.9289 18.0605,-0.3399 3.2449,0.2578 9.3613,0.9969 12.3231,2.3461 1.9097,0.8707 4.0738,1.3688 4.6945,3.3739 0.6207,2.0058 -1.136,8.3 -3.209,8.629 -1.4781,0.235 -1.2902,-3.322 -2.591,-4.061 -6.6801,-3.7962 -14.686,-4.2212 -22.3621,-4.5552" />
      <path
         id="path2414"
         style="fill:#574e87;fill-opacity:1;fill-rule:nonzero;stroke:none;stroke-width:0.1"
         d="m 17.1324,106.098 c 5.2,0.516 14.5789,1.639 19.8047,1.614 3.2758,-0.015 8.1043,-0.439 11.352,-0.87 1.3691,-0.181 2.7773,-0.439 3.9234,-1.211 1.1461,-0.771 1.966,-2.184 1.6473,-3.528 -0.4457,-1.878 -2.6582,-2.6319 -4.5368,-3.071 -6.1156,-1.43 -10.0386,-2.4691 -17.9609,-2.4691 -6.2805,0 -13.316,-0.2117 -18.8851,2.6922 -1.1457,0.598 -2.4211,1.7559 -1.9094,2.9429 0.3215,0.744 2.773,3.524 6.5648,3.9" />
      <path
         id="path2416"
         style="fill:#d4af64;fill-opacity:1;fill-rule:nonzero;stroke:none;stroke-width:0.1"
         d="m 25.7676,78.4078 c -1.1738,-3.1308 1.4371,-5.9129 3.1972,-8.1976 1.086,-1.4082 2.1629,-3.018 4.2508,-2.4442 2.1746,0.5981 2.6356,2.466 3.875,4.007 1.1012,1.3692 2.493,2.3879 2.8332,4.2372 0.3746,2.0378 -0.7621,3.4507 -2.4312,4.4429 -2.034,1.2078 -3.7442,1.7879 -6.1375,1.5598 -2.2824,-0.2168 -4.8285,0.2992 -6.7981,-1.127 -2.8965,-2.098 -2.38,-5.9789 0.9493,-7.2629 0.5472,-0.2101 1.1578,-0.355 1.6851,-0.6039 0.191,-0.091 1.3988,-0.9121 1.2992,-0.6101 2.0528,1.1949 4.1055,2.3898 6.1586,3.5851 -2.1148,2.3379 -7.1801,6.5438 -9.7875,2.5079 -1.9191,-2.9711 2.077,-7.4911 4.1602,-9.3379 2.1367,-1.8942 5.6492,-0.668 5.6824,2.3531 0.0328,3.0699 -2.5809,5.7297 -4.7379,7.6137 -2.8101,2.4543 -7.8004,-0.784 -5.4434,-4.2 1.4321,-2.0758 3.0196,-4.0969 4.6493,-6.02 2.7347,-3.2281 7.2078,0.3032 6.5175,3.7942 -0.2511,1.2699 -0.8621,2.2699 -1.7585,3.1871 -2.3551,2.4098 -6.0098,0.4707 -6.2274,-2.5793 -0.0949,-1.3391 0.282,-2.427 0.8586,-3.6129 1.7789,1.7781 3.557,3.557 5.3355,5.3359 -1.521,0.7539 -2.4453,2.025 -3.3898,3.393 -1.8144,-1.3988 -3.6289,-2.8 -5.4434,-4.1988 0.6165,-0.5391 1.1942,-1.1129 1.7551,-1.7082 0.336,-0.3571 0.6465,-0.734 0.9539,-1.1129 0.4883,-0.6031 0.3961,-1.227 0.2735,0.1082 1.6695,0.9578 3.339,1.9156 5.0078,2.8738 0.8594,-0.6172 0.0496,-0.007 -0.0961,0.125 -0.3938,0.3559 -0.7641,0.7379 -1.1336,1.1199 -0.3172,0.327 -0.6152,0.65 -0.8781,1.02 -0.1399,0.2011 -0.2703,0.4089 -0.3926,0.6222 0.0836,-0.2902 0.084,-0.289 0.0019,0.0039 0,-0.557 0,-1.1129 0,-1.6679 -0.0711,-0.1551 -0.1425,-0.3102 -0.2136,-0.4653 -0.3844,-0.3847 -0.7692,-0.7687 -1.1535,-1.1527 0.039,0.0199 0.0785,0.041 0.1175,0.0609 -0.5465,-0.148 -1.0929,-0.2961 -1.6394,-0.4429 -1.1906,0.432 -1.5012,0.4828 -0.9317,0.1507 -0.2757,0.2063 -0.2523,0.1633 0.0707,-0.1277 0.3743,-0.373 0.7094,-0.7883 1.0457,-1.1941 0.4844,-0.5848 1.0872,-1.0821 1.5856,-1.6602 2.4422,-2.8289 7.2027,0.1652 6.1594,3.5852 -1.0977,3.5961 -4.2422,4.566 -7.0293,6.5179 -0.3164,-2.4211 -0.6328,-4.8418 -0.9492,-7.2629 0.925,0.3602 2.9089,0.295 4.1136,0.479 0.9004,0.1378 1.7981,0.2808 2.7012,0.405 0.2816,0.1282 0.5715,0.1719 0.8691,0.1321 0.8125,-0.07 0.4653,0.3871 -1.0406,1.3711 0,0.5207 0,1.041 0,1.5609 -0.1391,-0.916 -1.1543,-1.5973 -1.6918,-2.3102 -0.4707,-0.623 -0.8305,-2.0371 -1.5207,-2.357 0.7223,0.093 1.4445,0.1879 2.166,0.2832 1.0051,-0.8551 1.1907,-0.909 0.5578,-0.1652 -0.2289,0.3082 -0.4671,0.609 -0.7148,0.9031 -0.5707,0.6941 -1.1938,1.3289 -1.8453,1.9461 -1.0981,1.0418 -2.3324,1.9961 -3.377,3.0828 -0.6933,0.7199 -1.755,0.2891 -2.0687,-0.5461 v 0" />
      <path
         id="path2418"
         style="fill:#d4af64;fill-opacity:1;fill-rule:nonzero;stroke:none;stroke-width:0.1"
         d="m 32.2488,65.8949 c -0.084,-0.0918 -0.1371,-0.1711 -0.1804,-0.2879 -0.0454,-0.1218 0.0054,-0.289 0.0992,-0.375 0.0094,-0.009 0.0183,-0.0172 0.0273,-0.0261 0.3114,-0.286 0.8305,0.082 0.5981,0.4613 -0.0071,0.0109 -0.0133,0.0219 -0.0196,0.0328 0,-0.1301 0,-0.2602 0,-0.3898 -0.0105,-0.018 -0.0218,-0.034 -0.0328,-0.0524 0.5168,0.3211 -0.1035,1.0652 -0.4918,0.6371 v 0" />
      <path
         id="path2420"
         style="fill:#d4af64;fill-opacity:1;fill-rule:nonzero;stroke:none;stroke-width:0.1"
         d="m 32.4188,63.4012 c 0.0074,-0.0231 0.0152,-0.0453 0.0226,-0.0684 0.1758,-0.5269 0.893,-0.5269 1.0691,0 0.0075,0.0231 0.0149,0.0453 0.0223,0.0684 0.1199,0.3597 -0.1965,0.7308 -0.5566,0.7308 -0.3606,0 -0.6774,-0.3711 -0.5574,-0.7308 v 0" />
      <path
         id="path2422"
         style="fill:#d4af64;fill-opacity:1;fill-rule:nonzero;stroke:none;stroke-width:0.1"
         d="m 32.9988,61.207 c -0.0199,-0.184 0.011,-0.3281 0.125,-0.4761 0.2485,-0.3231 0.6297,-0.3231 0.8778,0 0.114,0.148 0.1449,0.2921 0.125,0.4761 -0.0782,0.7258 -1.0496,0.7258 -1.1278,0 v 0" />
      <path
         id="path2424"
         style="fill:#d4af64;fill-opacity:1;fill-rule:nonzero;stroke:none;stroke-width:0.1"
         d="m 33.6137,59.2488 c -0.3332,-0.2808 -0.5293,-1.0156 -0.1504,-1.3508 0.1226,-0.1082 0.2113,-0.2281 0.3926,-0.2281 0.1847,0 0.2988,0.1391 0.3937,0.2781 -0.0558,-0.0558 -0.1117,-0.1121 -0.1676,-0.1679 0.3235,0.2469 0.4895,0.6738 0.4711,1.0801 -0.0226,0.5027 -0.5718,0.6976 -0.9394,0.3886 v 0" />
      <path
         id="path2426"
         style="fill:#d4af64;fill-opacity:1;fill-rule:nonzero;stroke:none;stroke-width:0.1"
         d="m 33.5715,54.852 c -0.011,0.005 -0.0219,0.0101 -0.0324,0.014 0.3027,-0.5558 1.0644,-0.1539 0.9636,0.407 -0.0339,0.1872 -0.1297,0.32 -0.2476,0.4649 -0.1946,0.2391 -0.5969,0.2012 -0.7977,0 -0.2738,-0.2738 -0.1793,-0.6789 0.1141,-0.8859 v 0" />
      <path
         id="path2428"
         style="fill:#d4af64;fill-opacity:1;fill-rule:nonzero;stroke:none;stroke-width:0.1"
         d="m 33.8254,52.8289 c -0.0715,-0.3078 -0.0664,-0.5789 0.0176,-0.884 0.1234,-0.4488 0.7832,-0.4488 0.907,0 0.084,0.3051 0.0891,0.5762 0.0172,0.884 -0.109,0.466 -0.8324,0.466 -0.9418,0 v 0" />
      <path
         id="path2430"
         style="fill:#d4af64;fill-opacity:1;fill-rule:nonzero;stroke:none;stroke-width:0.1"
         d="m 33.8191,49.102 c -0.0847,-0.1711 -0.1582,-0.343 -0.1961,-0.5309 -0.0621,-0.3051 0.0071,-0.5063 0.1375,-0.7781 0.1848,-0.3828 0.875,-0.4121 1.0508,0 -0.0218,-0.05 0.1532,0.2949 0.1559,0.3109 0.0215,0.109 0.043,0.1762 0.0992,0.2691 0.4844,0.8059 -0.8367,1.5579 -1.2473,0.729 v 0" />
      <path
         id="path2432"
         style="fill:#d4af64;fill-opacity:1;fill-rule:nonzero;stroke:none;stroke-width:0.1"
         d="m 33.5676,45.0699 c 0.0027,-0.032 0.0062,-0.0648 0.009,-0.098 0.0879,-0.9258 1.3515,-0.9258 1.4394,0 0.0031,0.0332 0.0059,0.066 0.0094,0.098 0.0891,0.9403 -1.5473,0.9403 -1.4578,0 v 0" />
      <path
         id="path2434"
         style="fill:#d4af64;fill-opacity:1;fill-rule:nonzero;stroke:none;stroke-width:0.1"
         d="m 34.2965,41.1141 c 0.9398,0 0.9398,1.4578 0,1.4578 -0.9406,0 -0.9406,-1.4578 0,-1.4578 v 0" />
      <path
         id="path2436"
         style="fill:#d4af64;fill-opacity:1;fill-rule:nonzero;stroke:none;stroke-width:0.1"
         d="m 22.8113,30.1488 c 2.4438,2.5032 4.702,5.1992 7.2067,7.6371 1.9715,1.9192 3.584,3.2571 6.3,1.6832 1.605,-0.9312 2.955,-2.2793 4.264,-3.5742 0.5606,-0.5539 1.1039,-1.1129 1.6313,-1.7 C 43.6539,32.591 41.7797,32.868 41.0484,32.8379 38.9027,32.752 36.7641,32.575 34.625,32.393 32.6609,32.2262 30.6898,32.123 28.7281,31.9398 27.282,31.8051 25.3848,31.1211 23.991,31.8211 c -0.1265,-0.975 -0.2543,-1.95 -0.3816,-2.9242 1.9953,0.432 5.1851,-0.7059 7.2437,-0.9571 2.7934,-0.3398 5.4297,-0.1128 8.1543,0.5543 3.7188,0.909 6.7321,2.686 3.7778,6.3821 -1.5645,1.9578 -4.0368,3.1629 -6.0747,4.5359 -1.4996,1.0098 -2.9109,1.6379 -4.6738,0.9207 -2.9156,-1.1828 -6.7844,-4.7379 -7.4879,-7.875 -0.2558,-1.1418 0.7653,-2.4199 2.0059,-2.0047 2.4297,0.8129 4.4851,2.0578 7.0422,2.643 2.2844,0.5219 4.407,1.5469 6.8011,1.3359 -0.1468,1.084 -0.2933,2.1692 -0.4406,3.2532 -2.7164,-0.5563 -5.4144,0.8296 -8.157,0.8148 -1.3375,-0.007 -2.3668,-1.8941 -1.1797,-2.8469 1.0606,-0.8531 2.1141,-1.575 3.3449,-2.1691 1.3649,-0.6578 3.5188,-0.5008 4.675,-1.4578 0.2481,0.9379 0.4961,1.8769 0.7438,2.8156 -1.2399,-0.4406 -2.5883,-0.159 -3.8731,-0.1066 -1.805,0.0718 -3.584,-0.0571 -5.3371,-0.4883 -1.4183,-0.3489 -1.6922,-2.4141 -0.407,-3.1149 2.7191,-1.482 7.9664,-1.325 10.6183,0.2719 1.2555,0.7563 1.0731,2.8012 -0.4144,3.1699 -2.602,0.6453 -5.7215,0.2461 -7.7488,-1.6008 -1.1657,-1.0621 -0.2168,-2.932 1.2304,-2.971 0.1836,-0.0051 0.3664,-0.009 0.55,-0.0141 2.2453,-0.0609 2.2176,3.3449 0,3.466 -0.1836,0.009 -0.3664,0.0191 -0.55,0.0293 0.4102,-0.9902 0.8207,-1.9812 1.2309,-2.9711 1.093,0.943 3.018,1.0399 4.3652,0.7168 -0.1383,1.057 -0.2761,2.1133 -0.4144,3.1699 -1.5309,-0.9359 -5.5387,-1.1929 -7.1473,-0.3226 -0.1355,-1.0391 -0.2715,-2.0782 -0.407,-3.116 2.9953,0.75 6.3269,-0.4043 9.2004,0.632 1.0734,0.3867 1.8058,1.9437 0.7433,2.8168 -2.3675,1.9441 -5.5636,1.6219 -8.0437,3.6031 -0.3938,-0.95 -0.7867,-1.8992 -1.1797,-2.8492 3.15,0.0269 5.8539,-1.3328 9.0379,-0.6719 1.9449,0.4039 1.3125,3.1031 -0.4403,3.2539 C 37.9949,37.95 35.727,37.132 33.4527,36.4621 32.177,36.0859 30.8688,35.843 29.5934,35.4602 28.182,35.0371 27.0676,34.0672 25.6879,33.598 c 0.6684,-0.6691 1.3371,-1.3378 2.0059,-2.0058 0.4933,2.2457 3.1679,4.1367 4.9441,5.4156 1.3672,0.9863 2.8055,-0.6066 3.9809,-1.3527 0.6378,-0.4063 3.9335,-3.3121 4.3328,-3.068 -2.8032,-1.7152 -6.9629,-1.757 -10.0985,-1.4742 -2.6511,0.2391 -5.4484,1.3762 -8.0941,0.8691 -1.3649,-0.2621 -1.5543,-2.2992 -0.382,-2.9242 1.9418,-1.034 4.0121,-0.6598 6.1043,-0.3476 3.4132,0.5097 6.9691,0.6218 10.4125,0.8796 1.6375,0.1231 4.907,-0.2519 6.1652,1.1981 1.2762,1.4691 1.039,3.066 0.0355,4.6402 -1.9613,3.0758 -7.5379,8.409 -11.5257,7.818 -5.5227,-0.8211 -9.393,-7.8699 -11.9672,-12.1641 -0.4512,-0.7519 0.5972,-1.5609 1.2097,-0.9332 v 0" />
      <path
         id="path2438"
         style="fill:#d4af64;fill-opacity:1;fill-rule:nonzero;stroke:none;stroke-width:0.1"
         d="m 27.8637,73.0051 c -0.3364,2.3629 -1.425,2.5828 -2.7907,4.3109 -0.8851,1.1192 -2.8539,-0.3988 -1.9808,-1.5289 1.207,-1.5641 2.4308,-3.1812 4.3605,-3.832 1.4086,-0.4762 2.3774,1.7801 1.0168,2.4129 -1.4632,0.68 -2.3461,1.7461 -3.1847,3.098 -0.1207,0.1949 -2.0477,4.8961 -1.0243,4.7418 2.2727,-0.3379 3.9856,-1.3707 6.3782,-1.1098 1.2426,0.1352 8.5758,3.511 9.1031,2.0391 0.9562,-2.668 -2.332,-5.7699 -4.207,-6.825 0.5945,-0.7711 1.1886,-1.541 1.7832,-2.3121 1.5699,1.4762 2.7254,2.9 3.3808,4.977 -0.9367,0.1269 -1.873,0.2531 -2.8097,0.38 0.1613,-1.5269 -1.2508,-2.6629 -2.1016,-3.7441 -0.9484,-1.2039 0.2355,-3.1399 1.7336,-2.2457 2.2602,1.3469 5.0105,5.3047 4.2266,8.1328 -0.8739,3.152 -4.2375,2.3641 -6.4215,1.0988 -1.2485,-0.7238 -0.7739,-2.9136 0.7617,-2.8117 1.2465,0.0828 2.1812,0.516 3.2281,1.191 -0.6972,0.6969 -1.3945,1.3938 -2.0918,2.0918 -0.6328,-1.2379 -1.889,-1.7769 -2.0972,-3.2488 -0.1665,-1.1801 1.0253,-2.65 2.2835,-1.7563 1.3086,0.9313 2.0739,3.0133 1.0141,4.4883 -1.6773,2.336 -5.0711,1.5539 -7.5641,1.2778 -1.7195,-0.1899 -3.0984,0.0019 -4.7898,0.2531 -0.9227,0.1379 -2.1359,-0.052 -2.8309,-0.7469 -1.8703,-1.8703 0.3649,-3.7582 1.009,-5.5371 0.6965,-1.9199 3.786,-1.0859 3.077,0.8488 -0.2637,0.7203 -0.5875,1.3282 -1.0051,1.9731 -0.3328,0.664 -0.4344,0.7609 -0.3051,0.2922 0.691,-0.0993 1.3578,-0.3942 2.0629,-0.4211 1.2629,-0.0481 2.4977,0.1582 3.7512,0.3019 0.6625,0.0731 1.3269,0.1121 1.9933,0.1172 0.177,0.0051 2.0848,-0.1152 2.0184,-0.1633 0.7797,-0.4468 1.5594,-0.8937 2.3387,-1.341 0.0711,0.5453 1.3812,1.5043 1.6844,2.1184 0.6289,1.275 -0.7204,3.0047 -2.0918,2.0929 -0.5008,-0.389 -1.0622,-0.6601 -1.6848,-0.814 0.2539,-0.9371 0.5074,-1.875 0.7613,-2.8121 3.5102,2.1031 0.7949,-3.2219 -0.7722,-4.1571 0.5777,-0.748 1.1558,-1.4968 1.7335,-2.2461 1.3465,1.7102 3.1875,3.409 2.9395,5.7672 -0.1648,1.5668 -2.3004,1.9942 -2.8098,0.3809 -0.5129,-1.6258 -1.4797,-2.552 -2.7035,-3.657 -1.2683,-1.145 0.3563,-3.1161 1.7832,-2.3098 3.5543,2.0059 6.3117,5.8949 5.5453,10.1437 -0.9437,5.2372 -8.9113,0.9813 -11.4535,0.2321 C 28.7434,83.45 26.85,84.7559 24.5906,85.0949 23.2211,85.3 21.623,84.7191 21.273,83.2148 20.2355,78.757 23.3219,73.607 27.4527,71.9551 c 0.2336,0.848 0.4676,1.6969 0.7016,2.5449 -1.3063,0.3719 -2.252,1.834 -3.0813,2.816 -0.5945,-0.5949 -1.189,-1.1898 -1.7835,-1.784 1.0074,-1.1129 2.246,-1.8711 3.1418,-3.1308 0.5359,-0.7543 1.5574,-0.2731 1.4324,0.6039 v 0" />
    </g>
  </g>
</svg>
