<?xml version="1.0" encoding="UTF-8" standalone="no"?>
<svg
   xmlns:dc="http://purl.org/dc/elements/1.1/"
   xmlns:cc="http://creativecommons.org/ns#"
   xmlns:rdf="http://www.w3.org/1999/02/22-rdf-syntax-ns#"
   xmlns:svg="http://www.w3.org/2000/svg"
   xmlns="http://www.w3.org/2000/svg"
   width="35.786366mm"
   height="41.140591mm"
   viewBox="0 0 35.786366 41.140591"
   version="1.1"
   id="svg5401">
  <defs
     id="defs5395" />
  <metadata
     id="metadata5398">
    <rdf:RDF>
      <cc:Work
         rdf:about="">
        <dc:format>image/svg+xml</dc:format>
        <dc:type
           rdf:resource="http://purl.org/dc/dcmitype/StillImage" />
        <dc:title></dc:title>
      </cc:Work>
    </rdf:RDF>
  </metadata>
  <g
     id="layer1">
    <g
       id="g5351"
       transform="matrix(0.35277777,0,0,-0.35277777,0,117.22805)">
      <path
         id="path22"
         style="fill:#f7ca72;fill-opacity:1;fill-rule:nonzero;stroke:none;stroke-width:0.1"
         d="m 89.9348,305.124 c -0.2399,0.106 -0.3621,0.369 -0.4637,0.611 -0.4418,1.053 -0.8844,2.105 -1.3266,3.157 1.6825,1.113 3.5899,1.884 5.5735,2.252 -0.1434,-2.036 -1.4196,-3.791 -2.6473,-5.421 -0.2793,-0.371 -0.7113,-0.787 -1.1359,-0.599" />
      <path
         id="path24"
         style="fill:#f5dba3;fill-opacity:1;fill-rule:nonzero;stroke:none;stroke-width:0.1"
         d="m 86.491,321.923 c 0.2547,-1.153 0.4641,-2.45 -0.1789,-3.44 -0.8828,-1.359 -2.8644,-1.423 -4.1387,-2.424 -1.5195,-1.193 -1.7027,-3.396 -1.6695,-5.328 1.8856,-0.177 3.7207,-0.868 5.2555,-1.978 0.0847,0.689 -0.6719,1.179 -0.8821,1.841 -0.2191,0.69 0.2047,1.431 0.7442,1.914 0.5402,0.483 1.2051,0.818 1.7078,1.34 0.9859,1.026 1.1684,2.568 1.1973,3.991 0.0164,0.828 -0.0051,1.677 -0.3024,2.449 -0.2972,0.773 -0.9222,1.466 -1.7332,1.635" />
      <path
         id="path26"
         style="fill:#f7ca72;fill-opacity:1;fill-rule:nonzero;stroke:none;stroke-width:0.1"
         d="m 79.9555,323.594 c -0.8891,-1.326 -2.2551,-2.363 -2.7664,-3.875 -0.7414,-2.193 0.5504,-4.484 1.1562,-6.718 0.0809,-0.299 0.1485,-0.627 0.0281,-0.913 -0.1336,-0.318 -0.4652,-0.503 -0.7879,-0.624 -1.3113,-0.494 -2.7671,-0.318 -4.1558,-0.135 -0.1992,0.026 -0.4094,0.057 -0.5668,0.182 -0.2082,0.164 -0.2715,0.447 -0.3219,0.708 -0.1172,0.611 -0.2351,1.222 -0.3523,1.832 -0.4989,2.588 -0.909,5.561 0.7551,7.604 1.0976,1.348 2.8644,1.955 4.1597,3.114 1.5981,1.432 2.3672,3.73 1.9528,5.835 0.2855,0.265 0.7656,0.21 1.0742,-0.028 0.309,-0.238 0.4793,-0.611 0.6062,-0.979 0.6813,-1.977 0.3832,-4.267 -0.7812,-6.003" />
      <path
         id="path28"
         style="fill:#f5dba3;fill-opacity:1;fill-rule:nonzero;stroke:none;stroke-width:0.1"
         d="m 66.8086,313.406 c -0.9656,-0.233 -2.157,-0.398 -2.7988,0.36 -0.2653,0.314 -0.3727,0.729 -0.461,1.13 -0.7054,3.22 -0.6316,6.608 0.2129,9.795 0.2227,0.083 0.4063,-0.185 0.4938,-0.405 1.157,-2.921 2.3144,-5.842 3.4715,-8.763 0.2293,-0.577 0.4625,-1.185 0.3886,-1.802 -0.4359,-0.105 -0.8715,-0.21 -1.307,-0.315" />
      <path
         id="path30"
         style="fill:#f7ca72;fill-opacity:1;fill-rule:nonzero;stroke:none;stroke-width:0.1"
         d="m 53.8137,324.896 c -0.8875,-1.269 -1.7922,-2.574 -2.1715,-4.075 -0.3789,-1.501 -0.1254,-3.263 1.0277,-4.296 0.4098,-0.367 0.9156,-0.631 1.2614,-1.058 0.5125,-0.635 0.5824,-1.534 0.4031,-2.33 -0.077,-0.343 -0.1965,-0.686 -0.161,-1.035 0.1164,-1.133 1.7012,-1.46 2.752,-1.022 1.0512,0.438 1.9137,1.313 3.0266,1.553 0.464,1.631 -0.0688,3.503 -1.3207,4.646 -0.4434,0.405 -0.9657,0.722 -1.3653,1.17 -1.1222,1.256 -1.0043,3.203 -0.4437,4.792 0.5605,1.589 1.4898,3.053 1.8215,4.706 0.3308,1.652 -0.1653,3.668 -1.7047,4.353 0.7968,-1.443 -0.1793,-3.19 -1.1239,-4.541 -0.6672,-0.954 -1.3347,-1.908 -2.0015,-2.863" />
      <path
         id="path32"
         style="fill:#f5dba3;fill-opacity:1;fill-rule:nonzero;stroke:none;stroke-width:0.1"
         d="m 47.4234,309.406 c 0.2996,2.708 -1.2359,5.264 -2.9007,7.422 -1.2067,1.563 -2.5149,3.047 -3.9137,4.44 -0.525,0.523 -1.132,1.065 -1.8723,1.096 -0.1738,-1.531 0.0996,-3.076 0.4149,-4.584 0.4543,-2.179 1.0324,-4.41 2.4074,-6.16 1.3746,-1.749 3.7469,-2.897 5.8644,-2.214" />
      <path
         id="path34"
         style="fill:#f7ca72;fill-opacity:1;fill-rule:nonzero;stroke:none;stroke-width:0.1"
         d="m 32.7164,323.126 c -1.0426,0.155 -1.8527,-0.86 -2.3762,-1.775 -1.0582,-1.851 -1.9691,-3.871 -2.0007,-6.002 -0.0579,-3.875 2.7308,-7.156 5.5074,-9.86 0.7,-0.682 1.4242,-1.363 2.2992,-1.798 0.875,-0.435 1.9363,-0.594 2.8309,-0.201 0.6886,0.842 0.4418,2.081 0.1593,3.132 -0.3668,1.364 -0.7777,2.803 -1.8109,3.765 -0.5836,0.543 -1.3234,0.89 -1.9383,1.398 -1.5172,1.252 -2.0891,3.305 -2.3836,5.25 -0.3055,2.013 -0.4015,4.058 -0.2871,6.091" />
      <path
         id="path36"
         style="fill:#f5dba3;fill-opacity:1;fill-rule:nonzero;stroke:none;stroke-width:0.1"
         d="m 28.6824,296.955 c 1.6688,-0.32 3.4969,0.535 4.3211,2.021 0.2684,0.484 0.4266,1.113 0.118,1.574 -0.0879,0.132 -0.2078,0.239 -0.3266,0.344 -1.209,1.073 -2.4176,2.146 -3.6265,3.22 -1.0961,0.973 -2.1961,1.949 -3.4121,2.768 -1.8723,1.262 -4.0067,2.135 -6.227,2.545 -0.2988,-0.975 0.2773,-1.981 0.8301,-2.838 0.4148,-0.645 0.8304,-1.29 1.2461,-1.934 0.8453,-1.312 1.6906,-2.624 2.5722,-3.911 1.1387,-1.663 2.5258,-3.408 4.5047,-3.789" />
      <path
         id="path38"
         style="fill:#f7ca72;fill-opacity:1;fill-rule:nonzero;stroke:none;stroke-width:0.1"
         d="m 26.1348,291.93 c 0.1109,0.377 0.2793,0.739 0.3308,1.129 0.0895,0.676 -0.1836,1.349 -0.5238,1.94 -1.1203,1.948 -3.0605,3.406 -5.2426,3.94 -1.3625,0.335 -2.7828,0.32 -4.1758,0.483 -2.5152,0.294 -5.2894,1.517 -5.9453,3.963 -0.1176,0.44 -0.1648,0.911 -0.4105,1.294 -0.24612,0.382 -0.79299,0.629 -1.1633,0.365 -0.60547,-2.306 -0.24258,-4.85 0.98359,-6.895 1.22621,-2.045 3.29921,-3.564 5.61841,-4.115 1.0429,-0.249 2.1691,-0.326 3.0582,-0.925 1.2308,-0.83 1.6593,-2.404 2.3843,-3.699 0.725,-1.296 2.3117,-2.47 3.5992,-1.73 1.3477,0.774 1.0485,2.759 1.4868,4.25" />
      <path
         id="path40"
         style="fill:#f5dba3;fill-opacity:1;fill-rule:nonzero;stroke:none;stroke-width:0.1"
         d="m 22.9535,282.35 c 0.1477,0.873 0.2746,1.846 -0.2238,2.578 -0.3192,0.467 -0.8406,0.748 -1.3414,1.011 -2.543,1.335 -5.1387,2.688 -7.9688,3.178 -2.4207,0.42 -4.89997,0.188 -7.35661,0.219 0.70313,-1.933 2.90039,-2.77 4.56951,-3.972 1.966,-1.418 3.3742,-3.557 5.4906,-4.74 1.1891,-0.664 2.5641,-0.99 3.9243,-0.93 0.8703,0.038 1.8078,0.277 2.334,0.97 0.3628,0.478 0.4726,1.095 0.5722,1.686" />
      <path
         id="path42"
         style="fill:#f7ca72;fill-opacity:1;fill-rule:nonzero;stroke:none;stroke-width:0.1"
         d="m 14.9785,268.578 c 1.6293,-0.022 3.2879,0.058 4.8258,0.597 1.5379,0.538 2.9574,1.592 3.6211,3.08 0.6641,1.488 0.418,3.423 -0.816,4.488 -1.6746,-1.775 -4.3758,-2.502 -6.7156,-1.81 -2.2008,0.651 -3.9286,2.39 -6.07896,3.191 C 6.0918,279.511 1.44492,277.431 0,273.73 c 1.88555,0.524 4.09258,0.993 5.65039,-0.192 0.63242,-0.481 1.05938,-1.176 1.56406,-1.791 1.11211,-1.354 2.65782,-2.347 4.35195,-2.796 1.109,-0.293 2.2652,-0.358 3.4121,-0.373" />
      <path
         id="path44"
         style="fill:#f5dba3;fill-opacity:1;fill-rule:nonzero;stroke:none;stroke-width:0.1"
         d="m 23.1793,264.023 c -0.0773,1.103 -0.516,2.179 -1.2328,3.02 0.032,-0.55 -0.6899,-0.772 -1.2391,-0.817 -2.9379,-0.24 -5.8883,-0.625 -8.6765,-1.58 -2.7891,-0.954 -5.42738,-2.514 -7.29496,-4.794 5.25664,0.118 10.54766,0.24 15.69646,1.307 0.9453,0.195 1.9879,0.496 2.4703,1.332 0.2637,0.456 0.3129,1.007 0.2766,1.532" />
      <path
         id="path46"
         style="fill:#f7ca72;fill-opacity:1;fill-rule:nonzero;stroke:none;stroke-width:0.1"
         d="m 9.6668,249.212 c 1.8602,0.352 3.4273,1.568 5.1844,2.272 1.8812,0.753 3.9988,0.903 5.9676,0.422 1.0179,-0.249 2.0027,-0.662 3.0457,-0.767 1.0425,-0.105 2.2132,0.174 2.8148,1.032 0.4555,0.651 0.5,1.504 0.4109,2.292 -0.1406,1.243 -0.5769,2.451 -1.2621,3.498 -3.1261,-1.147 -6.5578,0.417 -9.8867,0.364 -0.7043,-0.011 -1.4215,-0.1 -2.0559,-0.406 -1.0601,-0.511 -1.7472,-1.546 -2.5656,-2.392 -2.49842,-2.582 -6.63084,-3.42 -9.93748,-2.015 -0.547264,-0.896 0.46328,-1.926 1.36875,-2.458 2.10391,-1.235 4.51875,-2.297 6.91563,-1.842" />
      <path
         id="path48"
         style="fill:#f5dba3;fill-opacity:1;fill-rule:nonzero;stroke:none;stroke-width:0.1"
         d="m 28.9566,250.572 c -0.4421,0.128 -0.9152,0.032 -1.3628,-0.075 -5.9489,-1.414 -11.7184,-5.009 -14.1325,-10.627 5.4496,-0.041 10.6035,2.343 15.4121,4.908 0.4633,0.247 0.945,0.513 1.2352,0.951 0.3855,0.582 0.3527,1.335 0.3016,2.031 -0.0832,1.124 -0.3707,2.498 -1.4536,2.812" />
      <path
         id="path50"
         style="fill:#f7ca72;fill-opacity:1;fill-rule:nonzero;stroke:none;stroke-width:0.1"
         d="m 33.1617,245.458 c -1.5461,-1.338 -3.0367,-2.85 -3.7769,-4.756 -0.2953,-0.761 -0.4649,-1.57 -0.82,-2.305 -0.9257,-1.916 -2.9503,-3.031 -4.9316,-3.807 -1.9809,-0.776 -4.0973,-1.367 -5.7371,-2.722 -1.6398,-1.355 -2.6543,-3.786 -1.632,-5.651 0.7347,0.247 1.2379,0.904 1.8047,1.432 3.4015,3.171 9.2132,1.82 13.0156,4.497 1.9578,1.378 3.0851,3.621 4.1351,5.772 0.5582,1.142 1.1285,2.338 1.1129,3.609 -0.0226,1.815 -1.4023,3.525 -3.1707,3.931" />
      <path
         id="path52"
         style="fill:#f5dba3;fill-opacity:1;fill-rule:nonzero;stroke:none;stroke-width:0.1"
         d="m 35.1223,225.909 c 0.3363,-0.032 0.6672,0.089 0.9777,0.224 4.1566,1.792 6.7473,5.91 9.0191,9.825 0.2934,0.506 0.595,1.044 0.5852,1.628 -0.0109,0.682 -0.4602,1.3 -1.0297,1.676 -0.5691,0.376 -1.2473,0.547 -1.9168,0.679 -1.089,0.214 -2.1949,0.339 -3.3035,0.375 -0.234,0.008 -0.4887,0.005 -0.6746,-0.136 -0.1567,-0.12 -0.2332,-0.315 -0.3012,-0.5 -1.6344,-4.444 -2.7629,-9.074 -3.3562,-13.771" />
      <path
         id="path54"
         style="fill:#f7ca72;fill-opacity:1;fill-rule:nonzero;stroke:none;stroke-width:0.1"
         d="m 54.523,235.273 c -0.3058,0.411 -0.764,0.679 -1.2195,0.915 -1.1617,0.603 -2.4441,1.087 -3.7492,0.982 -1.3047,-0.105 -2.6227,-0.934 -2.9488,-2.202 -0.5934,-2.306 2.1465,-4.273 2.1418,-6.655 -0.0039,-2.131 -2.1106,-3.561 -3.2368,-5.371 -1.3171,-2.118 -1.2648,-4.82 -0.7539,-7.261 2.5989,2.364 3.4258,6.339 6.3004,8.359 0.5684,0.4 1.2008,0.708 1.7422,1.144 2.2137,1.781 2.3215,5.053 2.2414,7.893 -0.0215,0.764 -0.0609,1.583 -0.5176,2.196" />
      <path
         id="path56"
         style="fill:#f5dba3;fill-opacity:1;fill-rule:nonzero;stroke:none;stroke-width:0.1"
         d="m 65.15,234.341 c 0.0301,0.208 0.0555,0.437 -0.0594,0.614 -0.1035,0.158 -0.2937,0.232 -0.4738,0.29 -2.0684,0.67 -4.3949,0.504 -6.3469,-0.454 -0.7988,-3.756 0.2883,-7.865 2.8395,-10.735 0.1699,-0.191 0.3613,-0.386 0.6101,-0.441 0.6133,-0.136 1.0321,0.594 1.2231,1.192 0.9929,3.111 1.732,6.303 2.2074,9.534" />
      <path
         id="path58"
         style="fill:#f7ca72;fill-opacity:1;fill-rule:nonzero;stroke:none;stroke-width:0.1"
         d="m 75.3512,232.717 c -0.084,0.66 -0.202,1.325 -0.4789,1.93 -0.945,2.058 -3.8953,2.86 -5.7516,1.563 -1.857,-1.297 -2.1184,-4.343 -0.5098,-5.939 0.2489,-0.247 0.5332,-0.461 0.7489,-0.738 0.5226,-0.67 0.5679,-1.604 0.4039,-2.437 -0.1641,-0.834 -0.5102,-1.622 -0.6977,-2.451 -0.5836,-2.579 0.5613,-5.461 2.7555,-6.937 0.7883,2.046 -0.227,4.438 0.491,6.51 0.5336,1.541 1.9336,2.631 2.6207,4.111 0.6266,1.351 0.6055,2.91 0.418,4.388" />
      <path
         id="path60"
         style="fill:#f5dba3;fill-opacity:1;fill-rule:nonzero;stroke:none;stroke-width:0.1"
         d="m 77.5117,238.519 c -0.5609,-0.122 -1.191,-0.298 -1.4531,-0.809 -0.2066,-0.401 -0.1145,-0.886 0.0098,-1.32 0.6464,-2.259 2.016,-4.243 3.539,-6.031 0.3797,-0.446 0.8457,-0.919 1.4317,-0.916 0.5754,0.002 1.0566,0.491 1.2386,1.037 0.1825,0.546 0.1309,1.139 0.0774,1.711 -0.1211,1.302 -0.2422,2.604 -0.3633,3.906 -0.0531,0.571 -0.1145,1.166 -0.4215,1.65 -0.3945,0.622 -1.1406,0.95 -1.8734,1.018 -0.7328,0.068 -1.4664,-0.088 -2.1852,-0.246" />
      <path
         id="path62"
         style="fill:#f7ca72;fill-opacity:1;fill-rule:nonzero;stroke:none;stroke-width:0.1"
         d="m 89.2371,231.924 c 0.1344,-0.965 0.1801,-1.942 0.1352,-2.914 0.3992,-0.117 0.8097,0.139 1.1117,0.425 1.1848,1.123 1.6375,2.862 1.5078,4.49 -0.1301,1.627 -0.7766,3.168 -1.5168,4.623 -0.4305,0.847 -0.9109,1.696 -1.6293,2.318 -1.4789,1.282 -3.6207,1.353 -5.5781,1.36 -0.5082,0.001 -1.061,-0.013 -1.4555,-0.333 -0.7891,-0.64 -0.3711,-1.928 0.252,-2.731 0.7457,-0.961 1.7015,-1.758 2.7804,-2.319 1.0727,-0.557 2.2981,-0.909 3.1325,-1.783 0.791,-0.829 1.1023,-2.001 1.2601,-3.136" />
      <path
         id="path64"
         style="fill:#f5dba3;fill-opacity:1;fill-rule:nonzero;stroke:none;stroke-width:0.1"
         d="m 92.9164,238.779 c 0.3649,-0.424 0.7512,-0.863 1.2731,-1.064 0.5214,-0.2 1.2168,-0.068 1.4636,0.434 0.0907,0.183 0.1121,0.393 0.1219,0.597 0.159,3.31 -2.6594,6.479 -5.9645,6.707 -0.4035,0.027 -0.8562,-0.003 -1.1343,-0.296 -0.5176,-0.548 -0.0223,-1.426 0.4691,-1.997 1.257,-1.461 2.5145,-2.921 3.7711,-4.381" />
      <path
         id="path66"
         style="fill:#f7ca72;fill-opacity:1;fill-rule:nonzero;stroke:none;stroke-width:0.1"
         d="m 92.9727,246.261 c -0.3512,0.808 0.0347,1.86 0.8253,2.249 0.7274,0.359 1.5985,0.17 2.3665,-0.09 1.6769,-0.568 3.2472,-1.447 4.6075,-2.579 0.391,-0.325 0.802,-0.803 0.629,-1.281 -1.6901,0.077 -3.3799,0.153 -5.0694,0.229 -1.2918,0.058 -2.8445,0.286 -3.3589,1.472" />
      <path
         id="path68"
         style="fill:#d4af64;fill-opacity:1;fill-rule:nonzero;stroke:none;stroke-width:0.1"
         d="m 97.1871,251.98 c -12.0215,-4.284 -25.793,-3.387 -37.1574,2.42 -1.0402,0.532 -2.2309,1.649 -1.6215,2.646 0.5352,0.875 2.0305,0.699 2.5652,1.574 0.3903,0.636 -0.0082,1.533 -0.6671,1.885 -0.6594,0.351 -1.4665,0.276 -2.1829,0.064 0.0282,0.605 0.552,1.149 1.1563,1.199 0.307,0.71 -0.2359,1.555 -0.9473,1.858 -0.7117,0.302 -1.6969,0.273 -2.464,0.178 -0.9481,0.651 -1.9332,1.343 -2.4582,2.366 -0.5254,1.023 -0.4051,2.476 0.5687,3.088 0.5383,0.339 1.2106,0.358 1.8195,0.54 1.7957,0.536 2.8485,3.025 1.6325,4.45 -0.4079,0.478 -0.9832,0.776 -1.5446,1.058 -1.7398,0.876 -3.5496,1.77 -4.78,3.28 -1.2309,1.51 -1.7043,3.831 -0.5458,5.397 0.5883,0.796 1.5825,1.446 1.5708,2.436 -0.0079,0.67 -0.4981,1.229 -0.6977,1.869 -0.5063,1.619 6.0051,8.583 8.2473,10.58 2.6058,2.321 5.9496,4.393 9.2683,5.473 7.0321,2.289 17.561,0.72 20.8543,-2.69 0.8028,-0.831 1.7492,-1.93 2.8586,-1.608 0.3809,0.501 0.6328,1.057 0.4887,1.669 -0.9028,3.842 -3.5707,7.119 -6.8461,9.322 -3.2758,2.201 -7.127,3.413 -11.0074,4.134 -6.3793,1.184 -12.9907,1.102 -19.3395,-0.238 -2.2832,-0.483 -4.5383,-1.128 -6.6781,-2.059 -2.4395,-1.062 -6.1692,-2.498 -8.4227,-3.912 -3.8238,-2.4 -7.5621,-5.269 -10.8672,-8.344 -7.4234,-6.907 -10.2828,-16.335 -11.5968,-26.389 -0.8008,-6.13 0.3008,-12.42 2.0008,-18.363 1.6996,-5.944 4.8406,-11.651 9.764,-15.388 2.8125,-2.136 6.1016,-3.559 9.4442,-4.697 8.2339,-2.804 17.1054,-3.99 25.705,-2.687 4.4215,0.67 8.7168,1.983 12.9926,3.291 1.6535,0.506 3.3152,1.015 4.8629,1.785 1.5664,0.779 7.2367,4.03 8.5379,5.201 3.8809,3.493 7.8234,6.583 7.5394,8.325 -0.6605,0.46 -1.2945,0.557 -2.0527,0.287" />
      <path
         id="path70"
         style="fill:#30284f;fill-opacity:1;fill-rule:nonzero;stroke:none;stroke-width:0.1"
         d="m 32.2227,280.418 c 2.1957,2.624 4.5246,5.322 7.6664,6.675 2.2339,0.963 4.7089,1.167 7.1339,1.359 0.9188,0.073 1.8387,0.146 2.7583,0.219 0.6,0.048 1.257,0.08 1.7457,-0.271 0.7781,-0.559 0.6972,-1.721 0.5339,-2.666 -4.5476,0.665 -9.3629,0.576 -13.5171,-1.39 -1.3762,-0.652 -2.6512,-1.495 -3.9208,-2.336 -0.8003,-0.53 -1.6003,-1.06 -2.4003,-1.59" />
      <path
         id="path72"
         style="fill:#ba422a;fill-opacity:1;fill-rule:nonzero;stroke:none;stroke-width:0.1"
         d="m 58.6215,261.163 c 0.9172,0.204 2.0285,0.35 2.659,-0.346 0.5492,-0.606 0.4113,-1.623 -0.1262,-2.24 -0.5375,-0.617 -1.3645,-0.901 -2.1719,-1.033 -3.0375,-0.497 -6.0726,0.805 -8.7441,2.335 1.0527,0.653 2.5195,1.999 3.5722,2.652 1.559,0.968 2.2317,1.455 3.1536,1.504 1.2453,0.066 2.0379,-0.443 2.2644,-0.563 0.4848,-0.256 0.752,-0.865 0.6129,-1.395 -0.1394,-0.53 -0.6715,-0.929 -1.2199,-0.914" />
      <path
         id="path74"
         style="fill:#ba422a;fill-opacity:1;fill-rule:nonzero;stroke:none;stroke-width:0.1"
         d="m 44.607,265.066 c -0.4273,-2.335 -2.8465,-4.117 -5.2023,-3.834 -2.3563,0.283 -4.1266,2.243 -4.418,4.598 -0.4176,3.376 3.3164,4.388 4.2317,4.584 1.4601,0.312 3.0625,-0.173 4.1179,-1.23 1.0559,-1.058 1.5391,-2.649 1.2707,-4.118" />
      <path
         id="path76"
         style="fill:#ffffff;fill-opacity:1;fill-rule:nonzero;stroke:none;stroke-width:0.1"
         d="m 48.7672,278.409 c -4.0082,-3.475 -9.9051,-4.62 -14.9227,-2.897 3.8723,3.694 9.9493,4.874 14.9227,2.897" />
      <path
         id="path78"
         style="fill:#30284f;fill-opacity:1;fill-rule:nonzero;stroke:none;stroke-width:0.1"
         d="m 41.5813,275.542 c -0.1016,-0.155 -0.2422,-0.279 -0.3844,-0.397 -0.7328,-0.609 -1.8,-0.657 -2.6781,-0.288 -0.8493,0.356 -1.3168,1.46 -1.0317,2.336 0.3137,0.96 0.993,1.299 1.7688,1.396 0.7761,0.097 1.1433,-0.04 1.8437,-0.388 0.7,-0.348 0.9125,-2.007 0.4817,-2.659" />
      <path
         id="path80"
         style="fill:#e8bb6b;fill-opacity:1;fill-rule:nonzero;stroke:none;stroke-width:0.1"
         d="m 68.677,312.503 c -9.7778,1.889 -17.5856,-1.202 -25.8293,-6.357 -4.4063,-2.755 -13.7094,-9.445 -12.5664,-15.637 0.4847,-2.628 4.2539,-1.795 4.4136,0.597 0.1473,2.215 2.55,4.241 3.9981,5.743 2.5824,2.68 5.534,4.731 8.6949,6.67 6.2723,3.847 13.684,6.237 21.0254,7.036 1.0265,0.112 1.4484,1.719 0.2637,1.948 v 0" />
      <path
         id="path82"
         style="fill:#bc944d;fill-opacity:1;fill-rule:nonzero;stroke:none;stroke-width:0.1"
         d="m 49.7836,265.622 c -4.4691,0.101 -4.6,-10.909 -2.1313,-12.872 0.4446,-0.353 1.2247,-0.299 1.368,0.362 0.3953,1.816 -0.5969,4.069 -0.6223,5.976 -0.0234,1.725 -0.0328,4.704 1.5829,5.806 0.3164,0.215 0.207,0.72 -0.1973,0.728 v 0" />
      <path
         id="path84"
         style="fill:#e8bb6b;fill-opacity:1;fill-rule:nonzero;stroke:none;stroke-width:0.1"
         d="m 28.593,285.174 c 0.1222,0.299 -0.1278,-0.307 -0.1528,-0.388 0.111,0.19 0.2219,0.379 0.3328,0.569 -0.066,-0.06 -0.1316,-0.119 -0.1968,-0.179 -0.9926,-0.908 -0.6938,-2.599 0.4187,-3.251 1.1512,-0.674 2.6906,-0.054 3.0403,1.237 0.2027,0.748 0.0476,1.499 -0.0668,2.246 -0.1161,0.753 -0.8895,1.391 -1.5817,1.581 -0.7242,0.199 -1.7008,0.023 -2.2035,-0.582 -0.3578,-0.43 -0.5934,-0.743 -0.7512,-1.287 -0.2328,-0.802 0.0231,-1.753 0.6344,-2.322 0.7449,-0.695 1.8367,-0.88 2.7359,-0.354 0.8446,0.495 1.3465,1.592 1.0375,2.551 -0.0035,0.011 -0.0074,0.022 -0.0113,0.034 0.027,-0.2 0.0543,-0.402 0.0813,-0.602 -0.002,0.028 0,0.057 0.005,0.086 -0.0269,-0.202 -0.0539,-0.404 -0.0812,-0.606 0.0648,0.304 -0.3078,-0.617 -0.0934,-0.245 -1.3797,0.181 -2.7597,0.361 -4.1394,0.542 0.2426,-0.714 0.473,-1.38 0.9754,-1.955 0.3047,1.153 0.609,2.306 0.9136,3.459 -0.0496,-0.007 -0.0984,-0.014 -0.1476,-0.021 0.4863,-0.197 0.9723,-0.395 1.4582,-0.593 -0.0375,0.057 -0.0762,0.114 -0.1156,0.171 -0.0625,0.08 -0.1246,0.161 -0.1871,0.242 -0.2735,0.202 -0.3254,0.245 -0.1563,0.129 -0.6363,0.56 -1.4449,0.278 -1.7484,-0.462 v 0" />
      <path
         id="path86"
         style="fill:#e8bb6b;fill-opacity:1;fill-rule:nonzero;stroke:none;stroke-width:0.1"
         d="m 66.2703,240.3 c -4.9637,-1.193 -10.975,0.019 -15.7781,1.332 -2.5141,0.688 -4.7711,1.686 -6.741,3.393 -1.0664,0.924 -2.0715,1.754 -3.541,1.654 -2.0942,-0.142 -2.9774,-2.841 -1.0836,-4 1.7797,-1.09 3.1531,-2.605 5.0261,-3.564 2.2977,-1.175 4.836,-1.929 7.3391,-2.503 5.7383,-1.316 10.5617,-1.429 15.7391,1.41 1.2711,0.697 0.3879,2.602 -0.9606,2.278 v 0" />
    </g>
  </g>
</svg>
