<?xml version="1.0" encoding="UTF-8" standalone="no"?>
<svg
   xmlns:dc="http://purl.org/dc/elements/1.1/"
   xmlns:cc="http://creativecommons.org/ns#"
   xmlns:rdf="http://www.w3.org/1999/02/22-rdf-syntax-ns#"
   xmlns:svg="http://www.w3.org/2000/svg"
   xmlns="http://www.w3.org/2000/svg"
   id="svg3739"
   version="1.1"
   viewBox="0 0 35.935707 29.540064"
   height="29.540064mm"
   width="35.935707mm">
  <defs
     id="defs3733" />
  <metadata
     id="metadata3736">
    <rdf:RDF>
      <cc:Work
         rdf:about="">
        <dc:format>image/svg+xml</dc:format>
        <dc:type
           rdf:resource="http://purl.org/dc/dcmitype/StillImage" />
        <dc:title></dc:title>
      </cc:Work>
    </rdf:RDF>
  </metadata>
  <g
     id="layer1">
    <g
       id="g4003">
      <path
         d="m 16.867622,6.0929556 c 0.789163,-0.970492 0.945797,-1.943453 0.518583,-3.114675 -0.403931,-1.107722 -1.202267,-2.24860597 -2.343503,-2.64759697 -0.816328,-0.28575 -2.357967,-0.04904 -2.762603,0.83537797 -0.418747,0.916869 0.360186,1.798108 1.282348,1.884186 0.09878,0.0092 0.185561,-0.129823 0.102658,-0.204259 -0.159456,-0.143933 -0.284339,-0.250825 -0.453672,-0.385233 -0.735189,-0.584553 -0.136878,-1.444625 0.623005,-1.63159697 0.98037,-0.2413 1.739547,0.31573597 2.29235,1.04139997 0.989895,1.300339 1.158875,2.615494 0.550334,4.12503 -0.04833,0.119945 0.117122,0.187678 0.1905,0.09737 v 0"
         style="fill:#5c7f5e;fill-opacity:1;fill-rule:nonzero;stroke:none;stroke-width:0.0352777"
         id="path312" />
      <path
         d="m 18.44348,6.7392446 c 0.329847,-1.521884 0.436386,-2.894895 1.187097,-4.310239 0.529167,-0.998008 1.831622,-2.60773297 2.996142,-1.349728 0.658989,0.711553 0.489302,1.608314 -0.263525,2.125486 -0.0822,0.05644 -0.02928,0.203906 0.06738,0.202848 2.220383,-0.01764 0.988836,-3.83716397 -0.957086,-3.36761697 -1.480961,0.357717 -2.245783,1.76459397 -2.805641,3.07128297 -0.402167,0.938036 -1.067506,2.732264 -0.371828,3.655483 0.03669,0.04833 0.134055,0.03563 0.147461,-0.02752 v 0"
         style="fill:#5c7f5e;fill-opacity:1;fill-rule:nonzero;stroke:none;stroke-width:0.0352777"
         id="path314" />
      <path
         d="m 19.710658,7.5675666 c 0.03986,0.144639 0.08008,0.291747 0.0762,0.441678 -0.01058,0.389466 -0.318206,0.713316 -0.661459,0.897114 -0.977547,0.523522 -2.248605,0.156986 -3.052939,-0.606425 -0.05468,-0.05186 -0.11183,-0.114653 -0.110419,-0.190148 0.0014,-0.05997 0.03951,-0.112183 0.07303,-0.162277 0.344311,-0.513998 0.306211,-1.1811 0.359481,-1.797756 0.05362,-0.616303 0.297038,-1.319742 0.887588,-1.50495 0.201437,-0.0635 0.418042,-0.05539 0.62865,-0.04586 0.19932,0.0088 0.403225,0.0194 0.585612,0.09948 0.443794,0.194381 0.620536,0.719314 0.7493,1.186392 0.155222,0.560916 0.310091,1.121833 0.464961,1.68275"
         style="fill:#63705f;fill-opacity:1;fill-rule:nonzero;stroke:none;stroke-width:0.0352777"
         id="path316" />
      <path
         d="m 15.396538,9.2132746 c 0.07761,0.395817 0.252942,0.764822 0.426861,1.1288894 0.09455,0.197908 0.198967,0.406753 0.38735,0.518936 0.197909,0.118533 0.449439,0.103364 0.671336,0.04057 0.530578,-0.150636 0.979312,-0.564797 1.171575,-1.0812634 -0.224719,-0.264936 0.240242,-0.349956 0.216606,-0.696736 -0.03316,-0.477662 -0.333728,-0.767999 -0.994128,-1.42346 -0.595489,-0.591255 -1.520825,-0.912283 -1.923697,-1.132063 -0.09454,0.656519 -0.05891,1.323975 -0.02222,1.986138 0.01199,0.220839 0.02399,0.442031 0.06632,0.658989"
         style="fill:#30284f;fill-opacity:1;fill-rule:nonzero;stroke:none;stroke-width:0.0352777"
         id="path318" />
      <path
         d="m 17.740747,10.847342 c -0.420512,-0.1397 -0.619478,-0.659695 -0.52705,-1.0929064 0.09172,-0.433211 0.461786,-1.005769 0.795513,-1.296811 0.563034,-0.492125 1.2192,-0.86748 1.897945,-1.180394 0.291747,-0.134761 0.752828,-0.207081 1.073855,-0.207081 -7.14e-4,0.987425 -0.456141,2.13995 -0.91193,3.0158974 -0.26035,0.499886 -0.687917,1.017058 -1.25095,0.996245 -0.239183,-0.0088 -0.462845,-0.11677 -0.697442,-0.162631 -0.126647,-0.02469 -0.257175,-0.0314 -0.379941,-0.07232"
         style="fill:#30284f;fill-opacity:1;fill-rule:nonzero;stroke:none;stroke-width:0.0352777"
         id="path320" />
      <path
         d="m 18.948305,12.345941 c 0.23495,-0.131586 0.415925,-0.343605 0.553155,-0.575027 0.09525,-0.160161 0.17145,-0.333023 0.205317,-0.516114 0.07267,-0.392995 -0.06456,-0.810683 -0.327378,-1.111603 -0.262819,-0.3009194 -0.64135,-0.4889504 -1.034697,-0.5573884 -0.541514,-0.09454 -1.131358,0.04163 -1.538817,0.410633 -0.407458,0.3690054 -0.60078,0.9775474 -0.425802,1.4982474 0.125589,0.373944 0.424039,0.676627 0.77858,0.848077 0.354895,0.171803 0.761647,0.220134 1.153584,0.182034 0.220838,-0.02152 0.442736,-0.07056 0.636058,-0.178859"
         style="fill:#30284f;fill-opacity:1;fill-rule:nonzero;stroke:none;stroke-width:0.0352777"
         id="path322" />
      <path
         d="m 3.9443125,26.521611 c 0.762353,-0.767997 1.561395,-1.559984 2.582334,-1.918053 1.696155,-0.594783 3.6403135,0.131233 5.3396445,-0.454378 1.242836,-0.428272 2.217914,-1.51765 3.512256,-1.745897 0.530577,-0.09349 1.160991,-0.07091 1.494719,-0.493889 0.116769,-0.148167 0.177094,-0.332317 0.216606,-0.516467 0.0822,-0.382411 0.0829,-0.779286 0.0388,-1.168047 -0.201078,-1.776236 -1.337023,-3.353153 -2.782353,-4.404783 -1.446036,-1.051278 -3.180645,-1.633008 -4.9223085,-2.035175 -1.52012,-0.350308 -3.111853,-0.574675 -4.634089,-0.234244 -0.443089,0.09948 -0.88265,0.249061 -1.253067,0.511527 -0.322439,0.228248 -0.58173,0.5334 -0.827969,0.842081 -1.320095,1.65735 -2.39042196,3.590572 -2.62643096,5.696303 -0.05821,0.518583 -0.06526,1.0414 -0.07197,1.563158 -0.02328,1.741664 -0.0441,3.504494 0.364066,5.197474 0.144992,0.601134 0.455084,1.289402 1.06715296,1.377244 0.364419,0.05221 0.726017,-0.141462 0.987425,-0.40146 0.261408,-0.259644 0.447675,-0.583494 0.668514,-0.878417 0.252236,-0.337608 0.54998,-0.63782 0.846666,-0.936977"
         style="fill:#30284f;fill-opacity:1;fill-rule:nonzero;stroke:none;stroke-width:0.0352777"
         id="path324" />
      <path
         d="m 17.956647,20.297552 c -0.07973,0.40005 -0.160162,0.807509 -0.119239,1.213556 0.04127,0.406047 0.185914,0.925689 0.438855,1.029406 0.68827,0.281163 0.964495,0.67063 2.68217,1.622425 1.293636,0.717197 2.882194,0.297744 4.359627,0.365477 1.749778,0.08043 3.389137,0.934861 4.739922,2.049993 0.923573,0.762704 1.737077,1.648881 2.628548,2.448629 0.256821,0.230717 0.54116,0.46355 0.883354,0.506235 0.365479,0.04551 0.729546,-0.142875 0.982133,-0.411337 0.252238,-0.268465 0.41134,-0.609248 0.558448,-0.947208 0.322792,-0.742598 0.610307,-1.508125 0.740482,-2.30752 0.327729,-2.011186 -0.354542,-4.035072 -1.026584,-5.959122 -0.224721,-0.642761 -0.453321,-1.293284 -0.8255,-1.863372 -0.416983,-0.639234 -1.000479,-1.154289 -1.624896,-1.593498 -2.348441,-1.652763 -5.248979,-2.27965 -8.071907,-2.807405 -0.682272,-0.127706 -1.375833,-0.252236 -2.067983,-0.191558 -1.316214,0.115711 -2.547761,0.949677 -3.142544,2.129719 -0.316442,0.626886 -0.4572,1.325386 -0.595136,2.014008 -0.179564,0.900642 -0.359834,1.800931 -0.53975,2.701572"
         style="fill:#30284f;fill-opacity:1;fill-rule:nonzero;stroke:none;stroke-width:0.0352777"
         id="path326" />
      <path
         d="m 13.708849,21.529805 c 1.344789,0.249767 2.811286,-0.526344 3.360914,-1.778705 0.390172,-0.890059 0.336197,-1.901473 0.316442,-2.873375 -0.02505,-1.265061 0.02117,-2.531886 0.138289,-3.792009 -1.801989,1.298223 -3.311525,2.984148 -4.484159,4.87045 -0.310797,0.499886 -0.604308,1.029406 -0.69215,1.611489 -0.08819,0.582436 0.06562,1.232959 0.521406,1.606197 0.237772,0.194381 0.537633,0.299862 0.839258,0.355953"
         style="fill:#4e6048;fill-opacity:1;fill-rule:nonzero;stroke:none;stroke-width:0.0352777"
         id="path328" />
      <path
         d="m 22.667641,17.266839 c 0.357364,0.661105 0.454025,1.4351 0.431094,2.186869 -0.01482,0.498828 -0.08149,1.004711 -0.288925,1.458736 -0.333022,0.728486 -1.059744,1.2827 -1.859139,1.335617 -0.799394,0.05292 -1.625599,-0.44062 -1.891241,-1.19627 -0.0695,-0.198261 -0.101953,-0.407458 -0.131939,-0.615244 -0.33655,-2.334683 -0.403578,-4.708525 -0.200378,-7.058378 0.858661,0.244122 1.496131,0.947914 2.084564,1.619603 0.351367,0.401461 0.703086,0.802569 1.054453,1.203678 0.293511,0.335139 0.589491,0.673452 0.801511,1.065389"
         style="fill:#4e6048;fill-opacity:1;fill-rule:nonzero;stroke:none;stroke-width:0.0352777"
         id="path330" />
      <path
         d="m 18.916202,12.392861 c -0.123825,-0.184503 -0.127705,-0.696383 -0.287867,-0.850547 -0.441677,-0.42545 -1.400527,-0.593725 -1.541991,0.791633 -0.05292,0.518936 -0.354542,0.979311 -0.32385,1.500011 0.03069,0.520347 -0.384881,0.979664 -0.209903,1.471083 0.700969,1.965678 -0.5588,2.925586 -0.785636,4.270023 -0.05856,0.346427 0.07796,0.698147 0.166158,1.038577 0.09525,0.369359 0.838906,1.845734 1.040342,2.037998 0.201789,0.192263 0.512233,0.29598 0.766586,0.18168 0.194733,-0.08714 0.3175,-0.277636 0.441678,-0.451203 0.353483,-0.496005 0.498828,-0.726369 0.762353,-1.275291 0.364772,-0.761295 0.749652,-1.450975 0.708377,-2.058459 -0.03845,-0.560916 -0.343958,-1.072797 -0.414514,-1.630891 -0.09031,-0.7112 -0.140052,-1.504245 0.239184,-2.462389 0.374297,-0.944386 0.0042,-1.718028 -0.560917,-2.562225"
         style="fill:#5c7f5e;fill-opacity:1;fill-rule:nonzero;stroke:none;stroke-width:0.0352777"
         id="path332" />
      <path
         d="m 7.0738045,16.139361 c -0.189089,0.461433 -0.281869,1.072797 0.250825,1.335969 0.212725,0.104775 0.460728,0.10407 0.687917,0.03704 1.037166,-0.305858 1.958622,-0.98037 2.5706915,-1.870428 -0.351719,0.661811 -0.330905,1.501422 0.03351,2.156883 0.07867,0.14217 0.186267,0.265289 0.315383,0.364067 0.887589,0.679097 1.769534,0.409928 2.200275,0.261408 0.270581,-0.09278 0.512939,-0.25153 0.746478,-0.416983 2.466622,-1.754717 3.781072,-3.789539 3.790245,-6.816372 3.43e-4,-0.16263 -0.03034,-1.12783 -0.249061,-1.9882554 -0.07584,-0.298095 -0.421566,-0.814209 -0.656869,-1.011765 -0.152752,-0.128411 -0.512586,-0.143933 -0.822325,-0.103716 -0.22613,0.02928 -0.432505,0.154516 -0.560564,0.343605 -0.280105,0.414161 -0.758472,0.89782 -1.134533,1.074914 -2.732969,1.2872864 -5.1646665,1.4827254 -8.0966025,2.2101524 -1.158875,0.287867 -2.383014,0.603603 -3.222273,1.453092 -0.348191,0.352072 -0.624063,0.812094 -0.553155,1.327856 0.02258,0.164394 0.08855,0.323497 0.192617,0.452966 0.331611,0.412397 0.806449,0.343253 1.216024,0.210961 0.6858,-0.221897 1.03117,-0.354541 1.529998,-0.874536 -0.431448,0.690386 -0.932039,0.730956 -1.216025,1.280936 -0.08961,0.172861 -0.222603,0.361245 -0.141817,0.538692 0.06068,0.134055 0.211314,0.202494 0.354542,0.235655 0.60325,0.139348 1.214966,-0.143227 1.769533,-0.418394 0.651581,-0.323144 1.31445,-0.653697 1.8415,-1.155347 -0.354894,0.4064 -0.642056,0.872066 -0.846314,1.3716"
         style="fill:#574e87;fill-opacity:1;fill-rule:nonzero;stroke:none;stroke-width:0.0352777"
         id="path334" />
      <path
         d="m 20.239119,8.3997696 c 0.439914,0.123472 0.662516,0.61983 0.957439,0.96908 1.10243,1.3059834 2.751666,2.0189474 4.392436,2.4973144 1.640769,0.478014 3.344686,0.770466 4.91243,1.452386 1.0287,0.447322 1.985433,1.059391 2.823281,1.805164 0.3683,0.32773 0.723546,0.697088 0.888294,1.161344 0.164041,0.461433 0.779285,2.247194 -0.577144,2.2225 -1.017765,-0.01834 -1.772356,-1.271058 -2.254604,-2.375958 0.19685,0.391583 0.07902,1.198033 0.08855,1.636183 0.0092,0.43815 -0.232834,0.914753 -0.656519,1.027289 -0.38735,0.102658 -0.785283,-0.120297 -1.089379,-0.381 -0.595136,-0.509764 -0.648052,-1.538111 -0.846667,-2.296231 -0.02222,0.370417 -0.123825,1.313745 -0.613127,2.03447 -0.07444,0.109714 -0.20955,0.164394 -0.338315,0.195791 -0.375708,0.09137 -0.778933,-0.07938 -1.050925,-0.354188 -0.271285,-0.275167 -0.431093,-0.640292 -0.554565,-1.006475 -0.156281,-0.464962 -0.315736,-0.655109 -0.37077,-1.141942 -0.241652,0.618067 -0.182033,1.213908 -0.61348,1.718733 -0.360539,0.422628 -0.893233,0.792692 -1.794581,0.706967 -1.257652,-0.119945 -1.774825,-0.364067 -3.635022,-2.638778 -0.927805,-1.134533 -1.891241,-4.55683 -1.326797,-6.1199884 0.08643,-0.239536 0.415925,-1.461559 1.659467,-1.112661"
         style="fill:#574e87;fill-opacity:1;fill-rule:nonzero;stroke:none;stroke-width:0.0352777"
         id="path336" />
      <path
         d="m 2.8221265,16.016594 c -1.627716,2.074333 -1.792463,4.558595 -1.99284096,7.09295 -0.07796,0.985308 -0.410986,4.415719 0.94297496,4.818944 0.59443,0.177094 1.037166,-0.482248 0.663928,-0.970492 -0.309034,-0.403928 -0.28822,-1.062919 -0.323145,-1.55081 -0.07302,-1.011767 -0.108655,-2.004131 -0.05468,-3.018014 0.110772,-2.072922 0.2032,-4.196645 1.228019,-6.053667 0.174272,-0.316089 -0.237772,-0.607836 -0.464256,-0.318911 v 0"
         style="fill:#574e87;fill-opacity:1;fill-rule:nonzero;stroke:none;stroke-width:0.0352777"
         id="path338" />
      <path
         d="m 3.9937015,16.6269 c -1.019175,1.19133 -0.995891,2.726266 -1.1049,4.22663 -0.115358,1.584678 -0.333375,3.186289 0.341842,4.675364 0.334081,0.737306 1.526822,0.10795 1.101019,-0.540103 -0.01235,-0.0187 -0.02469,-0.03704 -0.03669,-0.05574 -0.138994,-0.211313 -0.313619,-0.315383 -0.572205,-0.28328 -0.02046,0.0028 -0.04092,0.0053 -0.06103,0.0078 0.222956,0.11042 0.446617,0.220839 0.669925,0.331258 -0.589491,-1.261925 -0.407458,-2.70655 -0.434975,-4.061922 -0.02646,-1.292225 -0.196497,-2.976033 0.333728,-4.179005 0.06632,-0.149931 -0.145344,-0.227895 -0.236714,-0.121003 v 0"
         style="fill:#574e87;fill-opacity:1;fill-rule:nonzero;stroke:none;stroke-width:0.0352777"
         id="path340" />
      <path
         d="m 5.9808995,16.810697 c -1.030464,0.799394 -1.167695,2.450042 -1.321859,3.653014 -0.131586,1.027641 -0.313972,2.668411 0.169334,3.645253 0.379588,0.766938 1.594908,0.170391 1.190977,-0.5842 -0.398286,-0.745067 -0.228952,-2.176992 -0.196497,-2.976387 0.04798,-1.205794 0.436386,-2.377369 0.488245,-3.571875 0.0078,-0.179211 -0.192264,-0.27305 -0.3302,-0.165805 v 0"
         style="fill:#574e87;fill-opacity:1;fill-rule:nonzero;stroke:none;stroke-width:0.0352777"
         id="path342" />
      <path
         d="m 7.1697605,17.822464 c -0.752828,0.66428 -0.664281,1.708855 -0.689328,2.634897 -0.02716,0.999772 -0.06597,2.100791 0.198614,3.078339 0.06879,0.253647 0.282575,0.512586 0.572911,0.506589 0.02328,-7.15e-4 0.04657,-0.0011 0.0695,-0.0018 0.258586,-0.0053 0.434269,-0.118181 0.542219,-0.353484 0.225778,-0.490334 -0.131233,-1.698245 -0.198966,-2.223178 -0.144639,-1.121128 -0.23742,-2.336447 -0.134056,-3.460044 0.01729,-0.189795 -0.219075,-0.306211 -0.360891,-0.181328 v 0"
         style="fill:#574e87;fill-opacity:1;fill-rule:nonzero;stroke:none;stroke-width:0.0352777"
         id="path344" />
      <path
         d="m 9.3001855,17.737444 c -0.697089,0.571147 -0.76447,1.694745 -0.8255,2.528006 -0.07867,1.076677 0.220133,2.075391 0.420158,3.119966 0.1524,0.795867 1.3091585,0.543631 1.2184945,-0.242005 -0.0956,-0.828675 -0.4575525,-1.596672 -0.5475115,-2.433461 -0.100541,-0.935567 -0.134055,-1.887714 0.04269,-2.817284 0.03246,-0.170391 -0.19438,-0.248355 -0.308327,-0.155222 v 0"
         style="fill:#574e87;fill-opacity:1;fill-rule:nonzero;stroke:none;stroke-width:0.0352777"
         id="path346" />
      <path
         d="m 10.75363,18.81765 c -0.576792,1.408994 -0.382411,3.280833 0.436386,4.579055 0.509764,0.807861 1.639711,0.06244 1.092553,-0.722136 -0.416984,-0.598664 -0.591256,-1.44533 -0.733072,-2.149828 -0.116417,-0.578908 -0.03563,-1.300339 -0.420159,-1.777294 -0.109361,-0.135467 -0.31503,-0.07726 -0.375708,0.0702 v 0"
         style="fill:#574e87;fill-opacity:1;fill-rule:nonzero;stroke:none;stroke-width:0.0352777"
         id="path348" />
      <path
         d="m 33.288722,19.346464 c 0.232127,1.469319 0.421216,3.010252 0.475191,4.496858 0.02963,0.826911 -0.136173,1.607608 -0.349956,2.399947 -0.125235,0.461786 -0.45579,0.991307 -0.446969,1.459442 0.0042,0.223308 0.107244,0.43815 0.334434,0.512937 0.03598,0.01164 0.07126,0.02328 0.107243,0.03492 0.280811,0.09208 0.612069,0.0035 0.778227,-0.252235 0.713671,-1.102077 0.997305,-2.954866 0.871009,-4.235097 -0.137936,-1.391708 -0.281517,-3.58775 -1.352902,-4.62033 -0.17004,-0.163689 -0.455436,-0.04516 -0.416277,0.203553 v 0"
         style="fill:#574e87;fill-opacity:1;fill-rule:nonzero;stroke:none;stroke-width:0.0352777"
         id="path350" />
      <path
         d="m 31.813757,18.574586 c -0.259292,1.3335 -0.02893,2.753078 -0.143581,4.109155 -0.07937,0.940153 -0.03916,2.47015 -0.561621,3.269192 -0.471665,0.721785 0.621242,1.472847 1.102077,0.757061 0.684742,-1.018822 0.537281,-2.352322 0.657225,-3.522839 0.152752,-1.496483 -0.03845,-3.31223 -0.63006,-4.695119 -0.09701,-0.226131 -0.385588,-0.115359 -0.42404,0.08255 v 0"
         style="fill:#574e87;fill-opacity:1;fill-rule:nonzero;stroke:none;stroke-width:0.0352777"
         id="path352" />
      <path
         d="m 30.18604,19.190536 c -0.393348,0.801511 -0.336902,1.85173 -0.466725,2.730147 -0.131585,0.889 -0.492125,1.641475 -0.759177,2.480733 -0.218016,0.682625 0.747536,1.229078 1.146527,0.584906 1.039636,-1.679928 1.242836,-4.020608 0.447323,-5.816953 -0.07726,-0.174272 -0.297746,-0.122061 -0.367948,0.02117 v 0"
         style="fill:#574e87;fill-opacity:1;fill-rule:nonzero;stroke:none;stroke-width:0.0352777"
         id="path354" />
      <path
         d="m 28.739299,18.508616 c -0.48754,0.621948 -0.580673,1.443214 -0.773994,2.196395 -0.267758,1.041047 -0.642408,2.0447 -0.959204,3.070578 -0.252942,0.819855 1.004358,1.267177 1.254831,0.446616 0.499885,-1.637947 1.516944,-4.011789 0.70485,-5.697008 -0.04516,-0.09349 -0.166865,-0.09243 -0.226483,-0.01658 v 0"
         style="fill:#574e87;fill-opacity:1;fill-rule:nonzero;stroke:none;stroke-width:0.0352777"
         id="path356" />
      <path
         d="m 25.968582,17.957225 c -0.208138,0.968022 0.02963,1.97238 -0.186619,2.9591 -0.198261,0.903111 -0.771525,1.63583 -0.952147,2.514952 -0.08573,0.41522 0.420511,0.619125 0.73413,0.495653 0.916163,-0.361244 1.212144,-1.555044 1.394178,-2.441928 0.23636,-1.151113 0.140052,-2.701572 -0.73025,-3.576461 -0.07091,-0.07126 -0.233186,-0.07338 -0.259292,0.04868 v 0"
         style="fill:#574e87;fill-opacity:1;fill-rule:nonzero;stroke:none;stroke-width:0.0352777"
         id="path358" />
      <path
         d="m 24.447757,18.754855 c -0.778227,1.369131 -0.825852,3.066697 -2.066572,4.164542 -0.534811,0.473075 0.04057,1.357842 0.68827,1.040694 1.545166,-0.756708 2.258483,-3.620911 1.76283,-5.126214 -0.0508,-0.154869 -0.282575,-0.258938 -0.384528,-0.07902 v 0"
         style="fill:#574e87;fill-opacity:1;fill-rule:nonzero;stroke:none;stroke-width:0.0352777"
         id="path360" />
      <path
         d="m 14.410524,11.489044 c -0.0092,-0.0025 -0.01834,-0.0046 -0.02752,-0.0067 -0.05186,-0.04621 -0.103717,-0.09243 -0.155223,-0.138642 0.0035,0.006 0.0067,0.01199 0.01023,0.01799 0.06244,0.106891 0.172156,0.172861 0.299508,0.147813 0.135114,-0.02681 0.258587,-0.179211 0.214842,-0.321733 -0.03528,-0.116064 -0.1016,-0.216605 -0.226836,-0.24518 -0.149578,-0.03387 -0.304094,0.01376 -0.359833,0.171097 -0.05786,0.162278 0.05927,0.376061 0.244827,0.375355 v 0"
         style="fill:#88bf8a;fill-opacity:1;fill-rule:nonzero;stroke:none;stroke-width:0.0352777"
         id="path362" />
      <path
         d="m 15.885841,9.7830106 c -0.02434,-0.0049 -0.04939,-0.0099 -0.07373,-0.01482 -0.04339,-0.0085 -0.09666,0.02187 -0.119591,0.0575 -0.02999,0.04692 -0.03281,0.08255 -0.0095,0.133703 0.01729,0.03845 0.06562,0.0762 0.109361,0.07408 0.0254,-0.0014 0.05045,-0.0025 0.07549,-0.0039 0.160161,-0.0081 0.175331,-0.215549 0.01799,-0.246593 v 0"
         style="fill:#88bf8a;fill-opacity:1;fill-rule:nonzero;stroke:none;stroke-width:0.0352777"
         id="path364" />
      <path
         d="m 15.857266,12.043964 c 0.0042,0.09842 0.03246,0.154164 0.123119,0.198261 0.14852,0.07267 0.242006,-0.153811 0.124884,-0.245181 0.01341,0.02258 0.02716,0.04516 0.04057,0.06773 0.02187,-0.188737 -0.29598,-0.204612 -0.288572,-0.02082 v 0"
         style="fill:#88bf8a;fill-opacity:1;fill-rule:nonzero;stroke:none;stroke-width:0.0352777"
         id="path366" />
      <path
         d="m 13.533166,13.31608 c 7.15e-4,0.0092 0.0014,0.01799 0.0018,0.02716 0.0074,0.121003 0.2159,0.136172 0.240947,0.01764 0.0018,-0.0092 0.0035,-0.01799 0.0053,-0.02681 0.04339,-0.205317 -0.260703,-0.227542 -0.248003,-0.01799 v 0"
         style="fill:#88bf8a;fill-opacity:1;fill-rule:nonzero;stroke:none;stroke-width:0.0352777"
         id="path368" />
      <path
         d="m 11.650744,11.971644 c 0.0088,-0.0025 0.01728,-0.0049 0.02611,-0.0074 0.113595,-0.03175 0.124178,-0.176389 0.01623,-0.224367 -0.0081,-0.0039 -0.01658,-0.0074 -0.02469,-0.01129 -0.19685,-0.08749 -0.225073,0.301272 -0.01764,0.243064 v 0"
         style="fill:#88bf8a;fill-opacity:1;fill-rule:nonzero;stroke:none;stroke-width:0.0352777"
         id="path370" />
      <path
         d="m 8.0718125,13.367233 c 0.0032,0.02399 0.0063,0.04798 0.0092,0.07161 0.01376,0.108303 0.185209,0.12065 0.214489,0.01552 0.0063,-0.02293 0.01305,-0.04621 0.0194,-0.0695 0.05574,-0.200378 -0.269169,-0.224014 -0.243063,-0.01764 v 0"
         style="fill:#88bf8a;fill-opacity:1;fill-rule:nonzero;stroke:none;stroke-width:0.0352777"
         id="path372" />
      <path
         d="m 10.913085,14.675333 c 0.155928,0.01164 0.173567,-0.230011 0.01764,-0.2413 -0.155575,-0.01164 -0.173214,0.230011 -0.01764,0.2413 v 0"
         style="fill:#88bf8a;fill-opacity:1;fill-rule:nonzero;stroke:none;stroke-width:0.0352777"
         id="path374" />
      <path
         d="m 11.347708,13.349241 c 0.07444,0.0053 0.0829,-0.110066 0.0085,-0.115711 -0.07479,-0.0053 -0.0829,0.110067 -0.0085,0.115711 v 0"
         style="fill:#88bf8a;fill-opacity:1;fill-rule:nonzero;stroke:none;stroke-width:0.0352777"
         id="path376" />
      <path
         d="m 8.0919215,12.454597 c 0.09807,0.0071 0.109008,-0.144992 0.01094,-0.1524 -0.09807,-0.0071 -0.109361,0.144992 -0.01094,0.1524 v 0"
         style="fill:#88bf8a;fill-opacity:1;fill-rule:nonzero;stroke:none;stroke-width:0.0352777"
         id="path378" />
      <path
         d="m 14.677224,15.549869 c 0.202848,0.01482 0.226131,-0.300214 0.02293,-0.31503 -0.202848,-0.01482 -0.226131,0.300213 -0.02293,0.31503 v 0"
         style="fill:#88bf8a;fill-opacity:1;fill-rule:nonzero;stroke:none;stroke-width:0.0352777"
         id="path380" />
      <path
         d="m 15.965216,13.840661 c -0.02716,0.0035 -0.04057,0.0078 -0.06421,0.02081 -0.03387,0.01834 -0.03704,0.06279 -0.0067,0.08608 0.02187,0.01623 0.03422,0.02223 0.06068,0.02963 0.112888,0.03281 0.126294,-0.1524 0.01023,-0.136525 v 0"
         style="fill:#88bf8a;fill-opacity:1;fill-rule:nonzero;stroke:none;stroke-width:0.0352777"
         id="path382" />
      <path
         d="m 19.748758,10.071583 c 0.138994,0.01023 0.154869,-0.2049634 0.01588,-0.2148414 -0.138642,-0.01023 -0.154164,0.2049634 -0.01588,0.2148414 v 0"
         style="fill:#88bf8a;fill-opacity:1;fill-rule:nonzero;stroke:none;stroke-width:0.0352777"
         id="path384" />
      <path
         d="m 21.003235,10.627561 c 0.08431,0.0063 0.09419,-0.124883 0.0095,-0.131233 -0.08467,-0.006 -0.09419,0.125236 -0.0095,0.131233 v 0"
         style="fill:#88bf8a;fill-opacity:1;fill-rule:nonzero;stroke:none;stroke-width:0.0352777"
         id="path386" />
      <path
         d="m 20.005933,11.9533 c 0.145344,0.01058 0.161925,-0.214842 0.01623,-0.225778 -0.145344,-0.01058 -0.161925,0.215194 -0.01623,0.225778 v 0"
         style="fill:#88bf8a;fill-opacity:1;fill-rule:nonzero;stroke:none;stroke-width:0.0352777"
         id="path388" />
      <path
         d="m 21.466785,12.760103 c 0.104775,0.0078 0.11677,-0.155223 0.01199,-0.162631 -0.105128,-0.0078 -0.11677,0.154869 -0.01199,0.162631 v 0"
         style="fill:#88bf8a;fill-opacity:1;fill-rule:nonzero;stroke:none;stroke-width:0.0352777"
         id="path390" />
      <path
         d="m 20.88823,13.686144 c -0.09631,-0.04727 -0.184503,-0.01623 -0.268111,0.03986 -0.122061,0.08184 -0.08819,0.278342 0.0194,0.352425 0.14605,0.100895 0.32632,-0.0032 0.348897,-0.167569 7.15e-4,-0.006 0.0014,-0.01199 0.0025,-0.01799 -0.02505,0.04868 -0.04939,0.09737 -0.07373,0.146403 -0.0028,0.0018 -0.0056,0.0035 -0.0085,0.0053 0.173567,-0.07091 0.115005,-0.291394 -0.02046,-0.358422 v 0"
         style="fill:#88bf8a;fill-opacity:1;fill-rule:nonzero;stroke:none;stroke-width:0.0352777"
         id="path392" />
      <path
         d="m 23.495258,12.646155 c 0.0032,-0.0085 0.006,-0.01693 0.0092,-0.02505 -0.01693,0.02469 -0.03387,0.04904 -0.05045,0.07373 0.0085,-0.01058 0.01799,-0.01976 0.02893,-0.02716 0.142875,-0.11183 0.01623,-0.327378 -0.147108,-0.300919 -0.132997,0.02117 -0.179211,0.134055 -0.164394,0.255411 0.02081,0.170744 0.270933,0.173919 0.32385,0.02399 v 0"
         style="fill:#88bf8a;fill-opacity:1;fill-rule:nonzero;stroke:none;stroke-width:0.0352777"
         id="path394" />
      <path
         d="m 22.572391,11.492219 c 0.108655,0.0081 0.12065,-0.159808 0.01235,-0.167922 -0.108303,-0.0078 -0.120297,0.160161 -0.01235,0.167922 v 0"
         style="fill:#88bf8a;fill-opacity:1;fill-rule:nonzero;stroke:none;stroke-width:0.0352777"
         id="path396" />
      <path
         d="m 22.955155,14.734953 c 0.26035,0.01905 0.289983,-0.385234 0.02928,-0.403931 -0.26035,-0.01905 -0.289983,0.385233 -0.02928,0.403931 v 0"
         style="fill:#88bf8a;fill-opacity:1;fill-rule:nonzero;stroke:none;stroke-width:0.0352777"
         id="path398" />
      <path
         d="m 23.064516,16.089619 c 0.0088,-3.44e-4 0.01799,-0.0011 0.02716,-0.0018 0.138641,-0.0085 0.155928,-0.247297 0.02011,-0.276225 -0.0088,-0.0018 -0.01764,-0.0035 -0.02681,-0.0056 -0.23495,-0.04939 -0.259997,0.298803 -0.02046,0.283633 v 0"
         style="fill:#88bf8a;fill-opacity:1;fill-rule:nonzero;stroke:none;stroke-width:0.0352777"
         id="path400" />
      <path
         d="m 21.322499,15.506125 c 0.03069,0.0021 0.03422,-0.04516 0.0035,-0.04727 -0.03034,-0.0021 -0.03387,0.0448 -0.0035,0.04727 v 0"
         style="fill:#88bf8a;fill-opacity:1;fill-rule:nonzero;stroke:none;stroke-width:0.0352777"
         id="path402" />
      <path
         d="m 21.191971,15.729433 c 0.0014,0.0088 0.0028,0.01799 0.0039,0.02681 0.01658,0.109008 0.183797,0.121356 0.2159,0.01587 0.0028,-0.0088 0.0053,-0.01728 0.0081,-0.02611 0.0568,-0.187325 -0.257175,-0.209903 -0.227894,-0.01658 v 0"
         style="fill:#88bf8a;fill-opacity:1;fill-rule:nonzero;stroke:none;stroke-width:0.0352777"
         id="path404" />
      <path
         d="m 25.765382,13.2487 c -0.02469,-0.0021 -0.04974,-0.0035 -0.07444,-0.0046 -0.17533,-0.0095 -0.194733,0.255058 -0.02011,0.271286 0.02505,0.0028 0.04974,0.0046 0.07479,0.0063 0.176036,0.0127 0.195792,-0.26035 0.01976,-0.27305 v 0"
         style="fill:#88bf8a;fill-opacity:1;fill-rule:nonzero;stroke:none;stroke-width:0.0352777"
         id="path406" />
      <path
         d="m 28.138517,13.7059 c 0.0032,-0.0039 0.006,-0.0074 0.0092,-0.01093 0.0321,-0.04057 0.03739,-0.112184 0.0113,-0.156986 -0.0024,-0.0042 -0.0049,-0.0081 -0.0071,-0.01235 -0.08678,-0.148519 -0.325615,-0.12065 -0.339019,0.06597 -0.01376,0.186619 0.21872,0.249061 0.325612,0.1143 v 0"
         style="fill:#88bf8a;fill-opacity:1;fill-rule:nonzero;stroke:none;stroke-width:0.0352777"
         id="path408" />
      <path
         d="m 17.724519,5.4156226 c 0.385586,0.05503 0.592666,0.478719 0.680508,0.809977 0.07867,0.297392 -0.04163,0.62477 0.0755,0.90805 0.0321,0.07867 0.132291,0.102306 0.204258,0.06985 0.454378,-0.205316 0.28963,-0.936272 0.146755,-1.287991 -0.193675,-0.476603 -0.592313,-0.72637 -1.0922,-0.70485 -0.130527,0.0056 -0.148166,0.185561 -0.01482,0.204964 v 0"
         style="fill:#88bf8a;fill-opacity:1;fill-rule:nonzero;stroke:none;stroke-width:0.0352777"
         id="path410" />
      <path
         d="m 18.635038,15.162872 c -0.536575,0.484364 -0.501297,1.2319 -0.420511,1.901119 0.09701,0.80892 0.166158,1.545873 -0.0042,2.357614 -0.134056,0.637822 -0.504825,1.164167 -0.569736,1.815042 -0.02046,0.207433 0.220839,0.295275 0.369711,0.185561 0.770819,-0.568325 0.985661,-1.649236 1.084439,-2.55905 0.109714,-1.016353 -0.842434,-2.68605 -0.31997,-3.57505 0.05292,-0.08961 -0.05644,-0.200731 -0.1397,-0.125236 v 0"
         style="fill:#88bf8a;fill-opacity:1;fill-rule:nonzero;stroke:none;stroke-width:0.0352777"
         id="path412" />
      <path
         d="m 14.800344,18.49133 c 0.209903,0.01517 0.233539,-0.310091 0.02364,-0.325614 -0.20955,-0.01517 -0.233539,0.310092 -0.02364,0.325614 v 0"
         style="fill:#5c7f5e;fill-opacity:1;fill-rule:nonzero;stroke:none;stroke-width:0.0352777"
         id="path414" />
      <path
         d="m 14.937927,18.920661 c -0.07056,-0.01341 -0.14993,-0.01164 -0.21343,0.02611 -0.281164,0.166159 -0.07973,0.595136 0.225072,0.458964 0.0039,-0.0014 0.0078,-0.0032 0.01164,-0.0049 -0.0441,0.0085 -0.08784,0.01693 -0.131586,0.0254 -0.03563,-0.01164 -0.03492,-0.01164 0.0021,0 0.135467,0.04233 0.283633,-0.02081 0.332669,-0.158044 0.06174,-0.17392 -0.0635,-0.316089 -0.226483,-0.347486 v 0"
         style="fill:#5c7f5e;fill-opacity:1;fill-rule:nonzero;stroke:none;stroke-width:0.0352777"
         id="path416" />
      <path
         d="m 14.114544,18.84058 c 3.44e-4,0.0049 3.44e-4,0.0099 7.14e-4,0.01482 -0.02222,0.03245 -0.04445,0.06491 -0.06668,0.09737 0.0053,-0.0046 0.01023,-0.0092 0.01552,-0.01376 0.200731,-0.1778 -0.01411,-0.469194 -0.248355,-0.375708 -0.05856,0.02328 -0.108303,0.06879 -0.137936,0.124178 -0.07161,0.134055 -0.04057,0.305152 0.117122,0.361244 0.155222,0.05503 0.297039,-0.05609 0.319617,-0.208139 v 0"
         style="fill:#5c7f5e;fill-opacity:1;fill-rule:nonzero;stroke:none;stroke-width:0.0352777"
         id="path418" />
      <path
         d="m 13.731074,20.0305 c 0.335139,0.02469 0.372886,-0.494948 0.03775,-0.519642 -0.334787,-0.02434 -0.372887,0.4953 -0.03775,0.519642 v 0"
         style="fill:#5c7f5e;fill-opacity:1;fill-rule:nonzero;stroke:none;stroke-width:0.0352777"
         id="path420" />
      <path
         d="m 15.508722,17.811175 c 0.0011,0.0092 0.0025,0.01799 0.0032,0.02716 0.02434,0.180622 0.30868,0.201436 0.358775,0.02611 0.0025,-0.0088 0.0049,-0.01729 0.0074,-0.02611 0.03387,-0.118887 -0.03669,-0.246592 -0.167217,-0.256117 -0.130528,-0.0095 -0.218722,0.106539 -0.202141,0.228953 v 0"
         style="fill:#5c7f5e;fill-opacity:1;fill-rule:nonzero;stroke:none;stroke-width:0.0352777"
         id="path422" />
      <path
         d="m 16.200519,17.048822 c 0.250472,0.01834 0.278694,-0.370064 0.02822,-0.388408 -0.250472,-0.01834 -0.279047,0.370416 -0.02822,0.388408 v 0"
         style="fill:#5c7f5e;fill-opacity:1;fill-rule:nonzero;stroke:none;stroke-width:0.0352777"
         id="path424" />
      <path
         d="m 15.66606,18.488861 c -0.0085,0.0021 -0.01764,0.0039 -0.02611,0.006 -0.119944,0.02787 -0.131939,0.192264 -0.01764,0.237067 0.0085,0.0035 0.01693,0.0067 0.02505,0.0099 0.206375,0.08079 0.234245,-0.303036 0.0187,-0.252941 v 0"
         style="fill:#5c7f5e;fill-opacity:1;fill-rule:nonzero;stroke:none;stroke-width:0.0352777"
         id="path426" />
      <path
         d="m 15.444163,20.071775 c -0.03387,0.01023 -0.05927,0.01834 -0.08467,0.04374 -0.03104,0.0314 -0.03422,0.07232 -0.0081,0.107597 0.02187,0.02928 0.04551,0.04092 0.07796,0.05609 0.167216,0.07973 0.191911,-0.262114 0.01482,-0.207433 v 0"
         style="fill:#5c7f5e;fill-opacity:1;fill-rule:nonzero;stroke:none;stroke-width:0.0352777"
         id="path428" />
      <path
         d="m 14.428516,20.501105 c 0.223308,0.01623 0.248708,-0.3302 0.02505,-0.346428 -0.222956,-0.01623 -0.248708,0.3302 -0.02505,0.346428 v 0"
         style="fill:#5c7f5e;fill-opacity:1;fill-rule:nonzero;stroke:none;stroke-width:0.0352777"
         id="path430" />
      <path
         d="m 13.102777,19.383505 c 0.213431,0.01517 0.23742,-0.315383 0.02434,-0.330905 -0.213431,-0.01552 -0.23742,0.31503 -0.02434,0.330905 v 0"
         style="fill:#5c7f5e;fill-opacity:1;fill-rule:nonzero;stroke:none;stroke-width:0.0352777"
         id="path432" />
      <path
         d="m 13.188502,20.5258 c 0.226483,0.01658 0.252236,-0.335139 0.0254,-0.35172 -0.226836,-0.01658 -0.252236,0.335139 -0.0254,0.35172 v 0"
         style="fill:#5c7f5e;fill-opacity:1;fill-rule:nonzero;stroke:none;stroke-width:0.0352777"
         id="path434" />
      <path
         d="m 13.793516,20.841889 c -0.0088,7.14e-4 -0.01764,0.0018 -0.02716,0.0025 -0.165805,0.01376 -0.186267,0.292806 -0.02399,0.330553 0.0088,0.0021 0.01799,0.0042 0.02646,0.0064 0.280811,0.06526 0.312208,-0.363361 0.02469,-0.339372 v 0"
         style="fill:#5c7f5e;fill-opacity:1;fill-rule:nonzero;stroke:none;stroke-width:0.0352777"
         id="path436" />
      <path
         d="m 14.780235,20.949133 c 0.0028,0.0088 0.0056,0.01729 0.0081,0.02611 0.03492,0.112889 0.172156,0.122766 0.223309,0.01623 0.0035,-0.0081 0.0078,-0.01623 0.01164,-0.02434 0.09384,-0.195792 -0.307269,-0.225073 -0.243063,-0.01799 v 0"
         style="fill:#5c7f5e;fill-opacity:1;fill-rule:nonzero;stroke:none;stroke-width:0.0352777"
         id="path438" />
      <path
         d="m 19.728297,16.266714 c -0.0053,0.03951 -0.0035,0.06914 0.0046,0.108302 0.02611,0.119592 0.194027,0.131586 0.236714,0.01693 0.01411,-0.03704 0.02011,-0.06597 0.02081,-0.106186 0.0035,-0.169687 -0.240947,-0.187678 -0.262113,-0.01905 v 0"
         style="fill:#5c7f5e;fill-opacity:1;fill-rule:nonzero;stroke:none;stroke-width:0.0352777"
         id="path440" />
      <path
         d="m 20.111413,17.228386 c 0.0028,-0.0039 0.0056,-0.0074 0.0088,-0.01129 0.03175,-0.03986 0.03669,-0.11042 0.01093,-0.154164 -0.0021,-0.0039 -0.0042,-0.0081 -0.0067,-0.01235 -0.08537,-0.146403 -0.320675,-0.118886 -0.334433,0.06491 -0.01341,0.183797 0.215547,0.245181 0.32138,0.112889 v 0"
         style="fill:#5c7f5e;fill-opacity:1;fill-rule:nonzero;stroke:none;stroke-width:0.0352777"
         id="path442" />
      <path
         d="m 20.704433,17.034358 c -0.0092,0 -0.0187,0 -0.02822,0 -0.187677,-0.0011 -0.20708,0.263878 -0.02082,0.290336 0.0092,0.0011 0.01834,0.0025 0.02787,0.0039 0.188383,0.02646 0.211666,-0.293159 0.02117,-0.294217 v 0"
         style="fill:#5c7f5e;fill-opacity:1;fill-rule:nonzero;stroke:none;stroke-width:0.0352777"
         id="path444" />
      <path
         d="m 20.22148,18.097983 c 0.0085,-0.0028 0.01729,-0.0053 0.02611,-0.0081 0.153812,-0.04798 0.167217,-0.234597 0.02223,-0.304094 -0.0085,-0.0039 -0.01658,-0.0078 -0.02469,-0.01199 -0.100542,-0.04798 -0.217311,0.04621 -0.224367,0.146756 -0.0074,0.100189 0.09419,0.210608 0.200731,0.177447 v 0"
         style="fill:#5c7f5e;fill-opacity:1;fill-rule:nonzero;stroke:none;stroke-width:0.0352777"
         id="path446" />
      <path
         d="m 20.884349,17.814702 c -0.0021,0.0092 -0.0039,0.01834 -0.006,0.02752 -0.0575,0.275872 0.449792,0.312914 0.432858,0.03175 -7.14e-4,-0.0095 -0.0011,-0.01905 -0.0018,-0.02822 -0.01658,-0.276225 -0.368653,-0.301625 -0.425097,-0.03104 v 0"
         style="fill:#5c7f5e;fill-opacity:1;fill-rule:nonzero;stroke:none;stroke-width:0.0352777"
         id="path448" />
      <path
         d="m 21.958558,18.36433 c 0.243416,0.01799 0.271286,-0.360186 0.02752,-0.377825 -0.243416,-0.01799 -0.271286,0.360186 -0.02752,0.377825 v 0"
         style="fill:#5c7f5e;fill-opacity:1;fill-rule:nonzero;stroke:none;stroke-width:0.0352777"
         id="path450" />
      <path
         d="m 21.324263,18.415483 c -0.11183,-0.03669 -0.190147,-0.0067 -0.266347,0.07867 -0.16757,0.188031 0.217664,0.436739 0.327378,0.167217 0.0025,-0.006 0.0053,-0.0127 0.0074,-0.0187 -0.01729,0.0254 -0.03457,0.0508 -0.05221,0.07655 0.0053,-0.0042 0.0099,-0.0085 0.01517,-0.0127 -0.02681,0.01305 -0.05362,0.02646 -0.08079,0.03951 0.0088,-0.0021 0.01693,-0.0042 0.02575,-0.0063 0.155223,-0.03916 0.189089,-0.269522 0.02364,-0.324203 v 0"
         style="fill:#5c7f5e;fill-opacity:1;fill-rule:nonzero;stroke:none;stroke-width:0.0352777"
         id="path452" />
      <path
         d="m 20.452197,18.949236 c 0.0095,0.0014 0.0187,0.0028 0.02787,0.0039 0.197908,0.02787 0.22225,-0.306916 0.02258,-0.307975 -0.0092,0 -0.0187,-3.44e-4 -0.02822,-3.44e-4 -0.197203,-0.0011 -0.217312,0.276931 -0.02222,0.304448 v 0"
         style="fill:#5c7f5e;fill-opacity:1;fill-rule:nonzero;stroke:none;stroke-width:0.0352777"
         id="path454" />
      <path
         d="m 20.450433,19.745102 c 0.206375,0.01517 0.230011,-0.305152 0.02363,-0.319969 -0.206728,-0.01517 -0.230011,0.3048 -0.02363,0.319969 v 0"
         style="fill:#5c7f5e;fill-opacity:1;fill-rule:nonzero;stroke:none;stroke-width:0.0352777"
         id="path456" />
      <path
         d="m 21.295335,19.737341 c 0.189795,0.01376 0.211314,-0.280105 0.02187,-0.293864 -0.190147,-0.01411 -0.211314,0.280106 -0.02187,0.293864 v 0"
         style="fill:#5c7f5e;fill-opacity:1;fill-rule:nonzero;stroke:none;stroke-width:0.0352777"
         id="path458" />
      <path
         d="m 21.911285,19.009914 c -0.0092,0 -0.0187,-3.44e-4 -0.02787,-3.44e-4 -0.22225,-0.0046 -0.245533,0.315736 -0.02505,0.343605 0.0092,0.0011 0.01834,0.0021 0.02787,0.0032 0.222603,0.02787 0.249414,-0.341489 0.02505,-0.346428 v 0"
         style="fill:#5c7f5e;fill-opacity:1;fill-rule:nonzero;stroke:none;stroke-width:0.0352777"
         id="path460" />
      <path
         d="m 22.655294,18.847989 c 0.148519,0.01093 0.165452,-0.220134 0.01658,-0.23107 -0.148872,-0.01093 -0.165806,0.220133 -0.01658,0.23107 v 0"
         style="fill:#5c7f5e;fill-opacity:1;fill-rule:nonzero;stroke:none;stroke-width:0.0352777"
         id="path462" />
      <path
         d="m 22.681399,20.030852 c 0.220134,0.01623 0.244828,-0.324908 0.02469,-0.340783 -0.219781,-0.01623 -0.244828,0.324908 -0.02469,0.340783 v 0"
         style="fill:#5c7f5e;fill-opacity:1;fill-rule:nonzero;stroke:none;stroke-width:0.0352777"
         id="path464" />
      <path
         d="m 21.923633,20.382925 c 0.237066,0.01729 0.263877,-0.349956 0.02681,-0.367595 -0.236714,-0.01693 -0.263525,0.350309 -0.02681,0.367595 v 0"
         style="fill:#5c7f5e;fill-opacity:1;fill-rule:nonzero;stroke:none;stroke-width:0.0352777"
         id="path466" />
      <path
         d="m 21.122474,20.568133 c 0.26035,0.01905 0.289984,-0.385233 0.02928,-0.404283 -0.26035,-0.0187 -0.289984,0.385233 -0.02928,0.404283 v 0"
         style="fill:#5c7f5e;fill-opacity:1;fill-rule:nonzero;stroke:none;stroke-width:0.0352777"
         id="path468" />
      <path
         d="m 20.273691,20.621755 c 0.0081,0.0032 0.01658,0.0064 0.02505,0.0095 0.135114,0.05115 0.284339,-0.0508 0.294922,-0.192264 0.01023,-0.141111 -0.122767,-0.263877 -0.263878,-0.232833 -0.0088,0.0018 -0.01764,0.0035 -0.02611,0.0056 -0.207433,0.04516 -0.2286,0.335139 -0.02999,0.409927 v 0"
         style="fill:#5c7f5e;fill-opacity:1;fill-rule:nonzero;stroke:none;stroke-width:0.0352777"
         id="path470" />
      <path
         d="m 19.803085,20.886691 c -0.03175,0.03493 -0.05821,0.0635 -0.07479,0.108656 -0.02223,0.05962 0,0.138994 0.05609,0.172861 0.0039,0.0021 0.0078,0.0046 0.01164,0.0067 0.104422,0.06279 0.24765,-0.01658 0.221544,-0.145697 -0.0011,-0.0046 -0.0021,-0.0088 -0.0028,-0.01305 -0.01623,0.04727 -0.03246,0.09454 -0.04904,0.141816 0.0046,-0.0021 0.0088,-0.0035 0.01305,-0.0056 0.225072,-0.09737 -0.02187,-0.434622 -0.175683,-0.265642 v 0"
         style="fill:#5c7f5e;fill-opacity:1;fill-rule:nonzero;stroke:none;stroke-width:0.0352777"
         id="path472" />
      <path
         d="m 20.783455,21.110352 c -0.0056,0.0039 -0.01094,0.0078 -0.01623,0.01164 -0.06914,0.04939 -0.07832,0.175331 -0.01729,0.234245 0.0049,0.0046 0.0095,0.0095 0.01411,0.01376 0.111477,0.107597 0.310797,0.0642 0.323144,-0.106892 0.0127,-0.171097 -0.178505,-0.243064 -0.303742,-0.152753 v 0"
         style="fill:#5c7f5e;fill-opacity:1;fill-rule:nonzero;stroke:none;stroke-width:0.0352777"
         id="path474" />
      <path
         d="m 20.451491,22.042744 c 0.193322,0.01411 0.215194,-0.285397 0.02222,-0.299508 -0.192969,-0.01376 -0.214842,0.285397 -0.02222,0.299508 v 0"
         style="fill:#5c7f5e;fill-opacity:1;fill-rule:nonzero;stroke:none;stroke-width:0.0352777"
         id="path476" />
      <path
         d="m 21.574383,21.550266 c -0.0088,0.0014 -0.01799,0.0028 -0.02681,0.0046 -0.136525,0.02328 -0.151694,0.227541 -0.01976,0.270227 0.0088,0.0032 0.01728,0.0056 0.02575,0.0085 0.232833,0.07585 0.261761,-0.324555 0.02081,-0.28328 v 0"
         style="fill:#5c7f5e;fill-opacity:1;fill-rule:nonzero;stroke:none;stroke-width:0.0352777"
         id="path478" />
      <path
         d="m 21.807921,21.197841 c 0.210256,0.01552 0.233892,-0.310091 0.02399,-0.325261 -0.209903,-0.01552 -0.233892,0.310092 -0.02399,0.325261 v 0"
         style="fill:#5c7f5e;fill-opacity:1;fill-rule:nonzero;stroke:none;stroke-width:0.0352777"
         id="path480" />
      <path
         d="m 22.617899,20.899744 c 0.257528,0.01905 0.286456,-0.379942 0.02928,-0.398992 -0.257175,-0.0187 -0.286456,0.380295 -0.02928,0.398992 v 0"
         style="fill:#5c7f5e;fill-opacity:1;fill-rule:nonzero;stroke:none;stroke-width:0.0352777"
         id="path482" />
    </g>
  </g>
</svg>
