<?xml version="1.0" encoding="UTF-8" standalone="no"?>
<svg
   xmlns:dc="http://purl.org/dc/elements/1.1/"
   xmlns:cc="http://creativecommons.org/ns#"
   xmlns:rdf="http://www.w3.org/1999/02/22-rdf-syntax-ns#"
   xmlns:svg="http://www.w3.org/2000/svg"
   xmlns="http://www.w3.org/2000/svg"
   id="svg6465"
   version="1.1"
   viewBox="0 0 30.2255 28.916138"
   height="28.916138mm"
   width="30.2255mm">
  <defs
     id="defs6459" />
  <metadata
     id="metadata6462">
    <rdf:RDF>
      <cc:Work
         rdf:about="">
        <dc:format>image/svg+xml</dc:format>
        <dc:type
           rdf:resource="http://purl.org/dc/dcmitype/StillImage" />
        <dc:title></dc:title>
      </cc:Work>
    </rdf:RDF>
  </metadata>
  <g
     id="layer1">
    <g
       transform="matrix(0.35277777,0,0,-0.35277777,-22.320144,48.911077)"
       id="g6501">
      <path
         d="m 122.679,89.3559 c -9.202,-0.1219 -18.406,-0.134 -27.6091,-0.036 -0.9019,0.0102 -6.3633,-0.2 -6.4273,0.4492 -0.0317,0.3219 0.1094,0.918 0.2551,1.2071 0.28,0.5558 0.5597,1.1109 0.8402,1.6679 3.0453,6.045 7.4351,12.6139 10.8141,18.4789 2.03,3.524 5.181,6.989 5.485,7.386 0.304,0.397 0.924,0.737 1.314,0.423 3.673,-2.948 5.964,-5.922 8.67,-8.972 0.651,-0.733 12.389,-18.069 12.722,-19.4541 0.331,-1.3719 -4.551,-1.1309 -6.064,-1.15"
         style="fill:#ba422a;fill-opacity:1;fill-rule:nonzero;stroke:none;stroke-width:0.1"
         id="path1078" />
      <path
         d="m 123.303,121.367 c -1.882,0.977 -2.859,2.84 -4.736,3.923 -1.836,1.06 -3.86,1.749 -5.872,2.389 -1.057,0.337 -2.122,0.664 -3.218,0.827 -2.12,0.314 -4.283,-0.001 -6.376,-0.461 -4.5772,-1.006 -8.9987,-2.716 -13.0615,-5.052 -0.6411,2.506 0.1808,4.489 2.1421,6.136 2.2641,1.903 5.9743,3.516 8.8164,3.978 6.453,1.049 12.81,0.344 19.095,-1.467 3.166,-0.912 6.195,-2.558 8.85,-4.508 -0.724,-2.132 -1.988,-4.084 -3.669,-5.581 -0.205,-0.182 -0.423,-0.363 -0.687,-0.439 -0.43,-0.125 -0.887,0.049 -1.284,0.255"
         style="fill:#699355;fill-opacity:1;fill-rule:nonzero;stroke:none;stroke-width:0.1"
         id="path1080" />
      <path
         d="m 145.875,108.978 c -0.981,2.518 -2.978,5.153 -4.442,7.424 -1.732,2.687 -3.876,5.346 -6.518,7.148 -0.479,0.326 -1.001,0.625 -1.577,0.696 -0.74,0.092 -1.518,-0.233 -1.974,-0.823 -0.456,-0.591 -0.573,-1.425 -0.298,-2.118 0.697,-1.753 1.283,-3.267 2.418,-4.773 1.043,-1.384 2.33,-2.599 3.159,-4.12 1.013,-1.862 1.273,-4.058 2.268,-5.929 0.102,-0.193 0.219,-0.389 0.404,-0.503 0.189,-0.118 0.426,-0.134 0.647,-0.109 0.643,0.072 1.205,0.451 1.738,0.819 1.154,0.796 3.021,1.492 4.175,2.288"
         style="fill:#7ba36a;fill-opacity:1;fill-rule:nonzero;stroke:none;stroke-width:0.1"
         id="path1082" />
      <path
         d="m 76.1344,104.904 c 0.7855,-0.047 1.6754,-0.147 2.1445,-0.778 0.341,-0.46 0.3566,-1.074 0.3727,-1.646 0.1644,-6.0859 1.848,-12.1249 4.8558,-17.4191 0.3289,-0.5789 0.6813,-1.1718 0.7606,-1.8328 0.1949,-1.6261 -1.3016,-2.9703 -2.8137,-3.5961 -0.6887,-0.2851 -1.4207,-0.4898 -2.1656,-0.4929 -1.6836,-0.0051 -3.2317,1.0418 -4.2477,2.3847 -1.016,1.3434 -1.5894,2.9602 -2.1402,4.5512 -1.2699,3.668 -2.5125,7.391 -2.8488,11.257 -0.1258,1.443 -0.1188,2.927 0.355,4.294 0.4743,1.368 1.4793,2.61 2.8489,3.076 0.9171,0.311 1.9121,0.258 2.8785,0.202"
         style="fill:#4a774b;fill-opacity:1;fill-rule:nonzero;stroke:none;stroke-width:0.1"
         id="path1084" />
      <path
         d="m 96.9199,131.038 c -0.1461,0.151 -0.1023,0.415 0.0379,0.571 0.1414,0.155 0.3492,0.228 0.5504,0.289 0.577,0.176 1.1691,0.301 1.7672,0.374 0.3418,-0.979 0.5023,-2.02 0.4711,-3.056 -1.0145,0.009 -1.5145,1.331 -2.4754,1.657 -0.1242,0.042 -0.2606,0.071 -0.3512,0.165"
         style="fill:#ffffff;fill-opacity:1;fill-rule:nonzero;stroke:none;stroke-width:0.1"
         id="path1086" />
      <path
         d="m 79.2738,100.865 c -0.5297,-1.2459 -1.3777,-2.3541 -2.4379,-3.197 -0.416,-0.3301 -0.9011,-0.6309 -1.432,-0.6211 -0.4476,0.009 -0.8613,0.241 -1.2141,0.516 -1.4476,1.1312 -2.1168,3.0361 -2.1703,4.8731 -0.0539,1.836 0.4285,3.641 0.9075,5.414 0.496,1.84 0.9918,3.679 1.4878,5.518 0.1711,0.632 0.3457,1.275 0.6848,1.836 0.3567,0.59 0.8914,1.072 1.5164,1.364 0.2098,0.097 0.4391,0.177 0.6688,0.145 0.2285,-0.03 0.4281,-0.166 0.6117,-0.304 0.9687,-0.735 1.7672,-1.692 2.3152,-2.776 0.325,-0.642 0.5711,-1.34 1.0446,-1.882 0.4738,-0.542 1.271,-0.892 1.9234,-0.588 -1.266,-1.736 -2.1984,-3.714 -2.7309,-5.795 -0.3851,-1.505 -0.5672,-3.074 -1.175,-4.503"
         style="fill:#699355;fill-opacity:1;fill-rule:nonzero;stroke:none;stroke-width:0.1"
         id="path1088" />
      <path
         d="m 67.3922,104.59 c -0.6074,-0.029 -1.232,-0.063 -1.7848,-0.317 -1.4351,-0.659 -1.8453,-2.476 -2.0129,-4.046 -0.564,-5.2872 -0.3894,-10.7032 1.068,-15.8149 0.4996,-1.7531 1.1605,-3.4883 2.2445,-4.9543 1.0836,-1.4637 2.6328,-2.6469 4.4211,-2.9988 0.2328,-0.0461 0.4727,-0.0781 0.7074,-0.0418 0.325,0.0496 0.6176,0.2258 0.8672,0.4398 0.8293,0.711 2.4063,1.9532 2.4543,3.0442 0.0469,1.091 -0.2121,2.1699 -0.4957,3.2238 -0.7722,2.8719 -1.7402,5.6969 -2.3008,8.6191 -0.5609,2.92 -0.7289,4.4411 -0.5964,8.4839 0.0254,0.772 0.1175,1.695 0.1316,2.468 0.0137,0.773 -0.3406,1.618 -1.0586,1.904 -0.3676,0.146 -0.7773,0.13 -1.1723,0.11 -0.8242,-0.04 -1.6484,-0.08 -2.4726,-0.12"
         style="fill:#5c7f5e;fill-opacity:1;fill-rule:nonzero;stroke:none;stroke-width:0.1"
         id="path1090" />
      <path
         d="m 70.8383,86.3629 c -1.0375,-0.1598 -3.0508,-0.718 -4.0449,-2.2418 -0.2231,-0.343 -0.7313,-1.9262 -0.6524,-2.3281 0.2492,-1.266 0.6528,-2.502 1.1992,-3.6711 0.3848,-0.8231 0.8391,-1.611 1.2926,-2.3981 1.252,-2.1718 2.2363,-4.5207 3.7551,-6.5148 4.5476,-5.9692 8.9574,-7.609 9.9832,-7.9578 1.1875,-0.4043 2.9918,-0.8301 4.2422,-0.9282 1.0055,-0.0789 1.3765,-0.3269 2.3578,-0.0968 0.9816,0.2308 1.9281,0.7636 2.4684,1.6148 1.0445,1.6481 2.03,4.2379 0.6093,5.5738 -1.4203,1.3372 -4.7914,3.1622 -6.4961,4.1114 -3.9379,2.1918 -6.43,4.7027 -8.8824,8.484 -0.6328,0.9757 -1.1238,2.9519 -1.525,4.0437 -0.2066,0.5652 -0.9875,1.257 -1.398,1.6961 -0.7051,0.7551 -1.8883,0.7699 -2.909,0.6129"
         style="fill:#7ba36a;fill-opacity:1;fill-rule:nonzero;stroke:none;stroke-width:0.1"
         id="path1092" />
      <path
         d="m 96.0453,76.4289 c 1.041,-0.3559 2.1805,-0.6559 2.8996,-1.4891 0.5645,-0.6527 0.7758,-1.5609 0.716,-2.4218 -0.1586,-2.3129 -2.1394,-4.1891 -4.348,-4.895 -2.2082,-0.7039 -6.1367,0.4391 -6.9098,0.7872 -1.0769,0.4847 -4.0734,1.6136 -4.9051,2.4527 -1.5875,1.6 -3.3593,2.8133 -4.6855,4.6351 -1.8254,2.509 -4.1223,5.9168 -3.2715,9.1989 0.1871,0.7211 0.6,1.398 1.1485,1.9851 1.5695,1.6821 4.8886,1.95 6.1457,0.0231 0.5757,-0.8832 1.6257,-3.0231 2.2539,-3.6449 3.1593,-3.1313 3.5957,-4.1051 10.9562,-6.6313"
         style="fill:#699355;fill-opacity:1;fill-rule:nonzero;stroke:none;stroke-width:0.1"
         id="path1094" />
      <path
         d="m 129.483,63.1961 c 0.975,0.8617 1.896,1.8449 2.363,3.0598 0.467,1.216 0.395,2.707 -0.462,3.6871 -0.556,0.6359 -1.367,0.9879 -2.176,1.2269 -2.587,0.7641 -5.354,0.5563 -8.028,0.1992 -6.447,-0.8621 -12.756,-2.5429 -19.17,-3.623 -1.121,-0.1891 -2.2487,-0.359 -3.385,-0.3801 -1.7523,-0.034 -3.4895,0.2879 -5.2344,0.4461 -1.7457,0.1578 -3.559,0.143 -5.1781,-0.5281 -1.6187,-0.6711 -3.0094,-2.1168 -3.1883,-3.8602 -0.0648,-0.6308 0.0395,-1.2988 0.4082,-1.8136 0.4266,-0.5961 1.0133,-1.3973 1.7114,-1.618 10.407,-3.3152 20.9322,-4.3742 31.2632,-2.1121 1.405,0.3078 2.801,0.673 4.15,1.1719 2.537,0.9402 4.899,2.3519 6.926,4.1441"
         style="fill:#5c7f5e;fill-opacity:1;fill-rule:nonzero;stroke:none;stroke-width:0.1"
         id="path1096" />
      <path
         d="m 147.691,89.3391 c 0.279,-0.6282 0.335,-1.3352 0.223,-2.011 -1.045,-6.2992 -3.605,-12.6359 -8.402,-16.8922 -0.696,-0.6168 -8.019,-7.1289 -10.532,-8.0461 -1.932,-0.7058 -4.65,1.2551 -4.45,3.3024 0.106,1.0797 0.479,1.8258 1.061,2.6508 0.984,1.3968 3.156,2.2281 4.274,3.5199 0.625,0.7223 1.11,1.5519 1.645,2.3441 1.623,2.402 3.716,4.4629 5.278,6.9059 1.939,3.032 3.141,6.732 6.08,8.8082 1.51,1.0668 3.886,1.523 4.823,-0.582"
         style="fill:#7ba36a;fill-opacity:1;fill-rule:nonzero;stroke:none;stroke-width:0.1"
         id="path1098" />
      <path
         d="m 147.748,86.243 c 1.832,6.1949 1.397,12.8808 -0.163,19.151 -0.327,1.313 -0.71,2.635 -1.42,3.787 -0.857,1.392 -2.393,2.549 -4.008,2.305 -1.019,-0.154 -1.906,-0.858 -2.427,-1.745 -0.522,-0.889 -0.708,-1.944 -0.688,-2.974 0.037,-1.914 1.401,-3.64 1.973,-5.467 0.844,-2.6961 1.49,-5.5469 1.027,-8.334 -0.319,-1.918 -0.641,-3.0711 -0.41,-5.0012 0.035,-0.2937 0.467,-2.1109 1.591,-2.3859 3.513,-0.8629 3.712,0.066 4.525,0.6641"
         style="fill:#5c7f5e;fill-opacity:1;fill-rule:nonzero;stroke:none;stroke-width:0.1"
         id="path1100" />
      <path
         d="m 137.5,112.228 c 0.686,-1.242 0.886,-2.694 1.329,-4.042 0.346,-1.053 0.653,-2.329 -0.069,-3.169 -0.366,-0.426 -0.927,-0.634 -1.331,-1.023 -0.299,-0.289 -0.501,-0.664 -0.801,-0.953 -0.299,-0.287 -0.766,-0.474 -1.128,-0.273 0.178,1.284 -0.086,0.425 -0.695,1.569 -0.887,1.667 -2.376,6.318 -3.315,7.955 -0.811,1.414 -2.191,3.149 -2.983,4.575 -0.667,1.2 -0.336,1.269 -0.312,2.642 0.004,0.234 0.027,0.488 0.186,0.66 0.157,0.17 0.407,0.214 0.639,0.223 1.36,0.053 2.612,-0.765 3.557,-1.744 0.945,-0.98 1.963,-1.053 4.923,-6.42"
         style="fill:#699355;fill-opacity:1;fill-rule:nonzero;stroke:none;stroke-width:0.1"
         id="path1102" />
      <path
         d="m 128.274,128.194 c -0.682,0.297 -1.442,0.344 -2.184,0.385 -0.196,0.01 -0.398,0.02 -0.585,-0.04 -0.4,-0.127 -0.637,-0.54 -0.753,-0.943 -0.411,-1.44 0.274,-2.959 1.091,-4.214 1.082,-1.661 2.429,-3.148 3.976,-4.388 0.703,-0.565 1.481,-1.092 2.371,-1.241 0.89,-0.148 1.913,0.178 2.339,0.973 0.176,0.328 2.264,3.708 -2.575,7.288 -0.526,0.389 -3.08,1.919 -3.68,2.18"
         style="fill:#5c7f5e;fill-opacity:1;fill-rule:nonzero;stroke:none;stroke-width:0.1"
         id="path1104" />
      <path
         d="m 125.571,73.2879 c -0.062,-0.5391 -0.299,-1.041 -0.577,-1.5039 -1.265,-2.1051 -3.415,-3.5578 -5.707,-4.4379 -2.291,-0.8801 -4.743,-1.241 -7.172,-1.5981 -6.268,-0.9179 -12.8084,-1.8152 -18.8224,0.1758 -0.836,0.2774 -1.6774,0.6223 -2.3067,1.2383 -0.8171,0.7969 -1.1839,1.9758 -1.1785,3.118 0.0055,1.1418 0.3496,2.257 0.7856,3.3117 0.2066,0.5012 0.4437,1.0051 0.8308,1.3852 1.0254,1.0062 4.0465,1.2878 5.4645,1.0558 7.1767,-1.1769 13.2767,-2.1558 20.2777,-0.184 1.685,0.4742 3.403,1.0973 5.138,0.8653 1.735,-0.2301 3.468,-1.6879 3.267,-3.4262"
         style="fill:#4a774b;fill-opacity:1;fill-rule:nonzero;stroke:none;stroke-width:0.1"
         id="path1106" />
      <path
         d="m 131.949,117.989 c -0.038,0.158 -0.061,2.192 -4.333,6.36 -0.64,0.625 -1.538,0.903 -2.421,1.051 -0.534,0.09 -1.087,0.144 -1.613,0.02 -0.528,-0.124 -1.031,-0.452 -1.248,-0.949 -0.229,-0.524 -0.105,-1.141 0.132,-1.662 0.526,-1.163 1.543,-2.016 2.528,-2.827 1.386,-1.143 2.772,-2.284 4.157,-3.427 0.333,-0.273 0.69,-0.559 1.117,-0.615 0.85,-0.114 1.554,0.748 1.682,1.596 0.023,0.15 0.033,0.305 -10e-4,0.453"
         style="fill:#4a774b;fill-opacity:1;fill-rule:nonzero;stroke:none;stroke-width:0.1"
         id="path1108" />
      <path
         d="m 104.483,126.789 c 0.109,-0.021 0.204,-0.065 0.286,-0.126 0.454,-0.339 0.308,-1.071 -0.209,-1.302 -2.051,-0.922 -5.0151,-2.615 -6.8983,-3.965 -2.2203,-1.591 -4.2578,-3.281 -6.1871,-5.215 -1.9062,-1.91 -2.5351,-3.136 -4.5004,-4.985 -0.9234,-0.87 -1.9273,-1.652 -3.0078,-2.315 -0.4664,-0.286 -0.9625,-0.559 -1.5055,-0.637 -1.466,-0.21 -2.7629,1.058 -3.3363,2.422 -0.5742,1.366 -0.6883,2.888 -1.2629,4.253 -0.089,0.213 -0.2179,0.446 -0.4437,0.497 -0.3188,0.075 -0.5774,-0.252 -0.734,-0.539 -1.5,-2.752 -2.0805,-5.892 -2.9832,-8.893 -0.8688,-2.889 -2.2594,-5.915 -4.961,-7.2551 -1.0761,-0.5328 -2.3335,-0.766 -3.5312,-0.0598 -1.0582,0.6239 -1.8672,1.1719 -1.9281,2.3989 -0.0387,0.768 0.0281,2.418 0.1765,3.181 0.3032,1.559 0.5098,3.078 0.9723,4.596 0.6187,2.033 1.0426,3.289 1.6793,4.861 0.6836,1.689 1.4578,3.009 2.5062,4.499 2.7731,3.941 5.8415,7.788 9.8395,10.477 3.5969,2.421 7.8254,3.807 12.1199,4.404 4.2946,0.599 9.4968,1.005 13.8038,0.507 -1.393,-0.477 -3.644,-1.203 -5.0374,-1.68 -1.7133,-0.585 -3.4207,-1.505 -4.9429,-2.487 -1.5227,-0.98 -2.8379,-2.401 -3.3223,-4.145 4.173,1.858 8.9246,2.393 13.4076,1.508"
         style="fill:#7ba36a;fill-opacity:1;fill-rule:nonzero;stroke:none;stroke-width:0.1"
         id="path1110" />
      <path
         d="m 83.9391,127.67 c -0.0114,-0.188 0.0113,-0.383 0.0941,-0.552 0.1781,-0.364 0.5934,-0.543 0.9879,-0.634 0.3242,-0.074 0.6676,-0.109 0.9871,-0.018 0.6852,0.197 1.1078,1.013 0.9043,1.696 -0.2039,0.682 -0.973,1.13 -1.6742,1.004 -0.7012,-0.126 -1.2578,-0.785 -1.2992,-1.496"
         style="fill:#30284f;fill-opacity:1;fill-rule:nonzero;stroke:none;stroke-width:0.1"
         id="path1112" />
      <path
         d="m 138.104,85.7828 c -0.124,-0.068 -0.255,-0.1297 -0.395,-0.1359 -0.146,-0.0059 -0.287,0.05 -0.423,0.1043 -0.64,0.2566 -1.279,0.5136 -1.918,0.7718 0.845,4.6149 0.83,9.3879 -0.044,13.998 -0.263,1.391 -0.519,2.225 -0.719,4.413 -0.058,0.644 0.352,1.159 0.664,1.724 0.501,0.909 1.856,1.751 2.883,1.6 0.708,-0.104 1.206,-0.733 1.597,-1.332 1.824,-2.797 2.981,-6.053 3.149,-9.3881 0.168,-3.334 -0.268,-8.6559 -2.127,-11.4289 -0.597,-0.8899 -1.726,0.184 -2.667,-0.3262"
         style="fill:#4a774b;fill-opacity:1;fill-rule:nonzero;stroke:none;stroke-width:0.1"
         id="path1114" />
      <path
         d="m 138.538,90.6809 c 0.886,0.0703 1.855,-0.077 2.491,-0.6977 0.586,-0.5703 0.784,-1.4512 0.702,-2.2652 -0.081,-0.8141 -0.408,-1.5809 -0.744,-2.327 -2.078,-4.614 -4.761,-9.1019 -8.731,-12.241 -1.745,-1.3801 -3.064,-2.598 -5.008,-3.6801 -0.679,-0.3769 -3.248,-1.391 -4.943,-0.2269 -0.933,0.6398 -1.766,2.7449 -1.686,3.8742 0.101,1.4199 0.132,2.2539 0.925,3.6137 2.664,1.0191 5.293,2.1929 7.623,3.8382 2.331,1.645 4.363,3.7938 5.535,6.3938 0.506,1.123 0.903,2.393 1.91,3.1019 0.557,0.3922 1.245,0.5622 1.926,0.6161"
         style="fill:#699355;fill-opacity:1;fill-rule:nonzero;stroke:none;stroke-width:0.1"
         id="path1116" />
      <path
         d="m 108.736,107.003 c 0.987,3.833 2.529,8.031 0.452,11.795 -1.387,2.513 -5.509,1.419 -5.42,-1.468 0.109,-3.544 1.074,-7.715 3.242,-10.552 0.464,-0.608 1.502,-0.645 1.726,0.225 v 0"
         style="fill:#f7ca72;fill-opacity:1;fill-rule:nonzero;stroke:none;stroke-width:0.1"
         id="path1118" />
      <path
         d="m 101.037,99.2859 c -0.943,-0.2418 -1.7702,0.0231 -2.7339,-0.2968 -1.159,-0.386 -2.1312,-1.136 -3.1351,-1.8063 -1.7793,-1.1867 -3.4754,-2.468 -5.3399,-3.5269 -3.1863,-1.8098 -0.3457,-6.6571 2.8649,-4.9008 1.8644,1.0199 3.6793,2.1828 5.355,3.491 0.9614,0.7508 1.973,1.459 2.82,2.3367 0.771,0.8012 0.786,1.7992 1.402,2.5832 0.747,0.9531 0.094,2.4578 -1.233,2.1199 v 0"
         style="fill:#f7ca72;fill-opacity:1;fill-rule:nonzero;stroke:none;stroke-width:0.1"
         id="path1120" />
      <path
         d="m 113.628,97.7672 c 1.289,-1.6543 2.644,-2.8813 4.399,-4.0391 1.841,-1.2172 3.988,-2.114 5.602,-3.6429 3.179,-3.009 7.185,2.6828 3.525,4.5687 -1.968,1.0141 -3.996,1.959 -6.024,2.85 -0.951,0.4191 -1.842,0.957 -2.791,1.3813 -1.197,0.5347 -2.317,0.5648 -3.574,0.8339 -1.218,0.2618 -1.843,-1.0472 -1.137,-1.9519 v 0"
         style="fill:#f7ca72;fill-opacity:1;fill-rule:nonzero;stroke:none;stroke-width:0.1"
         id="path1122" />
      <path
         d="m 104.118,105.292 c -0.071,0.11 -0.132,0.224 -0.184,0.344 0.078,-0.289 0.157,-0.579 0.235,-0.868 0.008,1.009 -0.765,2.268 -1.739,2.692 -0.513,0.223 -1.03,0.403 -1.551,0.6 0.096,-0.037 0.192,-0.075 0.288,-0.112 -0.426,0.246 -0.885,0.371 -1.3779,0.372 -0.3438,-0.042 -0.6883,-0.075 -1.0274,-0.147 -1.6941,-0.358 -2.1609,-2.315 -1.5004,-3.688 0.9731,-2.024 4.2857,-2.252 6.0557,-1.2 -0.289,-0.079 -0.578,-0.158 -0.867,-0.236 -0.024,-0.007 -0.048,-0.013 -0.072,-0.02 1.309,-0.458 2.395,1.154 1.74,2.263 v 0"
         style="fill:#f7ca72;fill-opacity:1;fill-rule:nonzero;stroke:none;stroke-width:0.1"
         id="path1124" />
      <path
         d="m 113.136,103.668 c 0.795,-0.331 1.406,-0.549 2.254,-0.258 0.435,0.149 0.79,0.376 1.186,0.593 0.972,0.535 1.969,0.959 2.214,2.203 -0.208,-0.356 -0.416,-0.713 -0.624,-1.07 0.048,0.042 0.096,0.085 0.144,0.127 1.558,1.38 0.309,4.042 -1.664,4.015 -0.064,-0.001 -0.129,-0.002 -0.194,-0.003 0.408,-0.111 0.816,-0.221 1.223,-0.331 -1.631,0.986 -3.136,-0.008 -4.344,-1.107 -0.632,-0.574 -1.152,-1.313 -1.152,-2.204 0,-0.755 0.216,-1.656 0.957,-1.965 v 0"
         style="fill:#f7ca72;fill-opacity:1;fill-rule:nonzero;stroke:none;stroke-width:0.1"
         id="path1126" />
      <path
         d="m 107.542,96.3281 c -0.41,-1.114 -1.183,-1.8703 -1.261,-3.1261 -0.023,-0.3661 -0.026,-0.7309 -0.033,-1.0961 -0.002,-0.1348 -0.15,-1.2399 -0.022,-0.6661 -0.316,-1.4117 0.41,-2.8707 1.856,-3.2687 1.275,-0.35 3.043,0.423 3.268,1.8559 0.189,1.1992 0.038,2.1699 -0.338,3.3128 -0.346,1.0532 -0.953,1.9524 -1.312,2.9883 -0.375,1.0789 -1.771,1.0457 -2.158,0 v 0"
         style="fill:#f7ca72;fill-opacity:1;fill-rule:nonzero;stroke:none;stroke-width:0.1"
         id="path1128" />
      <path
         d="m 122.228,89.8191 c -8.912,-0.1179 -17.826,-0.13 -26.7382,-0.0351 -0.8738,0.009 -6.1632,-0.1949 -6.2246,0.434 -0.0308,0.3129 0.1059,0.8902 0.2465,1.1699 0.2715,0.5383 0.5426,1.0762 0.8141,1.6141 2.9496,5.8562 7.2008,12.217 10.4732,17.898 1.966,3.412 5.017,6.768 5.312,7.152 0.294,0.385 0.895,0.713 1.272,0.41 3.558,-2.855 5.776,-5.735 8.397,-8.688 0.63,-0.711 11.998,-17.5002 12.322,-18.8412 0.319,-1.3289 -4.408,-1.0957 -5.874,-1.1137 z m 8.387,1.1868 c -0.319,0.5972 -0.667,1.1761 -1.02,1.7531 -3.295,5.3988 -6.736,10.707 -10.317,15.919 -0.766,1.115 -8.954,10.675 -11.81,13.337 -0.379,0.354 -0.964,0.392 -1.369,0.068 -0.657,-0.522 -0.984,-1.441 -1.471,-2.164 C 99.4066,112.16 92.5793,102.746 87.1438,91.4781 87.0055,91.191 86.4125,89.1809 86.5469,88.893 c 0.4644,-0.9942 1.3324,-1.3578 2.3707,-1.3758 13.1414,-0.2152 25.9344,0.4476 38.8184,0.4867 0.646,0.002 1.306,-0.068 1.924,0.1191 0.618,0.1879 1.195,0.6481 1.332,1.279 0.119,0.55 -0.107,1.1011 -0.377,1.6039"
         style="fill:#a52713;fill-opacity:1;fill-rule:nonzero;stroke:none;stroke-width:0.1"
         id="path1130" />
      <path
         d="m 99.7832,103.497 c -0.5496,-1.697 -0.0852,-3.6142 0.9348,-5.0779 1.02,-1.4632 2.537,-2.516 4.145,-3.289 0.63,-0.302 1.283,-0.568 1.97,-0.7012 1.019,-0.1957 2.075,-0.0898 3.086,0.1402 2.633,0.5969 5.153,2.1469 6.396,4.545 1.243,2.3959 0.915,5.6649 -1.138,7.4169 -0.689,0.588 -1.519,0.982 -2.357,1.325 -2.881,1.178 -6.304,1.774 -9.013,0.242 -0.843,-0.477 -1.569,-1.137 -2.231,-1.844 -0.756,-0.806 -1.452,-1.706 -1.7928,-2.757"
         style="fill:#f5dba3;fill-opacity:1;fill-rule:nonzero;stroke:none;stroke-width:0.1"
         id="path1132" />
      <path
         d="m 110.386,105.151 c 0.49,0.29 1.11,0.477 1.625,0.23 0.514,-0.246 0.71,-1.079 0.229,-1.385 -0.094,-0.12 -0.289,-0.09 -0.411,0 -0.123,0.088 -0.211,0.221 -0.339,0.303 -0.393,0.252 -0.824,-0.219 -1.146,-0.557 -1.237,-1.304 -1.756,-4.5748 -2.286,-4.8721 -0.686,0.2262 -0.717,1.2241 -1.146,1.8041 -0.32,0.432 -1.911,2.691 -2.238,2.775 -0.366,0.093 0.036,-0.437 -1.223,-0.404 -0.544,0.347 -0.467,0.906 -0.133,1.425 0.269,0.419 0.939,0.603 1.424,0.488 0.433,-0.102 0.774,-0.43 1.066,-0.766 0.983,-1.129 1.782,-2.704 2.117,-4.163 0.457,0.66 0.573,1.872 0.762,2.652 0.263,1.082 0.74,1.901 1.699,2.47"
         style="fill:#5c7f5e;fill-opacity:1;fill-rule:nonzero;stroke:none;stroke-width:0.1"
         id="path1134" />
      <path
         d="m 103.278,98.857 c 1.303,-3.4961 8.697,-3.1199 9.517,0.5328 0.095,0.4243 -0.371,0.6502 -0.686,0.3981 -0.526,-0.4199 -0.88,-0.9988 -1.422,-1.3988 -0.921,-0.6813 -2.208,-0.9192 -3.314,-1.0332 -1.514,-0.1571 -2.76,0.8652 -3.967,1.5992 -0.062,0.0379 -0.155,-0.025 -0.128,-0.0981 v 0"
         style="fill:#ba422a;fill-opacity:1;fill-rule:nonzero;stroke:none;stroke-width:0.1"
         id="path1136" />
      <path
         d="m 103.694,101.686 c 0.713,0 0.713,1.105 0,1.105 -0.714,0 -0.714,-1.105 0,-1.105 v 0"
         style="fill:#30284f;fill-opacity:1;fill-rule:nonzero;stroke:none;stroke-width:0.1"
         id="path1138" />
      <path
         d="m 111.847,102.186 c 0.81,0 0.81,1.255 0,1.255 -0.809,0 -0.809,-1.255 0,-1.255 v 0"
         style="fill:#30284f;fill-opacity:1;fill-rule:nonzero;stroke:none;stroke-width:0.1"
         id="path1140" />
    </g>
  </g>
</svg>
