<?xml version="1.0" encoding="UTF-8" standalone="no"?>
<svg
   xmlns:dc="http://purl.org/dc/elements/1.1/"
   xmlns:cc="http://creativecommons.org/ns#"
   xmlns:rdf="http://www.w3.org/1999/02/22-rdf-syntax-ns#"
   xmlns:svg="http://www.w3.org/2000/svg"
   xmlns="http://www.w3.org/2000/svg"
   width="31.225851mm"
   height="46.241573mm"
   viewBox="0 0 31.225851 46.241573"
   version="1.1"
   id="svg3970">
  <defs
     id="defs3964" />
  <metadata
     id="metadata3967">
    <rdf:RDF>
      <cc:Work
         rdf:about="">
        <dc:format>image/svg+xml</dc:format>
        <dc:type
           rdf:resource="http://purl.org/dc/dcmitype/StillImage" />
        <dc:title></dc:title>
      </cc:Work>
    </rdf:RDF>
  </metadata>
  <g
     id="layer1">
    <g
       id="g3929"
       transform="matrix(0.35277777,0,0,-0.35277777,-37.272211,156.522)">
      <path
         id="path1142"
         style="fill:#f7ca72;fill-opacity:1;fill-rule:nonzero;stroke:none;stroke-width:0.1"
         d="m 144.84,425.348 c 0.608,-2.462 -0.253,-4.645 -0.645,-5.909 -1.341,-4.327 -2.698,-8.769 -2.427,-13.291 0.129,-2.165 1.445,-3.721 3.558,-4.21 2.113,-0.49 4.325,0.32 6.167,1.465 2.061,1.282 4.001,3.39 3.719,5.801 -0.229,1.96 -1.829,3.422 -2.976,5.028 -1.911,2.679 -2.327,5.325 -4.632,8.829 -0.44,0.669 -2.956,3.064 -2.764,2.287" />
      <path
         id="path1144"
         style="fill:#ba422a;fill-opacity:1;fill-rule:nonzero;stroke:none;stroke-width:0.1"
         d="m 142.93,408.688 c 0.082,0.655 0.263,1.291 0.489,1.91 0.467,1.279 1.246,2.409 1.767,3.665 1.157,2.789 0.686,3.253 1.431,3.975 0.146,0.142 0.309,0.292 0.511,0.311 0.165,0.016 0.324,-0.058 0.469,-0.137 1.298,-0.707 1.897,-2.313 2.726,-3.535 0.856,-1.265 2.662,-3.911 2.908,-5.418 0.246,-1.507 -0.194,-3.215 -1.437,-4.103 -0.613,-0.438 -1.266,-1.206 -1.994,-1.401 -0.924,-0.247 -1.613,-0.554 -2.57,-0.531 -2.817,0.069 -4.794,1.372 -4.3,5.264" />
      <path
         id="path1146"
         style="fill:#30284f;fill-opacity:1;fill-rule:nonzero;stroke:none;stroke-width:0.1"
         d="m 149.815,396.33 c -0.46,1.263 -0.127,2.691 -0.479,3.989 -0.388,1.433 -1.545,2.512 -2.279,3.803 -1.08,1.899 -1.189,4.319 -0.285,6.308 0.141,-1.63 0.294,-3.309 1.05,-4.759 0.67,-1.286 1.85,-2.254 2.512,-3.544 0.627,-1.221 0.944,-2.631 1.061,-3.756 0.052,-0.498 -0.046,-1.024 -0.309,-1.451 -0.264,-0.426 -0.788,-0.725 -1.271,-0.59" />
      <path
         id="path1148"
         style="fill:#d4af64;fill-opacity:1;fill-rule:nonzero;stroke:none;stroke-width:0.1"
         d="m 176.585,318.31 c 0.844,-0.059 1.497,0.732 1.842,1.505 0.547,1.226 0.716,2.618 0.479,3.94 -0.148,0.821 -0.46,1.633 -1.025,2.246 -1.389,1.507 -3.759,1.393 -5.796,1.164 -6.039,-0.679 -12.246,-1.41 -17.596,-4.292 -0.789,-0.425 -1.577,-0.916 -2.091,-1.65 -0.892,-1.277 -0.757,-3.056 -0.066,-4.452 0.69,-1.397 1.262,-2.953 2.397,-4.021 0.23,-0.216 1.767,-0.333 2.472,0.737 0.539,0.817 0.679,1.565 1.204,2.391 -0.467,-0.775 0.03,-1.892 0.876,-2.209 0.846,-0.318 1.852,0.077 2.406,0.79 0.554,0.714 0.706,1.678 0.593,2.575 0.047,-0.659 0.144,-1.383 0.638,-1.819 0.769,-0.677 2.077,-0.198 2.606,0.678 0.53,0.877 0.506,1.967 0.466,2.991 0.221,-1.19 0.623,-2.592 1.78,-2.946 0.977,-0.299 2.038,0.384 2.517,1.287 0.478,0.902 0.516,1.965 0.544,2.987 0.089,-1.19 0.401,-2.66 1.558,-2.949 0.825,-0.207 1.685,0.38 2.073,1.138 0.388,0.758 0.416,1.643 0.43,2.494 0.147,-1.111 0.575,-2.506 1.693,-2.585" />
      <path
         id="path1150"
         style="fill:#f5dba3;fill-opacity:1;fill-rule:nonzero;stroke:none;stroke-width:0.1"
         d="m 177.678,334.119 c 0.734,-1.577 1.468,-3.153 2.203,-4.73 0.348,-0.746 0.702,-1.524 0.688,-2.347 -0.026,-1.506 -1.308,-2.74 -2.716,-3.277 -1.408,-0.536 -2.951,-0.549 -4.448,-0.72 -6.387,-0.729 -12.04,-4.366 -18.195,-6.225 -1.505,-0.454 -3.372,-0.713 -4.443,0.437 -0.639,0.685 -0.789,1.679 -0.91,2.608 -0.294,2.278 -0.824,4.417 0.666,6.165 -2.451,-1.638 -5.254,-2.743 -8.162,-3.22 -2.195,-0.359 -4.611,-0.314 -6.433,0.962 -2.226,1.558 -2.967,4.494 -3.25,7.197 -0.306,2.922 -0.269,5.88 0.109,8.793 0.332,2.56 0.855,5.427 -0.675,7.506 -0.949,1.291 -2.5,1.971 -3.754,2.971 -3.985,3.176 -4.404,9.44 -2.028,13.949 2.376,4.508 6.887,7.505 11.534,9.6 3.626,1.633 7.445,2.838 11.352,3.579 1.331,0.253 14.95,2.764 20.185,1.789 5.236,-0.976 9.861,-2.812 13.895,-6.289 1.818,-1.567 2.936,-3.303 3.639,-6.889 0.386,-1.967 -0.441,-4.76 -0.506,-6.763 -0.083,-2.547 1.202,-4.914 2.45,-7.135 1.077,-1.918 2.154,-3.835 3.231,-5.753 0.644,-1.145 1.292,-2.302 1.68,-3.558 1.24,-4.021 -0.667,-8.783 -4.342,-10.835 -3.674,-2.052 -8.998,-0.98 -11.77,2.185" />
      <path
         id="path1152"
         style="fill:#d4af64;fill-opacity:1;fill-rule:nonzero;stroke:none;stroke-width:0.1"
         d="m 140.805,348.979 c 0.983,1.738 2.538,3.177 4.321,4.075 1.783,0.897 4.2,0.866 5.537,-0.616 0.738,-0.819 1.042,-1.943 1.163,-3.038 0.492,-4.456 0.024,-6.686 -1.804,-10.779 -1.101,-2.468 -2.823,-3.52 -5.698,-3.948 -0.988,-0.148 -2.118,-0.198 -3.924,0.921 -2.823,1.751 -2.141,8.885 0.405,13.385" />
      <path
         id="path1154"
         style="fill:#d4af64;fill-opacity:1;fill-rule:nonzero;stroke:none;stroke-width:0.1"
         d="m 184.12,344.207 c -0.771,-1.53 -2.054,-2.897 -3.711,-3.331 -2.317,-0.605 -4.748,0.756 -6.305,2.576 -1.408,1.646 -2.335,3.695 -2.663,5.836 -0.296,1.935 -0.084,4.004 0.924,5.683 1.007,1.679 2.895,2.89 4.85,2.776 0.637,-0.036 1.261,-0.207 1.855,-0.437 2.459,-0.949 4.481,-2.973 5.429,-5.432 0.948,-2.46 0.806,-5.317 -0.379,-7.671" />
      <path
         id="path1156"
         style="fill:#d4af64;fill-opacity:1;fill-rule:nonzero;stroke:none;stroke-width:0.1"
         d="m 160.505,335.396 c 0.367,-1.537 1.133,-2.977 2.201,-4.141 0.653,-0.711 1.514,-1.365 2.593,-0.953 0.585,0.223 1.033,0.719 1.265,1.3 0.491,1.228 0.13,2.524 -0.278,3.728 -0.705,2.083 -1.566,4.117 -2.638,6.038 -0.703,1.26 -1.511,2.511 -1.746,3.935 -0.064,0.387 -0.086,0.79 -0.25,1.147 -0.163,0.356 -0.519,0.664 -0.909,0.621 -1.132,-2.738 -2.264,-5.475 -3.396,-8.213 -0.631,-1.526 -1.268,-3.072 -1.495,-4.708 -0.227,-1.635 -0.662,-3.691 0.902,-4.221 1.171,-0.398 2.169,0.813 2.731,1.915 0.562,1.102 0.807,2.334 1.02,3.552" />
      <path
         id="path1158"
         style="fill:#ba422a;fill-opacity:1;fill-rule:nonzero;stroke:none;stroke-width:0.1"
         d="m 143.719,396.803 c -0.424,0.009 -0.856,0.014 -1.263,-0.106 -1.498,-0.442 -2.028,-2.412 -1.569,-3.906 0.459,-1.494 1.58,-2.672 2.467,-3.959 1.705,-2.47 2.789,-7.03 2.685,-10.029 -0.096,-2.772 -2.055,-3.373 -2.285,-6.137 -0.155,-1.879 1.39,-1.734 1.89,-1.731 0.35,10e-4 0.591,0.34 0.769,0.642 l 2.133,3.602 c 0.397,0.671 1.355,0.747 1.833,0.13 0.547,-0.705 0.935,-1.564 1.282,-2.396 0.662,-1.592 1.343,-3.304 3.027,-4.056 0.856,-0.382 1.893,-0.316 2.594,0.306 1.038,0.919 0.738,2.298 0.415,3.485 -0.305,1.12 -0.61,2.24 -0.914,3.359 0,2.196 1.226,1.691 1.908,0.463 2.44,-3.581 6.076,-7.171 10.381,-6.685 0.522,0.059 1.056,0.188 1.469,0.513 0.901,0.71 0.91,2.138 0.358,3.143 -0.552,1.005 -1.516,1.703 -2.412,2.42 -6.051,4.846 -10.133,12.084 -11.148,19.77 -4.508,0.685 -9.061,1.076 -13.62,1.172" />
      <path
         id="path1160"
         style="fill:#a52713;fill-opacity:1;fill-rule:nonzero;stroke:none;stroke-width:0.1"
         d="m 147.156,388.177 c 0.354,-0.767 0.109,-1.945 0.304,-3.844 0.077,-0.747 0.507,-1.851 1.065,-2.353 0.652,-0.587 1.213,-0.869 2.036,-1.175 0.558,-0.207 1.574,0.11 1.908,0.602 0.219,0.325 0.54,1.158 0.483,1.546 -0.202,1.373 -0.886,2.322 -1.327,3.637 -0.161,0.478 -0.559,1.844 -0.543,2.348 0.029,0.967 0.279,2.835 2.121,2.197 0.335,-0.115 0.401,-0.579 0.51,-0.915 0.501,-1.534 0.762,-3.137 1.257,-4.672 0.495,-1.535 1.266,-3.047 2.55,-4.025 1.283,-0.977 3.164,-1.293 4.524,-0.425 0.264,0.168 0.51,0.386 0.636,0.673 0.348,0.795 -0.331,1.627 -0.88,2.298 -2.429,2.969 -3.044,7.041 -2.895,10.874 0.044,1.11 0.137,2.264 -0.281,3.293 -0.418,1.03 -1.542,1.875 -2.607,1.557 -0.871,-0.261 -1.382,-1.167 -2.175,-1.613 -1.387,-0.781 -3.077,0.034 -4.598,0.504 -1.732,0.535 -3.28,0.711 -4.947,-0.002 -0.738,-0.315 -0.994,-1.045 -0.977,-1.337 0.157,-2.602 2.483,-6.23 3.836,-9.168" />
      <path
         id="path1162"
         style="fill:#a52713;fill-opacity:1;fill-rule:nonzero;stroke:none;stroke-width:0.1"
         d="m 142.333,381.096 c 0.955,0.101 1.711,0.924 2.017,1.835 0.305,0.911 0.246,1.899 0.161,2.855 -0.323,3.618 -1.243,10.85 -2.128,10.925 -1.664,0.141 -2.397,-2.596 -2.071,-4.234 0.217,-1.091 0.926,-2.008 1.453,-2.988 0.527,-0.98 0.871,-2.207 0.335,-3.182 -0.384,-0.698 -1.141,-1.116 -1.591,-1.773 -0.459,-0.671 -0.546,-1.593 -0.178,-2.318 0.368,-0.725 1.193,-1.205 2.002,-1.12" />
      <path
         id="path1164"
         style="fill:#f7ca72;fill-opacity:1;fill-rule:nonzero;stroke:none;stroke-width:0.1"
         d="m 144.457,432.314 c -0.322,2.667 -0.131,5.367 -0.957,7.958 -0.426,1.335 -0.094,3.524 -2.058,3.408 -0.804,-0.048 -1.301,-0.961 -1.192,-1.681 0.167,-1.108 0.768,-2.111 1.213,-3.126 0.889,-2.027 1.192,-4.626 1.626,-6.791 0.176,-0.88 1.474,-0.653 1.368,0.232 v 0" />
      <path
         id="path1166"
         style="fill:#f7ca72;fill-opacity:1;fill-rule:nonzero;stroke:none;stroke-width:0.1"
         d="m 126.037,418.352 c -4.794,2.904 -9.401,6.214 -14.27,8.971 -2.348,1.33 -4.127,-2.026 -1.735,-3.26 4.921,-2.539 9.926,-4.691 14.683,-7.573 1.253,-0.759 2.583,1.098 1.322,1.862 v 0" />
      <path
         id="path1168"
         style="fill:#f7ca72;fill-opacity:1;fill-rule:nonzero;stroke:none;stroke-width:0.1"
         d="m 167.219,422.27 c 2.079,2.362 5.763,4.122 8.36,5.899 2.33,1.594 5.067,3.111 6.943,5.226 0.849,0.957 -0.293,2.131 -1.294,2.06 -2.829,-0.198 -5.322,-3.439 -7.464,-5.119 -2.717,-2.129 -6.052,-4.169 -8.207,-6.886 -0.829,-1.046 0.811,-2.146 1.662,-1.18 v 0" />
      <path
         id="path1170"
         style="fill:#f7ca72;fill-opacity:1;fill-rule:nonzero;stroke:none;stroke-width:0.1"
         d="m 119.543,398.633 c -4.057,0.212 -9.384,0.592 -13.193,-0.965 -1.121,-0.459 -0.817,-2.3 0.399,-2.355 1.872,-0.086 3.722,0.517 5.56,0.85 2.326,0.421 4.699,0.726 7.064,0.792 1.054,0.028 1.282,1.62 0.17,1.678 v 0" />
      <path
         id="path1172"
         style="fill:#f7ca72;fill-opacity:1;fill-rule:nonzero;stroke:none;stroke-width:0.1"
         d="m 125.271,380.779 c -2.32,-1.214 -4.203,-2.939 -6.289,-4.491 -1.27,-0.947 -3.025,-2.061 -3.565,-3.634 -0.55,-1.603 1.744,-2.435 2.436,-0.92 0.537,1.175 1.99,2.07 2.97,2.857 1.795,1.441 3.219,3.374 5.206,4.564 0.97,0.581 0.283,2.168 -0.758,1.624 v 0" />
      <path
         id="path1174"
         style="fill:#f7ca72;fill-opacity:1;fill-rule:nonzero;stroke:none;stroke-width:0.1"
         d="m 171.842,403.594 c 3.023,-0.483 6.237,0 9.289,0.053 3.046,0.052 6.446,-0.669 9.313,0.477 1.016,0.407 0.988,2.099 -0.092,2.411 -5.959,1.715 -12.379,-1.519 -18.344,-1.298 -1.065,0.039 -1.219,-1.475 -0.166,-1.643 v 0" />
      <path
         id="path1176"
         style="fill:#f7ca72;fill-opacity:1;fill-rule:nonzero;stroke:none;stroke-width:0.1"
         d="m 172.409,385.719 c 2.559,-1.076 5.121,-2.129 7.747,-3.035 1.84,-0.636 3.627,-2.375 5.596,-1.538 0.599,0.255 0.642,0.965 0.32,1.442 -0.965,1.431 -3.382,2.095 -4.967,2.61 -2.653,0.863 -5.347,1.458 -7.959,2.477 -1.262,0.492 -1.975,-1.436 -0.737,-1.956 v 0" />
      <path
         id="path1178"
         style="fill:#ffffff;fill-opacity:1;fill-rule:nonzero;stroke:none;stroke-width:0.1"
         d="m 150.511,385.145 c 0.587,-0.762 0.58,-1.495 0.235,-2.35 -0.238,-0.592 0.647,-1.078 0.992,-0.529 0.765,1.222 0.035,2.379 -0.919,3.213 -0.203,0.177 -0.459,-0.137 -0.308,-0.334 v 0" />
      <path
         id="path1180"
         style="fill:#ffffff;fill-opacity:1;fill-rule:nonzero;stroke:none;stroke-width:0.1"
         d="m 160.877,381.837 c 0.027,0.021 0.054,0.042 0.081,0.063 0.294,0.234 0.046,0.657 -0.289,0.625 -0.035,-0.004 -0.069,-0.007 -0.104,-0.011 -0.607,-0.059 -0.221,-1.1 0.312,-0.677 v 0" />
      <path
         id="path1182"
         style="fill:#ffffff;fill-opacity:1;fill-rule:nonzero;stroke:none;stroke-width:0.1"
         d="m 157.049,392.807 c -0.355,-2.623 -0.679,-6.657 1.711,-8.5 0.154,-0.119 0.428,0.031 0.371,0.232 -0.362,1.275 -0.822,2.469 -1.097,3.777 -0.308,1.461 -0.428,3.018 -0.48,4.507 -0.011,0.298 -0.468,0.256 -0.505,-0.016 v 0" />
      <path
         id="path1184"
         style="fill:#ffffff;fill-opacity:1;fill-rule:nonzero;stroke:none;stroke-width:0.1"
         d="m 166.579,375.102 c 0.824,-0.368 1.649,-0.869 2.312,-1.489 0.318,-0.298 0.56,-0.67 0.684,-1.088 0.115,-0.388 0.043,-0.776 0.189,-1.154 0.061,-0.157 0.255,-0.133 0.348,-0.031 0.684,0.749 0.024,1.946 -0.539,2.559 -0.763,0.831 -1.836,1.179 -2.87,1.532 -0.217,0.074 -0.33,-0.237 -0.124,-0.329 v 0" />
      <path
         id="path1186"
         style="fill:#ffffff;fill-opacity:1;fill-rule:nonzero;stroke:none;stroke-width:0.1"
         d="m 155.694,370.608 c -0.133,-0.169 -0.234,-0.342 -0.181,-0.561 0.047,-0.193 0.261,-0.283 0.424,-0.156 0.101,0.079 0.151,0.182 0.244,0.268 0.355,0.329 -0.185,0.83 -0.487,0.449 v 0" />
      <path
         id="path1188"
         style="fill:#ffffff;fill-opacity:1;fill-rule:nonzero;stroke:none;stroke-width:0.1"
         d="m 142.673,382.68 c 0.564,0.093 0.833,0.396 1.009,0.931 0.168,0.509 0.198,1.153 -0.275,1.497 -0.102,0.074 -0.236,-0.019 -0.22,-0.138 0.047,-0.336 0.072,-0.704 0.039,-1.042 -0.035,-0.355 -0.248,-1.017 -0.563,-1.215 -0.016,-0.01 -0.011,-0.037 0.01,-0.033 v 0" />
    </g>
  </g>
</svg>
