<?xml version="1.0" encoding="UTF-8" standalone="no"?>
<svg
   xmlns:dc="http://purl.org/dc/elements/1.1/"
   xmlns:cc="http://creativecommons.org/ns#"
   xmlns:rdf="http://www.w3.org/1999/02/22-rdf-syntax-ns#"
   xmlns:svg="http://www.w3.org/2000/svg"
   xmlns="http://www.w3.org/2000/svg"
   width="37.121281mm"
   height="36.868446mm"
   viewBox="0 0 37.121281 36.868446"
   version="1.1"
   id="svg5590">
  <defs
     id="defs5584" />
  <metadata
     id="metadata5587">
    <rdf:RDF>
      <cc:Work
         rdf:about="">
        <dc:format>image/svg+xml</dc:format>
        <dc:type
           rdf:resource="http://purl.org/dc/dcmitype/StillImage" />
        <dc:title></dc:title>
      </cc:Work>
    </rdf:RDF>
  </metadata>
  <g
     id="layer1">
    <g
       id="g5533"
       transform="matrix(0.35277777,0,0,-0.35277777,-66.525432,101.82789)">
      <path
         id="path232"
         style="fill:#f7ca72;fill-opacity:1;fill-rule:nonzero;stroke:none;stroke-width:0.1"
         d="m 214.803,265.874 c -0.77,1.106 -0.945,2.503 -1.163,3.832 -0.462,2.817 -1.33,5.778 -3.539,7.586 -0.708,0.58 -1.53,1.018 -2.191,1.651 0.073,0.671 0.981,0.823 1.651,0.743 4.414,-0.527 8.463,-3.471 10.325,-7.509 0.776,-1.681 1.33,-3.689 2.962,-4.561 1.163,-0.622 2.61,-0.491 3.785,-1.087 -1.548,-1.386 -3.095,-2.771 -4.643,-4.157 -0.22,-0.196 -0.464,-0.403 -0.759,-0.419 -0.233,-0.013 -0.454,0.098 -0.661,0.207 -0.88,0.459 -1.76,0.919 -2.641,1.379 -1.165,0.608 -2.376,1.256 -3.126,2.335" />
      <path
         id="path234"
         style="fill:#f5dba3;fill-opacity:1;fill-rule:nonzero;stroke:none;stroke-width:0.1"
         d="m 224.966,278.714 c -0.388,0.084 -0.787,-0.171 -0.99,-0.512 -0.203,-0.341 -0.25,-0.75 -0.279,-1.146 -0.209,-2.974 0.415,-5.936 1.036,-8.852 0.24,-1.126 0.647,-2.444 1.747,-2.779 0.466,-0.142 0.968,-0.069 1.444,0.034 1.526,0.33 2.99,0.951 4.288,1.818 -3.354,2.657 -3.796,7.64 -6.547,10.918 -0.19,0.226 -0.41,0.456 -0.699,0.519" />
      <path
         id="path236"
         style="fill:#f7ca72;fill-opacity:1;fill-rule:nonzero;stroke:none;stroke-width:0.1"
         d="m 241.842,270.555 c -0.049,-0.13 -0.189,-0.196 -0.317,-0.249 -2.939,-1.219 -6.163,-1.746 -9.337,-1.524 -1.106,2.474 -1.128,5.411 -0.061,7.902 0.539,1.256 1.348,2.429 1.538,3.783 0.397,2.811 -1.955,5.342 -2.045,8.179 1.403,-0.543 2.777,-1.159 4.116,-1.845 0.458,-0.234 0.917,-0.48 1.29,-0.833 0.642,-0.607 0.97,-1.468 1.227,-2.312 0.651,-2.141 0.974,-4.382 0.951,-6.619 -0.009,-0.874 -0.067,-1.768 0.179,-2.607 0.387,-1.327 1.463,-2.315 2.307,-3.409 0.106,-0.135 0.212,-0.306 0.152,-0.466" />
      <path
         id="path238"
         style="fill:#f5dba3;fill-opacity:1;fill-rule:nonzero;stroke:none;stroke-width:0.1"
         d="m 247.286,282.49 c 1.603,-3.75 1.194,-8.024 1.954,-12.031 0.165,-0.874 0.296,-1.982 -0.452,-2.463 -0.426,-0.273 -0.975,-0.212 -1.476,-0.142 -1.833,0.259 -3.666,0.517 -5.498,0.776 0.399,4.115 2.039,7.993 3.659,11.797 0.374,0.878 0.879,1.868 1.813,2.063" />
      <path
         id="path240"
         style="fill:#f7ca72;fill-opacity:1;fill-rule:nonzero;stroke:none;stroke-width:0.1"
         d="m 254.654,277.529 c 2.871,1.837 4.297,5.663 3.327,8.93 1.015,0.065 1.715,-1 2.025,-1.967 0.727,-2.27 0.567,-4.811 -0.439,-6.971 -0.338,-0.727 -0.768,-1.409 -1.1,-2.14 -1.167,-2.57 -1.014,-5.699 0.4,-8.142 0.09,-0.156 0.189,-0.324 0.174,-0.504 -0.038,-0.463 -0.687,-0.53 -1.145,-0.459 -2.025,0.309 -4.05,0.618 -6.075,0.928 -0.224,0.034 -0.462,0.075 -0.63,0.227 -0.155,0.142 -0.221,0.354 -0.281,0.556 -0.369,1.254 -0.719,2.533 -0.731,3.841 -0.013,1.307 0.348,2.666 1.241,3.622 0.878,0.94 2.15,1.385 3.234,2.079" />
      <path
         id="path242"
         style="fill:#f5dba3;fill-opacity:1;fill-rule:nonzero;stroke:none;stroke-width:0.1"
         d="m 259.939,265.101 c -0.214,0.198 -0.445,0.428 -0.458,0.72 -0.014,0.333 0.256,0.601 0.509,0.818 3.391,2.915 7.354,5.162 11.595,6.576 0.166,-0.906 -0.331,-1.787 -0.81,-2.574 -1.346,-2.217 -2.694,-4.433 -4.041,-6.65 -0.549,-0.906 -1.181,-1.878 -2.189,-2.208 -0.258,-0.085 -0.541,-0.121 -0.8,-0.038 -0.254,0.08 -0.458,0.266 -0.652,0.446 -1.052,0.97 -2.103,1.94 -3.154,2.91" />
      <path
         id="path244"
         style="fill:#f7ca72;fill-opacity:1;fill-rule:nonzero;stroke:none;stroke-width:0.1"
         d="m 270.506,253.687 c -0.278,-0.055 -0.578,-0.059 -0.832,0.067 -0.316,0.157 -0.504,0.482 -0.674,0.789 -0.835,1.506 -1.691,3.083 -1.76,4.804 -0.097,2.466 1.665,4.885 4.043,5.548 1.214,0.339 2.499,0.254 3.754,0.361 1.397,0.12 2.773,0.484 4.047,1.069 1.39,0.639 2.747,1.668 3.118,3.151 0.108,0.429 0.13,0.887 0.33,1.281 0.201,0.394 0.67,0.707 1.078,0.537 -0.558,-2.301 -1.275,-4.565 -2.141,-6.769 -0.476,-1.207 -1.023,-2.435 -1.984,-3.306 -1.338,-1.213 -3.295,-1.569 -4.602,-2.814 -0.797,-0.759 -1.279,-1.779 -1.88,-2.7 -0.602,-0.921 -1.418,-1.806 -2.497,-2.018" />
      <path
         id="path246"
         style="fill:#f5dba3;fill-opacity:1;fill-rule:nonzero;stroke:none;stroke-width:0.1"
         d="m 271.153,251.863 c 0.014,0.176 0.034,0.362 0.133,0.509 0.127,0.188 0.357,0.274 0.572,0.347 4.367,1.464 9.066,1.922 13.632,1.328 -3.522,-3.18 -7.515,-5.839 -11.809,-7.86 -0.346,-0.163 -0.717,-0.325 -1.096,-0.28 -0.877,0.104 -1.238,1.169 -1.346,2.045 -0.159,1.296 -0.187,2.608 -0.086,3.911" />
      <path
         id="path248"
         style="fill:#f5dba3;fill-opacity:1;fill-rule:nonzero;stroke:none;stroke-width:0.1"
         d="m 206.771,259.871 c 0.878,-0.963 1.866,-1.86 2.463,-3.019 0.365,-0.708 0.593,-1.524 1.189,-2.053 0.816,-0.722 2.116,-0.66 3.056,-0.11 0.941,0.55 1.586,1.487 2.117,2.438 0.566,1.014 1.04,2.078 1.413,3.178 -1.433,1.24 -2.883,2.492 -4.557,3.381 -0.806,0.428 -1.655,0.766 -2.502,1.104 -1.27,0.506 -2.539,1.012 -3.809,1.519 -0.527,0.209 -1.117,0.421 -1.646,0.217 -0.579,-0.223 -0.883,-0.899 -0.854,-1.519 0.029,-0.621 0.322,-1.195 0.634,-1.732 0.708,-1.219 1.546,-2.362 2.496,-3.404" />
      <path
         id="path250"
         style="fill:#f7ca72;fill-opacity:1;fill-rule:nonzero;stroke:none;stroke-width:0.1"
         d="m 200.607,250.136 c 0.436,-0.384 0.739,-0.892 1.108,-1.342 0.852,-1.038 2.038,-1.736 3.199,-2.414 1.014,-0.592 2.301,-1.186 3.292,-0.555 0.514,0.327 0.8,0.916 0.982,1.498 0.982,3.158 -0.713,6.919 -3.73,8.273 -2.696,1.209 -5.886,0.551 -8.562,-0.701 -1.771,-0.829 -3.713,-1.936 -5.556,-1.282 -0.649,0.23 -1.254,0.675 -1.942,0.645 -0.131,-0.754 0.516,-1.41 1.155,-1.831 1.393,-0.916 3.045,-1.433 4.712,-1.474 1.846,-0.045 3.954,0.401 5.342,-0.817" />
      <path
         id="path252"
         style="fill:#f5dba3;fill-opacity:1;fill-rule:nonzero;stroke:none;stroke-width:0.1"
         d="m 206.597,235.574 c 0.318,0.268 0.528,0.639 0.707,1.014 0.852,1.796 1.106,3.87 0.71,5.819 -4.36,2.031 -9.781,1.575 -13.74,-1.156 -0.426,-0.293 -0.85,-0.629 -1.076,-1.094 3.398,-2.21 6.945,-4.475 10.962,-5.012 0.843,-0.112 1.787,-0.118 2.437,0.429" />
      <path
         id="path254"
         style="fill:#f7ca72;fill-opacity:1;fill-rule:nonzero;stroke:none;stroke-width:0.1"
         d="m 207.732,231.309 c -0.203,0.298 -0.558,0.449 -0.899,0.566 -3.418,1.177 -7.455,0.326 -10.107,-2.131 -1.518,-1.406 -2.817,-3.396 -4.872,-3.629 -1.088,-0.123 -2.152,0.296 -3.218,0.545 -0.253,-0.59 0.342,-1.186 0.898,-1.508 2.226,-1.285 4.916,-1.626 7.464,-1.281 2.547,0.346 4.968,1.34 7.221,2.578 1.521,0.836 3.085,1.921 3.592,3.58 0.128,0.424 0.171,0.915 -0.079,1.28" />
      <path
         id="path256"
         style="fill:#f5dba3;fill-opacity:1;fill-rule:nonzero;stroke:none;stroke-width:0.1"
         d="m 208.544,222.254 c -0.095,0.21 -0.202,0.433 -0.399,0.553 -0.159,0.097 -0.353,0.113 -0.54,0.12 -3.681,0.137 -6.98,-2.096 -9.98,-4.234 -1.323,-0.944 -2.717,-1.976 -3.292,-3.497 1.226,-0.207 2.475,0.081 3.685,0.367 2.701,0.64 5.402,1.279 8.104,1.919 1.092,0.259 2.32,0.621 2.816,1.628 0.482,0.981 0.057,2.148 -0.394,3.144" />
      <path
         id="path258"
         style="fill:#f7ca72;fill-opacity:1;fill-rule:nonzero;stroke:none;stroke-width:0.1"
         d="m 200.702,200.322 c 3.607,0.607 6.958,2.619 9.189,5.517 0.683,0.887 1.293,1.879 2.247,2.463 0.551,0.338 1.186,0.517 1.756,0.824 0.568,0.308 1.1,0.804 1.181,1.447 0.08,0.632 -0.291,1.224 -0.647,1.753 -0.721,1.072 -1.581,2.231 -2.853,2.461 -0.603,0.108 -1.222,-0.015 -1.82,-0.155 -2.439,-0.574 -5.01,-1.628 -6.2,-3.834 -0.778,-1.442 -0.835,-3.147 -1.12,-4.761 -0.285,-1.615 -0.941,-3.34 -2.399,-4.089 -0.884,-0.454 -2.069,-0.576 -2.523,-1.459 1.001,-0.401 2.126,-0.346 3.189,-0.167" />
      <path
         id="path260"
         style="fill:#f5dba3;fill-opacity:1;fill-rule:nonzero;stroke:none;stroke-width:0.1"
         d="m 223.659,204.675 c -0.192,0.472 -0.613,0.808 -1.033,1.095 -1.598,1.092 -3.46,1.796 -5.381,2.036 -2.254,-3.76 -3.439,-8.151 -3.382,-12.534 1.424,0.081 2.538,1.209 3.492,2.269 1.178,1.31 2.358,2.649 3.825,3.624 0.651,0.434 1.362,0.798 1.9,1.367 0.538,0.568 0.874,1.419 0.579,2.143" />
      <path
         id="path262"
         style="fill:#f7ca72;fill-opacity:1;fill-rule:nonzero;stroke:none;stroke-width:0.1"
         d="m 231.228,190.567 c 0.673,0.721 1.646,1.115 2.318,1.839 1.616,1.74 1.467,4.504 0.648,6.733 -0.484,1.319 -1.179,2.585 -2.196,3.556 -1.017,0.969 -2.381,1.623 -3.786,1.6 -0.909,-0.014 -1.886,-0.374 -2.324,-1.17 -0.486,-0.88 -0.17,-1.992 0.323,-2.869 0.492,-0.877 1.159,-1.679 1.411,-2.653 0.411,-1.587 -0.368,-3.224 -1.229,-4.618 -0.862,-1.395 -1.863,-2.815 -1.951,-4.451 -0.1,-1.871 1.184,-3.728 2.969,-4.294 0.244,-0.078 0.505,-0.134 0.756,-0.084 0.942,0.186 -0.822,2.251 3.061,6.411" />
      <path
         id="path264"
         style="fill:#f5dba3;fill-opacity:1;fill-rule:nonzero;stroke:none;stroke-width:0.1"
         d="m 238.185,197.763 c 0.313,-1.01 0.556,-2.082 1.219,-2.905 0.664,-0.823 1.922,-1.294 2.801,-0.705 0.392,0.261 0.642,0.683 0.871,1.095 1.77,3.179 3.054,6.599 4.332,10.004 0.302,0.805 0.609,1.65 0.501,2.502 -0.19,1.511 -1.632,2.575 -3.09,3.012 -2.249,0.673 -4.719,0.278 -6.854,-0.697 -1.325,-0.605 -2.634,-1.534 -3.073,-2.924 -0.646,-2.045 0.786,-4.085 1.828,-5.96 0.604,-1.086 1.095,-2.235 1.465,-3.422" />
      <path
         id="path266"
         style="fill:#f7ca72;fill-opacity:1;fill-rule:nonzero;stroke:none;stroke-width:0.1"
         d="m 272.435,235.588 c -0.463,0.516 -0.501,1.274 -0.515,1.967 -0.013,0.655 -0.025,1.309 -0.038,1.963 -0.007,0.339 -0.013,0.683 0.082,1.008 0.165,0.571 0.615,1.008 1.047,1.416 0.966,0.913 1.959,1.844 3.18,2.367 2.299,0.984 4.931,0.356 7.361,-0.237 2.429,-0.593 5.118,-1.109 7.331,0.056 0.914,0.482 1.746,1.247 2.778,1.3 0.386,-1.019 -0.076,-2.174 -0.733,-3.042 -1.016,-1.342 -2.52,-2.305 -4.162,-2.666 -3.099,-0.682 -6.581,0.694 -9.39,-0.781 -1.339,-0.702 -2.29,-1.952 -3.453,-2.919 -0.499,-0.416 -1.059,-0.789 -1.694,-0.924 -0.636,-0.135 -1.361,0.008 -1.794,0.492" />
      <path
         id="path268"
         style="fill:#f5dba3;fill-opacity:1;fill-rule:nonzero;stroke:none;stroke-width:0.1"
         d="m 284.591,228.161 c 0.389,-0.275 0.823,-0.682 0.696,-1.142 -4.38,-1.717 -9.409,-0.386 -13.957,-1.591 -0.312,-0.083 -0.732,-0.133 -0.877,0.155 -0.041,0.082 -0.048,0.175 -0.053,0.266 -0.119,1.919 0.047,3.856 0.492,5.727 0.06,0.255 0.138,0.528 0.345,0.689 0.162,0.124 0.374,0.157 0.577,0.181 4.565,0.538 9.022,-1.634 12.777,-4.285" />
      <path
         id="path270"
         style="fill:#f7ca72;fill-opacity:1;fill-rule:nonzero;stroke:none;stroke-width:0.1"
         d="m 266.338,217.456 c 0.938,1.047 2.35,1.58 3.752,1.699 1.4,0.12 2.806,-0.136 4.176,-0.452 0.809,-0.187 1.627,-0.401 2.339,-0.827 1.639,-0.978 2.444,-2.867 3.357,-4.543 0.913,-1.675 2.294,-3.4 4.199,-3.511 0.665,-0.039 1.325,0.13 1.955,0.345 0.23,0.079 0.471,0.164 0.709,0.118 0.238,-0.048 0.455,-0.289 0.38,-0.52 -0.045,-0.138 -0.175,-0.227 -0.297,-0.306 -1.564,-1.005 -3.223,-1.915 -5.032,-2.348 -1.81,-0.434 -3.797,-0.354 -5.429,0.54 -1.943,1.064 -3.163,3.127 -5.046,4.295 -1.96,1.216 -4.386,1.322 -6.692,1.36 0.275,1.481 0.624,3.029 1.629,4.15" />
      <path
         id="path272"
         style="fill:#f5dba3;fill-opacity:1;fill-rule:nonzero;stroke:none;stroke-width:0.1"
         d="m 265.533,200.267 c -1.982,1.358 -4.11,2.504 -6.336,3.409 -0.439,0.18 -0.914,0.375 -1.158,0.781 -0.374,0.624 -0.038,1.421 0.327,2.05 1.006,1.73 2.236,3.328 3.648,4.745 2.122,-1.722 4.259,-3.46 5.996,-5.57 1.737,-2.11 3.066,-4.645 3.305,-7.368 -1.002,-0.34 -2.121,-0.145 -3.088,0.283 -0.968,0.428 -1.821,1.071 -2.694,1.67" />
      <path
         id="path274"
         style="fill:#f7ca72;fill-opacity:1;fill-rule:nonzero;stroke:none;stroke-width:0.1"
         d="m 259.597,194.426 c -0.317,2.24 -2.085,3.946 -3.26,5.88 -0.869,1.429 -1.462,3.073 -2.689,4.21 -1.227,1.137 -3.44,1.481 -4.444,0.144 -0.743,-0.99 -0.489,-2.386 -0.117,-3.567 0.518,-1.64 1.2,-3.229 2.034,-4.735 0.639,-1.153 1.393,-2.371 1.243,-3.681 -0.125,-1.092 -0.865,-2.012 -1.662,-2.768 -0.797,-0.756 -1.694,-1.433 -2.299,-2.351 -0.603,-0.918 -0.854,-2.182 -0.257,-3.104 0.97,1.425 2.364,2.559 3.958,3.22 1.893,0.786 4.094,0.943 5.695,2.223 1.328,1.061 2.036,2.847 1.798,4.529" />
      <path
         id="path276"
         style="fill:#d4af64;fill-opacity:1;fill-rule:nonzero;stroke:none;stroke-width:0.1"
         d="m 240.905,206.97 c -1.084,-1.842 -2.694,-2.86 -4.529,-3.955 -1.208,-0.722 -4.472,-1.3 -7.539,-1.508 -4.5,-0.305 -10.087,0.936 -13.571,3.379 -4.15,2.912 -6.947,6.529 -8.402,11.386 -0.58,1.936 -0.921,3.934 -1.26,5.927 -0.382,2.248 -0.765,4.495 -1.147,6.743 -0.425,2.495 -0.851,5.016 -0.716,7.544 0.115,2.17 0.643,4.297 1.259,6.381 1.542,5.218 4.405,9.647 7.544,14.092 4.025,5.701 10.618,8.983 17.144,11.457 1.896,0.72 3.821,1.393 5.818,1.748 2.373,0.422 4.801,0.387 7.21,0.35 3.009,-0.046 6.058,-0.099 8.952,-0.924 3.954,-1.129 7.358,-3.624 11.089,-5.355 1.699,-0.789 2.733,-2.192 3.89,-3.666 8.905,-11.341 10.389,-26.201 6.801,-40.084 -0.585,-2.265 -1.663,-4.783 -3.587,-7.696 -1.809,-2.737 -2.929,-4.37 -5.511,-6.394 -1.882,-1.476 -3.83,-2.984 -6.136,-3.62 -2.959,-0.816 -9.379,-0.112 -12.323,0.76 -2.024,0.599 -3.779,1.703 -4.986,3.435" />
      <path
         id="path278"
         style="fill:#30284f;fill-opacity:1;fill-rule:nonzero;stroke:none;stroke-width:0.1"
         d="m 211.858,242.998 c 0.044,0.378 0.237,0.722 0.444,1.041 1.95,3 4.901,4.42 8.297,5.546 1.115,0.369 2.227,0.649 3.402,0.641 0.962,-0.005 1.947,-0.188 2.856,-0.503 2.386,-0.828 4.918,-2.577 6.735,-4.506 0.299,-0.317 1.269,0.061 1.173,0.486 -0.202,0.881 -0.596,1.669 -1.04,2.288 -0.668,0.929 -2.183,1.648 -3.193,2.187 -3.143,1.681 -6.926,2.129 -10.374,1.229 -3.449,-0.9 -6.53,-3.139 -8.45,-6.141 -0.354,-0.554 -0.674,-1.14 -0.829,-1.778 -0.257,-1.06 0.007,-2.278 0.817,-3.007 0.811,-0.729 2.183,-0.819 2.978,-0.072 -0.752,0.073 -1.187,0.308 -1.852,0.666 -0.664,0.359 -1.052,1.173 -0.964,1.923" />
      <path
         id="path280"
         style="fill:#bc944d;fill-opacity:1;fill-rule:nonzero;stroke:none;stroke-width:0.1"
         d="m 245.684,246.067 c -1.613,-0.208 -3.424,-13.225 -3.806,-19.228 -0.059,-0.921 -0.095,-1.871 -0.481,-2.71 -0.385,-0.839 -1.224,-1.547 -2.144,-1.466 -1.282,0.114 -2.305,0.786 -2.201,5.934 0.215,10.605 -1.872,17.366 -2.808,16.378 -1.196,0.156 2.314,-9.816 1.75,-14.231 -0.2,-1.565 -0.538,-3.128 -0.459,-4.705 0.079,-1.576 0.771,-3.676 2.037,-4.618 1.267,-0.942 3.19,-0.434 4.113,0.846 0.367,0.509 0.523,1.135 0.669,1.745 1.349,5.605 2.028,12.164 3.017,17.843 0.201,1.154 1.768,4.264 0.313,4.212" />
      <path
         id="path282"
         style="fill:#bc944d;fill-opacity:1;fill-rule:nonzero;stroke:none;stroke-width:0.1"
         d="m 232.561,226.372 c -0.373,-0.355 0.124,-1.675 2.671,-3.755 0.271,-0.221 2.35,-1.229 2.652,-1.404 0.303,-0.175 0.751,-0.16 0.936,0.136 0.133,0.21 -1.247,1.006 -1.299,1.249 -0.318,1.456 -0.855,2.863 -1.588,4.16 -0.554,0.226 -1.584,1.319 -3.372,-0.386" />
      <path
         id="path284"
         style="fill:#bc944d;fill-opacity:1;fill-rule:nonzero;stroke:none;stroke-width:0.1"
         d="m 245.854,226.417 c 0.054,-0.108 0.062,-0.235 0.053,-0.358 -0.053,-0.752 -0.661,-1.331 -1.226,-1.83 -1.187,-1.045 -2.389,-2.102 -3.792,-2.832 0.325,0.936 0.649,1.872 0.974,2.808 0.196,0.563 0.383,1.636 0.752,2.104 0.619,0.782 1.716,0.667 2.69,0.449 0.216,-0.049 0.448,-0.142 0.549,-0.341" />
      <path
         id="path286"
         style="fill:#a52713;fill-opacity:1;fill-rule:nonzero;stroke:none;stroke-width:0.1"
         d="m 248.599,218.954 c 3.005,-1.067 6.322,-0.337 9.395,0.509 -0.98,-1.464 -2.587,-2.432 -4.284,-2.905 -1.698,-0.473 -3.492,-0.487 -5.249,-0.351 -1.692,0.133 -3.502,0.382 -4.999,-0.419 -0.517,-0.276 -0.965,-0.665 -1.467,-0.966 -1.213,-0.73 -2.742,-0.913 -4.093,-0.491 -1.897,0.594 -3.339,2.269 -5.273,2.726 -1.16,0.273 -2.372,0.076 -3.563,0.009 -2.378,-0.137 -4.785,0.258 -6.996,1.144 1.761,-0.355 3.613,-0.249 5.321,0.306 1.398,0.454 2.689,1.197 4.083,1.664 1.394,0.467 2.991,0.631 4.289,-0.059 0.443,-0.237 0.832,-0.563 1.266,-0.816 1.068,-0.623 2.401,-0.772 3.579,-0.399 1.162,0.367 2.163,1.206 3.369,1.375 1.608,0.223 3.091,-0.785 4.622,-1.327" />
      <path
         id="path288"
         style="fill:#ba422a;fill-opacity:1;fill-rule:nonzero;stroke:none;stroke-width:0.1"
         d="m 228.232,215.045 c 2.115,-1.704 4.624,-3.031 7.329,-3.28 3.496,-0.322 7.04,1.166 10.478,0.455 4.553,-0.941 9.422,3.345 11.955,7.243 -1.501,-1.827 -5.111,-2.658 -7.475,-2.565 -2.364,0.093 -4.198,0.335 -6.474,-0.308 -1.678,-0.472 -3.247,-1.529 -4.988,-1.439 -1.858,0.095 -3.371,1.464 -5.092,2.168 -3.64,1.49 -7.875,0 -11.732,0.774 1.991,-1.373 4.117,-1.53 5.999,-3.048" />
      <path
         id="path290"
         style="fill:#e8bb6b;fill-opacity:1;fill-rule:nonzero;stroke:none;stroke-width:0.1"
         d="m 224.033,222.126 c 1.409,1.502 3.234,2.615 5.064,3.558 1.612,0.833 2.556,1.445 3.431,1.457 -2.343,0.215 -5.819,-1.257 -7.578,-2.821 -1.522,-1.354 -2.917,-3.109 -2.959,-5.146 0.608,1.033 1.222,2.077 2.042,2.952" />
      <path
         id="path292"
         style="fill:#e8bb6b;fill-opacity:1;fill-rule:nonzero;stroke:none;stroke-width:0.1"
         d="m 254.224,223.869 c 0.517,-0.505 0.985,-1.06 1.533,-1.531 0.24,-0.207 1.453,-1.704 1.573,-2.217 -0.78,-0.259 -3.2,2.371 -4.107,3.432 -1.483,1.734 -4.553,2.861 -6.656,3.744 2.964,0.208 6.07,-1.881 7.657,-3.428" />
      <path
         id="path294"
         style="fill:#ba422a;fill-opacity:1;fill-rule:nonzero;stroke:none;stroke-width:0.1"
         d="m 212.196,233.293 c 2.666,1.622 6.336,1.39 8.777,-0.556 0.763,-0.609 1.416,-1.377 1.791,-2.278 0.799,-1.921 0.197,-4.234 -1.153,-5.817 -1.35,-1.582 -3.071,-2.854 -5.097,-3.325 -1.277,-0.296 -3.36,-0.238 -4.524,0.364 -7.953,4.114 -2.461,9.99 0.206,11.612" />
      <path
         id="path296"
         style="fill:#ba422a;fill-opacity:1;fill-rule:nonzero;stroke:none;stroke-width:0.1"
         d="m 260.355,235.767 c -2.572,-0.71 -4.55,-3.126 -4.844,-5.778 -0.294,-2.653 1.053,-5.394 3.274,-6.873 2.221,-1.479 5.205,-1.683 7.653,-0.622 1.945,0.842 3.583,2.51 4.103,4.564 0.418,1.647 0.099,3.427 -0.657,4.95 -0.422,0.851 -0.988,1.648 -1.745,2.222 -0.574,0.434 -1.241,0.729 -1.915,0.981 -1.872,0.698 -3.943,1.087 -5.869,0.556" />
      <path
         id="path298"
         style="fill:#ba422a;fill-opacity:1;fill-rule:nonzero;stroke:none;stroke-width:0.1"
         d="m 221.272,219.587 c -0.431,0.456 -1.053,0.767 -1.677,0.701 -0.625,-0.065 -1.212,-0.573 -1.25,-1.2 -0.01,-0.169 0.018,-0.339 0.067,-0.501 0.181,-0.599 0.728,-1.123 1.355,-1.108 0.58,0.013 1.057,0.453 1.419,0.906 0.205,0.256 0.402,0.582 0.295,0.892 -0.04,0.119 -0.122,0.219 -0.209,0.31" />
      <path
         id="path300"
         style="fill:#ba422a;fill-opacity:1;fill-rule:nonzero;stroke:none;stroke-width:0.1"
         d="m 260.17,220.702 c -0.161,0.072 -0.344,0.079 -0.522,0.079 -0.38,0.002 -0.787,-0.026 -1.094,-0.249 -0.533,-0.389 -0.547,-1.164 -0.509,-1.822 0.432,-0.316 0.91,-0.601 1.441,-0.658 0.533,-0.056 1.124,0.173 1.353,0.656 0.209,0.444 0.071,0.974 -0.15,1.411 -0.12,0.237 -0.277,0.475 -0.519,0.583" />
      <path
         id="path302"
         style="fill:#ffffff;fill-opacity:1;fill-rule:nonzero;stroke:none;stroke-width:0.1"
         d="m 219.125,241.868 c 3.042,1.261 6.515,1.451 9.675,0.529 0.643,-0.188 1.29,-0.429 1.797,-0.868 -0.085,-0.282 -0.305,-0.5 -0.523,-0.697 -1.837,-1.65 -4.209,-2.696 -6.666,-2.938 -2.458,-0.242 -4.988,0.321 -7.111,1.582 0.469,1.179 1.656,1.905 2.828,2.392" />
      <path
         id="path304"
         style="fill:#ffffff;fill-opacity:1;fill-rule:nonzero;stroke:none;stroke-width:0.1"
         d="m 263.948,242.146 c -3.966,-2.726 -9.556,-2.847 -13.635,-0.295 -0.033,0.242 0.19,0.435 0.392,0.572 1.443,0.98 3.05,1.74 4.755,2.107 3.079,0.664 6.426,-0.023 8.993,-1.848 -0.088,-0.233 -0.3,-0.394 -0.505,-0.536" />
      <path
         id="path306"
         style="fill:#30284f;fill-opacity:1;fill-rule:nonzero;stroke:none;stroke-width:0.1"
         d="m 222.16,238.973 c 0.626,-0.566 1.512,-0.583 2.231,-0.186 0.779,0.431 1.416,1.606 1.017,2.522 -0.235,0.541 -0.742,0.795 -1.221,0.959 -0.608,0.208 -1.266,0.333 -1.868,0.073 -0.601,-0.26 -1.111,-1.01 -1.024,-1.786 0.038,-0.329 0.174,-0.625 0.33,-0.892 0.152,-0.26 0.327,-0.501 0.535,-0.69" />
      <path
         id="path308"
         style="fill:#30284f;fill-opacity:1;fill-rule:nonzero;stroke:none;stroke-width:0.1"
         d="m 256.29,244.038 c -0.54,-0.253 -0.898,-0.821 -0.968,-1.414 -0.069,-0.592 0.128,-1.197 0.474,-1.684 0.106,-0.151 1.307,-1.069 3.161,-0.244 0.876,0.389 1.186,1.842 0.537,2.548 -0.186,0.204 -0.496,0.599 -0.735,0.736 -0.702,0.402 -1.738,0.403 -2.469,0.058" />
      <path
         id="path310"
         style="fill:#30284f;fill-opacity:1;fill-rule:nonzero;stroke:none;stroke-width:0.1"
         d="m 245.111,246.743 c 1.361,2.508 3.6,4.475 6.281,5.453 1.43,0.522 2.986,0.592 4.507,0.536 2.882,-0.106 5.783,-0.402 8.502,-1.361 1.138,-0.402 2.234,-1.135 3.153,-1.916 0.919,-0.78 1.61,-1.898 1.641,-3.103 0.031,-1.206 -0.717,-2.457 -1.878,-2.787 0.937,0.812 0.834,2.386 0.09,3.377 -0.744,0.992 -1.942,1.826 -3.109,2.244 -3.103,1.111 -6.87,1.554 -10.14,1.144 -3.268,-0.409 -6.033,-2.039 -8.162,-4.554 -0.396,-0.11 -1.352,0.187 -0.885,0.967" />
    </g>
  </g>
</svg>
